<?xml version="1.0" standalone="yes"?>

<svg version="1.1" viewBox="0.0 0.0 774.3097112860893 480.9790026246719" fill="none" stroke="none" stroke-linecap="square" stroke-miterlimit="10" xmlns="http://www.w3.org/2000/svg" xmlns:xlink="http://www.w3.org/1999/xlink"><clipPath id="p.0"><path d="m0 0l774.3097 0l0 480.979l-774.3097 0l0 -480.979z" clip-rule="nonzero"></path></clipPath><g clip-path="url(#p.0)"><path fill="#000000" fill-opacity="0.0" d="m0 0l774.3097 0l0 480.979l-774.3097 0z" fill-rule="evenodd"></path><path fill="#000000" fill-opacity="0.0" d="m577.2861 227.79134l107.055115 0l0 53.16536l-107.055115 0z" fill-rule="evenodd"></path><path stroke="#000000" stroke-width="1.0" stroke-linejoin="round" stroke-linecap="butt" d="m577.2861 227.79134l107.055115 0l0 53.16536l-107.055115 0z" fill-rule="evenodd"></path><path fill="#000000" fill-opacity="0.0" d="m577.2861 15.129921l107.055115 0l0 53.16535l-107.055115 0z" fill-rule="evenodd"></path><path stroke="#000000" stroke-width="1.0" stroke-linejoin="round" stroke-linecap="butt" d="m577.2861 15.129921l107.055115 0l0 53.16535l-107.055115 0z" fill-rule="evenodd"></path><path fill="#000000" fill-opacity="0.0" d="m577.2861 68.29527l107.055115 0l0 53.16536l-107.055115 0z" fill-rule="evenodd"></path><path stroke="#000000" stroke-width="1.0" stroke-linejoin="round" stroke-linecap="butt" d="m577.2861 68.29527l107.055115 0l0 53.16536l-107.055115 0z" fill-rule="evenodd"></path><path fill="#000000" fill-opacity="0.0" d="m577.2861 121.46063l107.055115 0l0 53.16536l-107.055115 0z" fill-rule="evenodd"></path><path stroke="#000000" stroke-width="1.0" stroke-linejoin="round" stroke-linecap="butt" d="m577.2861 121.46063l107.055115 0l0 53.16536l-107.055115 0z" fill-rule="evenodd"></path><path fill="#000000" fill-opacity="0.0" d="m577.2861 174.62599l107.055115 0l0 53.165344l-107.055115 0z" fill-rule="evenodd"></path><path stroke="#000000" stroke-width="1.0" stroke-linejoin="round" stroke-linecap="butt" d="m577.2861 174.62599l107.055115 0l0 53.165344l-107.055115 0z" fill-rule="evenodd"></path><path fill="#000000" fill-opacity="0.0" d="m577.2861 280.9567l107.055115 0l0 53.165344l-107.055115 0z" fill-rule="evenodd"></path><path stroke="#000000" stroke-width="1.0" stroke-linejoin="round" stroke-linecap="butt" d="m577.2861 280.9567l107.055115 0l0 53.165344l-107.055115 0z" fill-rule="evenodd"></path><path fill="#000000" fill-opacity="0.0" d="m577.2861 334.12204l107.055115 0l0 53.165375l-107.055115 0z" fill-rule="evenodd"></path><path stroke="#000000" stroke-width="1.0" stroke-linejoin="round" stroke-linecap="butt" d="m577.2861 334.12204l107.055115 0l0 53.165375l-107.055115 0z" fill-rule="evenodd"></path><path fill="#000000" fill-opacity="0.0" d="m577.2861 387.2874l107.055115 0l0 53.165344l-107.055115 0z" fill-rule="evenodd"></path><path stroke="#000000" stroke-width="1.0" stroke-linejoin="round" stroke-linecap="butt" d="m577.2861 387.2874l107.055115 0l0 53.165344l-107.055115 0z" fill-rule="evenodd"></path><path fill="#000000" fill-opacity="0.0" d="m90.73491 227.79134l107.055115 0l0 53.16536l-107.055115 0z" fill-rule="evenodd"></path><path stroke="#000000" stroke-width="1.0" stroke-linejoin="round" stroke-linecap="butt" d="m90.73491 227.79134l107.055115 0l0 53.16536l-107.055115 0z" fill-rule="evenodd"></path><path fill="#000000" fill-opacity="0.0" d="m90.73491 15.129921l107.055115 0l0 53.16535l-107.055115 0z" fill-rule="evenodd"></path><path stroke="#000000" stroke-width="1.0" stroke-linejoin="round" stroke-linecap="butt" d="m90.73491 15.129921l107.055115 0l0 53.16535l-107.055115 0z" fill-rule="evenodd"></path><path fill="#000000" fill-opacity="0.0" d="m90.73491 68.29527l107.055115 0l0 53.16536l-107.055115 0z" fill-rule="evenodd"></path><path stroke="#000000" stroke-width="1.0" stroke-linejoin="round" stroke-linecap="butt" d="m90.73491 68.29527l107.055115 0l0 53.16536l-107.055115 0z" fill-rule="evenodd"></path><path fill="#000000" fill-opacity="0.0" d="m90.73491 121.46063l107.055115 0l0 53.16536l-107.055115 0z" fill-rule="evenodd"></path><path stroke="#000000" stroke-width="1.0" stroke-linejoin="round" stroke-linecap="butt" d="m90.73491 121.46063l107.055115 0l0 53.16536l-107.055115 0z" fill-rule="evenodd"></path><path fill="#000000" fill-opacity="0.0" d="m90.73491 174.62599l107.055115 0l0 53.165344l-107.055115 0z" fill-rule="evenodd"></path><path stroke="#000000" stroke-width="1.0" stroke-linejoin="round" stroke-linecap="butt" d="m90.73491 174.62599l107.055115 0l0 53.165344l-107.055115 0z" fill-rule="evenodd"></path><path fill="#000000" fill-opacity="0.0" d="m90.73491 280.9567l107.055115 0l0 53.165344l-107.055115 0z" fill-rule="evenodd"></path><path stroke="#000000" stroke-width="1.0" stroke-linejoin="round" stroke-linecap="butt" d="m90.73491 280.9567l107.055115 0l0 53.165344l-107.055115 0z" fill-rule="evenodd"></path><path fill="#000000" fill-opacity="0.0" d="m90.73491 334.12204l107.055115 0l0 53.165375l-107.055115 0z" fill-rule="evenodd"></path><path stroke="#000000" stroke-width="1.0" stroke-linejoin="round" stroke-linecap="butt" d="m90.73491 334.12204l107.055115 0l0 53.165375l-107.055115 0z" fill-rule="evenodd"></path><path fill="#000000" fill-opacity="0.0" d="m90.73491 387.2874l107.055115 0l0 53.165344l-107.055115 0z" fill-rule="evenodd"></path><path stroke="#000000" stroke-width="1.0" stroke-linejoin="round" stroke-linecap="butt" d="m90.73491 387.2874l107.055115 0l0 53.165344l-107.055115 0z" fill-rule="evenodd"></path><path fill="#000000" fill-opacity="0.0" d="m334.0105 350.33466l107.055115 0l0 44.53543l-107.055115 0z" fill-rule="evenodd"></path><path fill="#000000" d="m362.77243 365.234l0 10.15625l5.671875 -5.421875l2.734375 0l-4.921875 4.5l5.28125 7.90625l-2.578125 0l-4.265625 -6.484375l-1.921875 1.78125l0 4.703125l-2.03125 0l0 -17.140625l2.03125 0zm15.457031 4.453125q2.671875 0 4.140625 1.921875q1.484375 1.921875 1.484375 4.921875l0 0.25l-9.28125 0l0 0.15625q0 1.765625 1.03125 2.84375q1.03125 1.078125 2.828125 1.078125q1.359375 0 2.15625 -0.625q0.8125 -0.640625 1.0625 -1.796875l2.015625 0q-0.421875 2.0625 -1.8125 3.15625q-1.390625 1.078125 -3.484375 1.078125q-1.96875 0 -3.328125 -0.890625q-1.34375 -0.890625 -1.984375 -2.453125q-0.640625 -1.578125 -0.640625 -3.234375q0 -2.75 1.640625 -4.578125q1.65625 -1.828125 4.171875 -1.828125zm-3.65625 5.296875l7.125 0q-0.09375 -1.515625 -1.109375 -2.515625q-1.0 -1.0 -2.5 -1.0q-1.40625 0 -2.40625 0.953125q-0.984375 0.953125 -1.109375 2.5625zm12.359375 -5.015625l3.625 10.140625l0.046875 0l3.46875 -10.140625l2.171875 0l-5.265625 13.734375q-0.84375 2.140625 -1.609375 2.890625q-0.765625 0.75 -2.125 0.75q-0.375 0 -0.734375 -0.046875q-0.34375 -0.046875 -0.6875 -0.15625l0 -1.875q0.296875 0.09375 0.59375 0.1875q0.296875 0.09375 0.609375 0.09375q1.234375 0 1.71875 -1.25q0.5 -1.234375 0.796875 -2.0l-4.921875 -12.328125l2.3125 0z" fill-rule="nonzero"></path><path fill="#000000" d="m407.3818 369.96838l2.171875 3.234375l2.15625 -3.234375l3.78125 0l-4.078125 5.8125l4.578125 6.59375l-3.890625 0l-2.59375 -3.921875l-2.578125 3.921875l-3.828125 0l4.46875 -6.53125l-4.078125 -5.875l3.890625 0z" fill-rule="nonzero"></path><path fill="#000000" fill-opacity="0.0" d="m353.00262 363.57086l-155.2126 -109.19685" fill-rule="evenodd"></path><path stroke="#000000" stroke-width="2.0" stroke-linejoin="round" stroke-linecap="butt" d="m353.00262 363.57086l-145.39813 -102.29205" fill-rule="evenodd"></path><path fill="#000000" stroke="#000000" stroke-width="2.0" stroke-linecap="butt" d="m209.50531 258.577l-9.32399 -2.52063l5.5223694 7.9242554z" fill-rule="evenodd"></path><path fill="#000000" fill-opacity="0.0" d="m245.94751 265.80972l107.055115 0l0 44.53543l-107.055115 0z" fill-rule="evenodd"></path><path fill="#000000" d="m267.22708 279.1672l0 5.1875l0.03125 0q0.359375 -0.796875 1.203125 -1.234375q0.84375 -0.4375 1.90625 -0.4375q1.78125 0 2.578125 0.90625q0.8125 0.90625 0.8125 2.59375l0 6.546875l-1.625 0l0 -6.703125q0 -0.84375 -0.53125 -1.375q-0.53125 -0.546875 -1.484375 -0.546875q-1.359375 0 -2.125 0.84375q-0.765625 0.828125 -0.765625 2.171875l0 5.609375l-1.609375 0l0 -13.5625l1.609375 0zm12.781952 3.515625q2.0 0 2.84375 0.71875q0.84375 0.703125 0.84375 1.90625q0 5.109375 0 5.671875q0 0.546875 0.5 0.546875q0.109375 0 0.234375 -0.015625q0.140625 -0.03125 0.265625 -0.078125l0 1.265625q-0.234375 0.125 -0.53125 0.1875q-0.28125 0.078125 -0.625 0.078125q-0.671875 0 -1.03125 -0.375q-0.34375 -0.375 -0.34375 -1.15625q-0.640625 0.765625 -1.515625 1.15625q-0.859375 0.375 -1.9375 0.375q-1.53125 0 -2.390625 -0.71875q-0.859375 -0.71875 -0.859375 -2.046875q0 -1.3125 0.84375 -2.09375q0.84375 -0.78125 3.96875 -1.171875q1.0625 -0.125 1.4375 -0.390625q0.375 -0.28125 0.375 -0.8125q0 -0.828125 -0.53125 -1.21875q-0.515625 -0.40625 -1.65625 -0.40625q-1.203125 0 -1.796875 0.453125q-0.59375 0.453125 -0.640625 1.40625l-1.625 0q0.078125 -1.625 1.15625 -2.453125q1.078125 -0.828125 3.015625 -0.828125zm-2.84375 7.40625q0 0.6875 0.5 1.0625q0.5 0.375 1.40625 0.375q1.359375 0 2.171875 -0.671875q0.828125 -0.671875 0.828125 -1.515625l0 -1.6875q-0.40625 0.296875 -1.0625 0.40625q-0.65625 0.09375 -1.71875 0.234375q-1.078125 0.15625 -1.609375 0.59375q-0.515625 0.421875 -0.515625 1.203125zm12.114197 -7.40625q1.984375 0 2.9375 0.78125q0.96875 0.765625 1.0625 2.28125l-1.609375 0l0 -0.015625q-0.0625 -0.78125 -0.6875 -1.203125q-0.609375 -0.421875 -1.578125 -0.421875q-0.984375 0 -1.546875 0.328125q-0.5625 0.328125 -0.5625 0.921875q0 0.53125 0.5 0.875q0.5 0.34375 1.5 0.5625l1.515625 0.34375q1.4375 0.3125 2.171875 0.96875q0.75 0.65625 0.75 1.765625q0 1.4375 -1.125 2.265625q-1.125 0.828125 -3.0625 0.828125q-1.890625 0 -3.0 -0.84375q-1.09375 -0.84375 -1.171875 -2.484375l1.625 0q0.03125 0.90625 0.71875 1.40625q0.703125 0.484375 1.921875 0.484375q1.171875 0 1.765625 -0.359375q0.609375 -0.375 0.609375 -1.09375q0 -0.671875 -0.609375 -1.046875q-0.59375 -0.390625 -2.4375 -0.765625q-1.859375 -0.359375 -2.625 -1.015625q-0.75 -0.671875 -0.75 -1.765625q0 -1.296875 1.046875 -2.046875q1.046875 -0.75 2.640625 -0.75zm7.671875 -3.515625l0 5.1875l0.03125 0q0.359375 -0.796875 1.203125 -1.234375q0.84375 -0.4375 1.90625 -0.4375q1.78125 0 2.578125 0.90625q0.8125 0.90625 0.8125 2.59375l0 6.546875l-1.625 0l0 -6.703125q0 -0.84375 -0.53125 -1.375q-0.53125 -0.546875 -1.484375 -0.546875q-1.359375 0 -2.125 0.84375q-0.765625 0.828125 -0.765625 2.171875l0 5.609375l-1.609375 0l0 -13.5625l1.609375 0zm14.313232 0.09375l0 13.46875l-1.609375 0l0 -9.65625l-3.5 0l0 -1.296875l0.046875 0q1.71875 0 2.640625 -0.609375q0.9375 -0.609375 1.1875 -1.90625l1.234375 0zm8.719452 -0.421875q-1.28125 2.0 -1.890625 4.125q-0.609375 2.125 -0.609375 4.640625q0 2.53125 0.609375 4.6875q0.609375 2.140625 1.890625 4.203125l-1.234375 0q-1.625 -2.546875 -2.3125 -4.640625q-0.671875 -2.109375 -0.671875 -4.25q0 -2.234375 0.75 -4.515625q0.765625 -2.296875 2.234375 -4.25l1.234375 0z" fill-rule="nonzero"></path><path fill="#000000" d="m323.09332 282.90158l1.71875 2.578125l1.703125 -2.578125l3.0 0l-3.234375 4.609375l3.625 5.21875l-3.078125 0l-2.046875 -3.09375l-2.046875 3.09375l-3.03125 0l3.53125 -5.171875l-3.21875 -4.65625l3.078125 0z" fill-rule="nonzero"></path><path fill="#000000" d="m330.77002 278.83908q1.515625 2.34375 2.25 4.484375q0.734375 2.125 0.734375 4.40625q0 2.3125 -0.78125 4.5625q-0.765625 2.25 -2.203125 4.203125l-1.234375 0q1.265625 -2.015625 1.875 -4.140625q0.625 -2.125 0.625 -4.625q0 -2.53125 -0.625 -4.6875q-0.609375 -2.15625 -1.875 -4.203125l1.234375 0z" fill-rule="nonzero"></path><path fill="#000000" fill-opacity="0.0" d="m197.79002 94.87795l379.49603 -53.165356" fill-rule="evenodd"></path><path stroke="#000000" stroke-width="2.0" stroke-linejoin="round" stroke-linecap="butt" d="m197.79002 94.87795l367.61212 -51.500477" fill-rule="evenodd"></path><path fill="#000000" stroke="#000000" stroke-width="2.0" stroke-linecap="butt" d="m565.8605 46.64899l8.53009 -4.5307426l-9.446716 -2.012291z" fill-rule="evenodd"></path><path fill="#000000" fill-opacity="0.0" d="m197.79002 254.37401l379.49603 -53.165344" fill-rule="evenodd"></path><path stroke="#000000" stroke-width="2.0" stroke-linejoin="round" stroke-linecap="butt" d="m197.79002 254.37401l367.61212 -51.500458" fill-rule="evenodd"></path><path fill="#000000" stroke="#000000" stroke-width="2.0" stroke-linecap="butt" d="m565.8605 206.14505l8.53009 -4.5307465l-9.446716 -2.0122833z" fill-rule="evenodd"></path><path fill="#000000" fill-opacity="0.0" d="m577.2861 201.20866l-379.49603 -106.33071" fill-rule="evenodd"></path><path stroke="#000000" stroke-width="2.0" stroke-linejoin="round" stroke-linecap="butt" d="m577.2861 201.20866l-367.94104 -103.093124" fill-rule="evenodd"></path><path fill="#000000" stroke="#000000" stroke-width="2.0" stroke-linecap="butt" d="m210.2363 94.93458l-9.63089 0.7322159l7.848343 5.6297073z" fill-rule="evenodd"></path><path fill="#000000" fill-opacity="0.0" d="m90.73491 225.15355l107.055115 0l0 53.16536l-107.055115 0z" fill-rule="evenodd"></path><path fill="#000000" d="m141.53395 244.7873l2.8125 8.484375l0.046875 0l2.71875 -8.484375l3.515625 0l-5.265625 14.203125q-0.46875 1.234375 -1.453125 1.90625q-0.96875 0.671875 -2.515625 0.671875q-0.734375 0 -1.25 -0.046875q-0.5 -0.03125 -1.046875 -0.078125l0 -2.8125q0.625 0.078125 1.015625 0.09375q0.40625 0.03125 0.765625 0.03125q0.734375 0 1.125 -0.453125q0.40625 -0.4375 0.40625 -1.109375q0 -0.171875 -0.03125 -0.34375q-0.015625 -0.171875 -0.125 -0.4375l-4.375 -11.625l3.65625 0z" fill-rule="nonzero"></path><path fill="#000000" fill-opacity="0.0" d="m577.2861 171.98819l107.055115 0l0 53.16536l-107.055115 0z" fill-rule="evenodd"></path><path fill="#000000" d="m636.0539 191.62193l0 2.5625l-6.453125 7.28125l6.921875 0l0 2.5625l-11.40625 0l0 -2.5625l6.453125 -7.28125l-5.96875 0l0 -2.5625l10.453125 0z" fill-rule="nonzero"></path><path fill="#000000" fill-opacity="0.0" d="m90.73491 68.450134l107.055115 0l0 53.16535l-107.055115 0z" fill-rule="evenodd"></path><path fill="#000000" d="m138.22926 88.083885l2.296875 8.421875l0.046875 0l2.0625 -8.421875l3.3125 0l2.109375 8.390625l0.046875 0l2.28125 -8.390625l3.5 0l-3.921875 12.40625l-3.484375 0l-2.203125 -8.328125l-0.0625 0l-2.109375 8.328125l-3.53125 0l-3.9375 -12.40625l3.59375 0z" fill-rule="nonzero"></path><path fill="#000000" fill-opacity="0.0" d="m90.73491 440.45276l593.60626 0l0 44.53543l-593.60626 0z" fill-rule="evenodd"></path><path fill="#000000" d="m242.87816 453.81024l0 2.5l-6.546875 0l0 3.140625l5.671875 0l0 2.3125l-5.671875 0l0 5.609375l-2.984375 0l0 -13.5625l9.53125 0zm4.0120544 0l0 2.21875l-2.6875 0l0 -2.21875l2.6875 0zm0 3.734375l0 9.828125l-2.6875 0l0 -9.828125l2.6875 0zm5.9504395 -0.25q1.078125 0 1.78125 0.40625q0.703125 0.390625 1.15625 1.15625l0.03125 0l0 -1.3125l2.5624847 0l0 9.28125q0 1.96875 -1.265625 3.109375q-1.2499847 1.15625 -3.8124847 1.15625q-1.734375 0 -2.984375 -0.828125q-1.234375 -0.828125 -1.359375 -2.328125l2.671875 0q0.1875 0.71875 0.703125 1.03125q0.515625 0.328125 1.3125 0.328125q1.03125 0 1.59375 -0.625q0.578125 -0.625 0.578125 -1.75l0 -1.359375l-0.03125 0q-0.40625 0.734375 -1.1875 1.140625q-0.765625 0.390625 -1.765625 0.390625q-1.984375 0 -3.09375 -1.3125q-1.109375 -1.328125 -1.109375 -3.625q0 -2.078125 1.15625 -3.46875q1.15625 -1.390625 3.0625 -1.390625zm-1.515625 4.8125q0 1.390625 0.5625 2.171875q0.578125 0.78125 1.625 0.78125q1.0625 0 1.671875 -0.78125q0.625 -0.78125 0.625 -1.953125q0 -1.4375 -0.59375 -2.21875q-0.578125 -0.78125 -1.71875 -0.78125q-1.0 0 -1.59375 0.765625q-0.578125 0.75 -0.578125 2.015625zm11.692856 -4.5625l0 5.640625q0 1.109375 0.390625 1.71875q0.390625 0.609375 1.34375 0.609375q1.109375 0 1.59375 -0.671875q0.5 -0.671875 0.5 -2.046875l0 -5.25l2.703125 0l0 9.828125l-2.578125 0l0 -1.359375l-0.0625 0q-0.5 0.8125 -1.3125 1.21875q-0.796875 0.40625 -1.6875 0.40625q-1.828125 0 -2.703125 -0.921875q-0.875 -0.9375 -0.875 -3.015625l0 -6.15625l2.6875 0zm14.090179 -0.25q0.1875 0 0.328125 0.03125q0.15625 0.015625 0.28125 0.0625l0 2.5q-0.234375 -0.046875 -0.453125 -0.0625q-0.21875 -0.03125 -0.515625 -0.03125q-1.359375 0 -2.015625 0.84375q-0.65625 0.828125 -0.65625 2.21875l0 4.515625l-2.6875 0l0 -9.828125l2.5625 0l0 1.828125l0.03125 0q0.421875 -0.96875 1.265625 -1.515625q0.859375 -0.5625 1.859375 -0.5625zm6.072754 0q2.1875 0 3.484375 1.5q1.3125 1.484375 1.3125 3.8125l-0.03125 0.5l-7.078125 0q0.046875 1.28125 0.65625 1.890625q0.609375 0.609375 1.75 0.609375q0.734375 0 1.34375 -0.375q0.625 -0.375 0.796875 -0.90625l2.375 0q-0.546875 1.671875 -1.6875 2.5q-1.140625 0.8125 -2.921875 0.8125q-2.265625 0 -3.640625 -1.4375q-1.375 -1.4375 -1.375 -3.734375q0 -2.1875 1.40625 -3.671875q1.40625 -1.5 3.609375 -1.5zm-2.3125 4.109375l4.390625 0q-0.203125 -1.078125 -0.71875 -1.578125q-0.5 -0.5 -1.453125 -0.5q-0.984375 0 -1.5625 0.5625q-0.5625 0.546875 -0.65625 1.515625zm20.099213 -7.328125l0 13.296875l-2.703125 0l0 -8.625l-3.34375 0l0 -2.03125l0.1875 0q1.625 0 2.5625 -0.671875q0.953125 -0.671875 1.140625 -1.96875l2.15625 0zm7.047577 10.375l0 2.921875l-2.984375 0l0 -2.921875l2.984375 0z" fill-rule="nonzero"></path><path fill="#000000" d="m321.41296 453.81024l5.296875 13.5625l-1.984375 0l-1.484375 -4.078125l-5.734375 0l-1.53125 4.078125l-1.84375 0l5.296875 -13.5625l1.984375 0zm-1.046875 1.625l-2.28125 6.328125l4.59375 0l-2.265625 -6.328125l-0.046875 0zm11.947693 1.890625q1.78125 0 2.578125 0.90625q0.8125 0.90625 0.8125 2.59375l0 6.546875l-1.625 0l0 -6.703125q0 -0.84375 -0.53125 -1.375q-0.53125 -0.546875 -1.484375 -0.546875q-1.359375 0 -2.125 0.84375q-0.765625 0.828125 -0.765625 2.171875l0 5.609375l-1.609375 0l0 -9.828125l1.515625 0l0 1.5625l0.046875 0q0.53125 -0.921875 1.3125 -1.34375q0.78125 -0.4375 1.875 -0.4375zm14.8871155 0q2.109375 0 3.28125 1.53125q1.171875 1.515625 1.171875 3.890625l0 0.203125l-7.3593445 0l0 0.109375q0 1.40625 0.8125 2.265625q0.828125 0.84375 2.2499695 0.84375q1.078125 0 1.703125 -0.5q0.640625 -0.5 0.84375 -1.421875l1.59375 0q-0.328125 1.640625 -1.4375 2.5q-1.09375 0.859375 -2.75 0.859375q-1.5624695 0 -2.6405945 -0.703125q-1.0625 -0.703125 -1.578125 -1.953125q-0.5 -1.25 -0.5 -2.546875q0 -2.171875 1.296875 -3.625q1.3125 -1.453125 3.3124695 -1.453125zm-2.9062195 4.1875l5.6405945 0q-0.078125 -1.1875 -0.875 -1.96875q-0.78125 -0.796875 -1.96875 -0.796875q-1.1093445 0 -1.9062195 0.75q-0.78125 0.75 -0.890625 2.015625zm10.129791 -3.96875l2.359375 3.421875l0.015625 0l2.4375 -3.421875l1.9375 0l-3.375 4.53125l3.796875 5.296875l-2.078125 0l-2.734375 -4.0625l-2.734375 4.0625l-1.953125 0l3.6875 -5.171875l-3.421875 -4.65625l2.0625 0zm12.399567 -0.21875q2.0 0 2.84375 0.71875q0.84375 0.703125 0.84375 1.90625q0 5.109375 0 5.671875q0 0.546875 0.5 0.546875q0.109375 0 0.234375 -0.015625q0.140625 -0.03125 0.265625 -0.078125l0 1.265625q-0.234375 0.125 -0.53125 0.1875q-0.28125 0.078125 -0.625 0.078125q-0.671875 0 -1.03125 -0.375q-0.34375 -0.375 -0.34375 -1.15625q-0.640625 0.765625 -1.515625 1.15625q-0.859375 0.375 -1.9375 0.375q-1.53125 0 -2.390625 -0.71875q-0.859375 -0.71875 -0.859375 -2.046875q0 -1.3125 0.84375 -2.09375q0.84375 -0.78125 3.96875 -1.171875q1.0625 -0.125 1.4375 -0.390625q0.375 -0.28125 0.375 -0.8125q0 -0.828125 -0.53125 -1.21875q-0.515625 -0.40625 -1.65625 -0.40625q-1.203125 0 -1.796875 0.453125q-0.59375 0.453125 -0.640625 1.40625l-1.625 0q0.078125 -1.625 1.15625 -2.453125q1.078125 -0.828125 3.015625 -0.828125zm-2.84375 7.40625q0 0.6875 0.5 1.0625q0.5 0.375 1.40625 0.375q1.359375 0 2.171875 -0.671875q0.828125 -0.671875 0.828125 -1.515625l0 -1.6875q-0.40625 0.296875 -1.0625 0.40625q-0.65625 0.09375 -1.71875 0.234375q-1.078125 0.15625 -1.609375 0.59375q-0.515625 0.421875 -0.515625 1.203125zm13.582947 -7.40625q1.0625 0 1.75 0.4375q0.6875 0.4375 0.9375 1.234375q0.5 -0.796875 1.3125 -1.234375q0.8125 -0.4375 1.78125 -0.4375q1.65625 0 2.453125 0.75q0.8125 0.75 0.8125 2.03125l0 7.265625l-1.625 0l0 -6.515625q0 -1.0625 -0.453125 -1.578125q-0.4375 -0.53125 -1.453125 -0.53125q-1.203125 0 -1.875 0.703125q-0.671875 0.703125 -0.671875 1.75l0 6.171875l-1.625 0l0 -6.515625q0 -1.0625 -0.453125 -1.578125q-0.4375 -0.53125 -1.390625 -0.53125q-0.765625 0 -1.359375 0.375q-0.59375 0.359375 -0.9375 1.015625q-0.328125 0.640625 -0.328125 1.078125l0 6.15625l-1.609375 0l0 -9.828125l1.515625 0l0 1.453125l0.046875 0q0.546875 -0.84375 1.328125 -1.25q0.796875 -0.421875 1.84375 -0.421875zm16.023651 0q2.109375 0 3.3125 1.453125q1.203125 1.4375 1.203125 3.71875q0 2.28125 -1.203125 3.703125q-1.203125 1.40625 -3.265625 1.40625q-0.921875 0 -1.796875 -0.375q-0.875 -0.390625 -1.390625 -1.171875l-0.03125 0l0 5.078125l-1.625 0l0 -13.59375l1.625 0l0 1.34375l0.03125 0q0.375 -0.765625 1.1875 -1.15625q0.828125 -0.40625 1.953125 -0.40625zm-3.234375 5.125q0 1.71875 0.828125 2.71875q0.828125 1.0 2.265625 1.0q1.40625 0 2.171875 -1.0q0.78125 -1.0 0.78125 -2.78125q0 -1.59375 -0.8125 -2.609375q-0.8125 -1.03125 -2.25 -1.03125q-1.421875 0 -2.203125 1.046875q-0.78125 1.03125 -0.78125 2.65625zm11.15271 -8.640625l0 13.5625l-1.609375 0l0 -13.5625l1.609375 0zm6.519806 3.515625q2.109375 0 3.28125 1.53125q1.171875 1.515625 1.171875 3.890625l0 0.203125l-7.359375 0l0 0.109375q0 1.40625 0.8125 2.265625q0.828125 0.84375 2.25 0.84375q1.078125 0 1.703125 -0.5q0.640625 -0.5 0.84375 -1.421875l1.59375 0q-0.328125 1.640625 -1.4375 2.5q-1.09375 0.859375 -2.75 0.859375q-1.5625 0 -2.640625 -0.703125q-1.0625 -0.703125 -1.578125 -1.953125q-0.5 -1.25 -0.5 -2.546875q0 -2.171875 1.296875 -3.625q1.3125 -1.453125 3.3125 -1.453125zm-2.90625 4.1875l5.640625 0q-0.078125 -1.1875 -0.875 -1.96875q-0.78125 -0.796875 -1.96875 -0.796875q-1.109375 0 -1.90625 0.75q-0.78125 0.75 -0.890625 2.015625zm16.15689 -6.765625q-0.53125 0 -0.8125 0.5q-0.28125 0.484375 -0.28125 1.359375l1.109375 0l0 2.09375l-2.109375 0l0 -2.0q0 -1.328125 0.546875 -2.109375q0.546875 -0.78125 1.546875 -0.78125l0 0.9375zm3.46875 0q-0.515625 0 -0.8125 0.484375q-0.28125 0.46875 -0.28125 1.375l1.125 0l0 2.09375l-2.109375 0l0 -2.078125q0 -1.25 0.546875 -2.03125q0.546875 -0.78125 1.53125 -0.78125l0 0.9375zm6.4434814 2.578125q1.796875 0 2.921875 0.859375q1.125 0.84375 1.328125 2.515625l-1.671875 0q-0.203125 -0.953125 -0.84375 -1.453125q-0.625 -0.5 -1.59375 -0.5q-1.5 0 -2.28125 1.015625q-0.78125 1.0 -0.78125 2.828125q0 1.625 0.765625 2.609375q0.78125 0.96875 2.109375 0.96875q1.171875 0 1.84375 -0.625q0.6875 -0.640625 0.84375 -1.765625l1.65625 0q-0.265625 1.84375 -1.390625 2.84375q-1.109375 0.984375 -2.9375 0.984375q-2.140625 0 -3.375 -1.34375q-1.21875 -1.359375 -1.21875 -3.671875q0 -2.421875 1.234375 -3.84375q1.234375 -1.421875 3.390625 -1.421875zm7.536072 0.21875l0 6.703125q0 0.828125 0.53125 1.375q0.53125 0.546875 1.46875 0.546875q1.390625 0 2.140625 -0.84375q0.765625 -0.84375 0.765625 -2.171875l0 -5.609375l1.625 0l0 9.828125l-1.53125 0l0 -1.5625l-0.03125 0q-0.546875 0.9375 -1.359375 1.375q-0.796875 0.421875 -1.84375 0.421875q-1.71875 0 -2.546875 -0.890625q-0.828125 -0.890625 -0.828125 -2.625l0 -6.546875l1.609375 0zm12.860077 -0.21875q1.796875 0 2.921875 0.859375q1.125 0.84375 1.328125 2.515625l-1.671875 0q-0.203125 -0.953125 -0.84375 -1.453125q-0.625 -0.5 -1.59375 -0.5q-1.5 0 -2.28125 1.015625q-0.78125 1.0 -0.78125 2.828125q0 1.625 0.765625 2.609375q0.78125 0.96875 2.109375 0.96875q1.171875 0 1.84375 -0.625q0.6875 -0.640625 0.84375 -1.765625l1.65625 0q-0.265625 1.84375 -1.390625 2.84375q-1.109375 0.984375 -2.9375 0.984375q-2.140625 0 -3.375 -1.34375q-1.21875 -1.359375 -1.21875 -3.671875q0 -2.421875 1.234375 -3.84375q1.234375 -1.421875 3.390625 -1.421875zm7.629822 -3.515625l0 8.03125l4.484375 -4.296875l2.171875 0l-3.90625 3.578125l4.1875 6.25l-2.046875 0l-3.375 -5.125l-1.515625 1.40625l0 3.71875l-1.609375 0l0 -13.5625l1.609375 0zm12.21463 3.515625q2.234375 0 3.5 1.4375q1.265625 1.4375 1.265625 3.703125q0 2.296875 -1.296875 3.71875q-1.296875 1.421875 -3.46875 1.421875q-2.125 0 -3.453125 -1.390625q-1.3125 -1.40625 -1.3125 -3.75q0 -2.328125 1.28125 -3.734375q1.296875 -1.40625 3.484375 -1.40625zm-3.0625 5.140625q0 1.703125 0.859375 2.703125q0.875 1.0 2.203125 1.0q1.328125 0 2.1875 -1.0q0.875 -1.015625 0.875 -2.703125q0 -1.671875 -0.859375 -2.6875q-0.859375 -1.03125 -2.21875 -1.03125q-1.296875 0 -2.171875 1.015625q-0.875 1.0 -0.875 2.703125zm13.775269 -5.140625q2.234375 0 3.5 1.4375q1.265625 1.4375 1.265625 3.703125q0 2.296875 -1.296875 3.71875q-1.296875 1.421875 -3.46875 1.421875q-2.125 0 -3.453125 -1.390625q-1.3125 -1.40625 -1.3125 -3.75q0 -2.328125 1.28125 -3.734375q1.296875 -1.40625 3.484375 -1.40625zm-3.0625 5.140625q0 1.703125 0.859375 2.703125q0.875 1.0 2.203125 1.0q1.328125 0 2.1875 -1.0q0.875 -1.015625 0.875 -2.703125q0 -1.671875 -0.859375 -2.6875q-0.859375 -1.03125 -2.21875 -1.03125q-1.296875 0 -2.171875 1.015625q-0.875 1.0 -0.875 2.703125zm19.567963 -5.140625q2.109375 0 3.3125 1.453125q1.203125 1.4375 1.203125 3.71875q0 2.28125 -1.203125 3.703125q-1.203125 1.40625 -3.265625 1.40625q-0.921875 0 -1.796875 -0.375q-0.875 -0.390625 -1.390625 -1.171875l-0.03125 0l0 5.078125l-1.625 0l0 -13.59375l1.625 0l0 1.34375l0.03125 0q0.375 -0.765625 1.1875 -1.15625q0.828125 -0.40625 1.953125 -0.40625zm-3.234375 5.125q0 1.71875 0.828125 2.71875q0.828125 1.0 2.265625 1.0q1.40625 0 2.171875 -1.0q0.78125 -1.0 0.78125 -2.78125q0 -1.59375 -0.8125 -2.609375q-0.8125 -1.03125 -2.25 -1.03125q-1.421875 0 -2.203125 1.046875q-0.78125 1.03125 -0.78125 2.65625zm13.465179 -5.125q2.0 0 2.84375 0.71875q0.8437805 0.703125 0.8437805 1.90625q0 5.109375 0 5.671875q0 0.546875 0.5 0.546875q0.109375 0 0.234375 -0.015625q0.140625 -0.03125 0.265625 -0.078125l0 1.265625q-0.234375 0.125 -0.53125 0.1875q-0.28125 0.078125 -0.625 0.078125q-0.6719055 0 -1.0312805 -0.375q-0.34375 -0.375 -0.34375 -1.15625q-0.640625 0.765625 -1.515625 1.15625q-0.859375 0.375 -1.9375 0.375q-1.53125 0 -2.390625 -0.71875q-0.859375 -0.71875 -0.859375 -2.046875q0 -1.3125 0.84375 -2.09375q0.84375 -0.78125 3.96875 -1.171875q1.0625 -0.125 1.4375 -0.390625q0.375 -0.28125 0.375 -0.8125q0 -0.828125 -0.53125 -1.21875q-0.515625 -0.40625 -1.65625 -0.40625q-1.203125 0 -1.796875 0.453125q-0.59375 0.453125 -0.640625 1.40625l-1.625 0q0.078125 -1.625 1.15625 -2.453125q1.078125 -0.828125 3.015625 -0.828125zm-2.84375 7.40625q0 0.6875 0.5 1.0625q0.5 0.375 1.40625 0.375q1.359375 0 2.171875 -0.671875q0.828125 -0.671875 0.828125 -1.515625l0 -1.6875q-0.40625 0.296875 -1.0625 0.40625q-0.65625 0.09375 -1.71875 0.234375q-1.078125 0.15625 -1.609375 0.59375q-0.515625 0.421875 -0.515625 1.203125zm11.082977 -10.125l0 2.9375l1.96875 0l0 1.4375l-1.96875 0l0 6.140625q0 0.734375 0.484375 0.78125q0.5 0.046875 1.03125 0.046875l0.453125 0l0 1.421875l-1.34375 0q-1.328125 0 -1.78125 -0.46875q-0.453125 -0.484375 -0.453125 -1.59375l0 -6.328125l-1.671875 0l0 -1.4375l1.671875 0l0 -2.9375l1.609375 0zm5.2506104 -0.796875l0 5.1875l0.03125 0q0.359375 -0.796875 1.203125 -1.234375q0.84375 -0.4375 1.90625 -0.4375q1.78125 0 2.578125 0.90625q0.8125 0.90625 0.8125 2.59375l0 6.546875l-1.625 0l0 -6.703125q0 -0.84375 -0.53125 -1.375q-0.53125 -0.546875 -1.484375 -0.546875q-1.359375 0 -2.125 0.84375q-0.765625 0.828125 -0.765625 2.171875l0 5.609375l-1.609375 0l0 -13.5625l1.609375 0zm10.906982 0l0 2.171875q0 1.1875 -0.546875 1.953125q-0.546875 0.765625 -1.546875 0.765625l0 -0.9375q0.53125 0 0.8125 -0.46875q0.28125 -0.484375 0.296875 -1.375l-1.125 0l0 -2.109375l2.109375 0zm3.484375 0l0 2.171875q0 1.15625 -0.546875 1.9375q-0.53125 0.78125 -1.546875 0.78125l0 -0.9375q0.53125 0 0.8125 -0.46875q0.28125 -0.484375 0.296875 -1.375l-1.125 0l0 -2.109375l2.109375 0zm4.7872314 11.453125l0 2.109375l-2.109375 0l0 -2.109375l2.109375 0z" fill-rule="nonzero"></path></g></svg>

