<?xml version="1.0" standalone="yes"?>

<svg version="1.1" viewBox="0.0 0.0 1159.8267716535433 522.1916010498687" fill="none" stroke="none" stroke-linecap="square" stroke-miterlimit="10" xmlns="http://www.w3.org/2000/svg" xmlns:xlink="http://www.w3.org/1999/xlink"><clipPath id="p.0"><path d="m0 0l1159.8268 0l0 522.1916l-1159.8268 0l0 -522.1916z" clip-rule="nonzero"></path></clipPath><g clip-path="url(#p.0)"><path fill="#000000" fill-opacity="0.0" d="m0 0l1159.8268 0l0 522.1916l-1159.8268 0z" fill-rule="evenodd"></path><path fill="#000000" fill-opacity="0.0" d="m507.74014 141.19423l181.16537 -76.72441" fill-rule="evenodd"></path><path stroke="#000000" stroke-width="1.0" stroke-linejoin="round" stroke-linecap="butt" stroke-dasharray="1.0,3.0" d="m507.74014 141.19423l175.64041 -74.38457" fill-rule="evenodd"></path><path fill="#000000" stroke="#000000" stroke-width="1.0" stroke-linecap="butt" d="m684.0247 68.33062l3.534607 -3.2907028l-4.822876 0.24878693z" fill-rule="evenodd"></path><path fill="#000000" fill-opacity="0.0" d="m939.95276 269.8609l107.055176 0l0 53.165344l-107.055176 0z" fill-rule="evenodd"></path><path stroke="#000000" stroke-width="1.0" stroke-linejoin="round" stroke-linecap="butt" d="m939.95276 269.8609l107.055176 0l0 53.165344l-107.055176 0z" fill-rule="evenodd"></path><path fill="#000000" fill-opacity="0.0" d="m939.95276 57.199474l107.055176 0l0 53.165356l-107.055176 0z" fill-rule="evenodd"></path><path stroke="#000000" stroke-width="1.0" stroke-linejoin="round" stroke-linecap="butt" d="m939.95276 57.199474l107.055176 0l0 53.165356l-107.055176 0z" fill-rule="evenodd"></path><path fill="#000000" fill-opacity="0.0" d="m939.95276 110.36483l107.055176 0l0 53.16535l-107.055176 0z" fill-rule="evenodd"></path><path stroke="#000000" stroke-width="1.0" stroke-linejoin="round" stroke-linecap="butt" d="m939.95276 110.36483l107.055176 0l0 53.16535l-107.055176 0z" fill-rule="evenodd"></path><path fill="#000000" fill-opacity="0.0" d="m939.95276 163.53018l107.055176 0l0 53.16536l-107.055176 0z" fill-rule="evenodd"></path><path stroke="#000000" stroke-width="1.0" stroke-linejoin="round" stroke-linecap="butt" d="m939.95276 163.53018l107.055176 0l0 53.16536l-107.055176 0z" fill-rule="evenodd"></path><path fill="#000000" fill-opacity="0.0" d="m939.95276 216.69554l107.055176 0l0 53.16536l-107.055176 0z" fill-rule="evenodd"></path><path stroke="#000000" stroke-width="1.0" stroke-linejoin="round" stroke-linecap="butt" d="m939.95276 216.69554l107.055176 0l0 53.16536l-107.055176 0z" fill-rule="evenodd"></path><path fill="#000000" fill-opacity="0.0" d="m939.95276 323.02625l107.055176 0l0 53.165344l-107.055176 0z" fill-rule="evenodd"></path><path stroke="#000000" stroke-width="1.0" stroke-linejoin="round" stroke-linecap="butt" d="m939.95276 323.02625l107.055176 0l0 53.165344l-107.055176 0z" fill-rule="evenodd"></path><path fill="#000000" fill-opacity="0.0" d="m939.95276 376.1916l107.055176 0l0 53.165375l-107.055176 0z" fill-rule="evenodd"></path><path stroke="#000000" stroke-width="1.0" stroke-linejoin="round" stroke-linecap="butt" d="m939.95276 376.1916l107.055176 0l0 53.165375l-107.055176 0z" fill-rule="evenodd"></path><path fill="#000000" fill-opacity="0.0" d="m939.95276 429.35696l107.055176 0l0 53.165344l-107.055176 0z" fill-rule="evenodd"></path><path stroke="#000000" stroke-width="1.0" stroke-linejoin="round" stroke-linecap="butt" d="m939.95276 429.35696l107.055176 0l0 53.165344l-107.055176 0z" fill-rule="evenodd"></path><path fill="#000000" fill-opacity="0.0" d="m784.04724 406.67978l155.90552 -322.89764" fill-rule="evenodd"></path><path stroke="#000000" stroke-width="2.0" stroke-linejoin="round" stroke-linecap="butt" d="m784.04724 406.67978l150.68793 -312.0913" fill-rule="evenodd"></path><path fill="#000000" stroke="#000000" stroke-width="2.0" stroke-linecap="butt" d="m937.70996 96.02482l0.9714966 -9.609703l-6.9212036 6.7369843z" fill-rule="evenodd"></path><path fill="#000000" fill-opacity="0.0" d="m453.40158 269.8609l107.055084 0l0 53.165344l-107.055084 0z" fill-rule="evenodd"></path><path stroke="#000000" stroke-width="1.0" stroke-linejoin="round" stroke-linecap="butt" d="m453.40158 269.8609l107.055084 0l0 53.165344l-107.055084 0z" fill-rule="evenodd"></path><path fill="#000000" fill-opacity="0.0" d="m453.40158 57.199474l107.055084 0l0 53.165356l-107.055084 0z" fill-rule="evenodd"></path><path stroke="#000000" stroke-width="1.0" stroke-linejoin="round" stroke-linecap="butt" d="m453.40158 57.199474l107.055084 0l0 53.165356l-107.055084 0z" fill-rule="evenodd"></path><path fill="#000000" fill-opacity="0.0" d="m453.40158 110.36483l107.055084 0l0 53.16535l-107.055084 0z" fill-rule="evenodd"></path><path stroke="#000000" stroke-width="1.0" stroke-linejoin="round" stroke-linecap="butt" d="m453.40158 110.36483l107.055084 0l0 53.16535l-107.055084 0z" fill-rule="evenodd"></path><path fill="#000000" fill-opacity="0.0" d="m453.40158 163.53018l107.055084 0l0 53.16536l-107.055084 0z" fill-rule="evenodd"></path><path stroke="#000000" stroke-width="1.0" stroke-linejoin="round" stroke-linecap="butt" d="m453.40158 163.53018l107.055084 0l0 53.16536l-107.055084 0z" fill-rule="evenodd"></path><path fill="#000000" fill-opacity="0.0" d="m453.40158 216.69554l107.055084 0l0 53.16536l-107.055084 0z" fill-rule="evenodd"></path><path stroke="#000000" stroke-width="1.0" stroke-linejoin="round" stroke-linecap="butt" d="m453.40158 216.69554l107.055084 0l0 53.16536l-107.055084 0z" fill-rule="evenodd"></path><path fill="#000000" fill-opacity="0.0" d="m453.40158 323.02625l107.055084 0l0 53.165344l-107.055084 0z" fill-rule="evenodd"></path><path stroke="#000000" stroke-width="1.0" stroke-linejoin="round" stroke-linecap="butt" d="m453.40158 323.02625l107.055084 0l0 53.165344l-107.055084 0z" fill-rule="evenodd"></path><path fill="#000000" fill-opacity="0.0" d="m453.40158 376.1916l107.055084 0l0 53.165375l-107.055084 0z" fill-rule="evenodd"></path><path stroke="#000000" stroke-width="1.0" stroke-linejoin="round" stroke-linecap="butt" d="m453.40158 376.1916l107.055084 0l0 53.165375l-107.055084 0z" fill-rule="evenodd"></path><path fill="#000000" fill-opacity="0.0" d="m453.40158 429.35696l107.055084 0l0 53.165344l-107.055084 0z" fill-rule="evenodd"></path><path stroke="#000000" stroke-width="1.0" stroke-linejoin="round" stroke-linecap="butt" d="m453.40158 429.35696l107.055084 0l0 53.165344l-107.055084 0z" fill-rule="evenodd"></path><path fill="#000000" fill-opacity="0.0" d="m696.6772 392.4042l107.055115 0l0 44.53543l-107.055115 0z" fill-rule="evenodd"></path><path fill="#000000" d="m725.4391 407.3036l0 10.15625l5.671875 -5.421875l2.734375 0l-4.921875 4.5l5.28125 7.90625l-2.578125 0l-4.265625 -6.484375l-1.921875 1.78125l0 4.703125l-2.03125 0l0 -17.140625l2.03125 0zm15.457031 4.453125q2.671875 0 4.140625 1.921875q1.484375 1.921875 1.484375 4.921875l0 0.25l-9.28125 0l0 0.15625q0 1.765625 1.03125 2.84375q1.03125 1.078125 2.828125 1.078125q1.359375 0 2.15625 -0.625q0.8125 -0.640625 1.0625 -1.796875l2.015625 0q-0.421875 2.0625 -1.8125 3.15625q-1.390625 1.078125 -3.484375 1.078125q-1.96875 0 -3.328125 -0.890625q-1.34375 -0.890625 -1.984375 -2.453125q-0.640625 -1.578125 -0.640625 -3.234375q0 -2.75 1.640625 -4.578125q1.65625 -1.828125 4.171875 -1.828125zm-3.65625 5.296875l7.125 0q-0.09375 -1.515625 -1.109375 -2.515625q-1.0 -1.0 -2.5 -1.0q-1.40625 0 -2.40625 0.953125q-0.984375 0.953125 -1.109375 2.5625zm12.359375 -5.015625l3.625 10.140625l0.046875 0l3.46875 -10.140625l2.171875 0l-5.265625 13.734375q-0.84375 2.140625 -1.609375 2.890625q-0.765625 0.75 -2.125 0.75q-0.375 0 -0.734375 -0.046875q-0.34375 -0.046875 -0.6875 -0.15625l0 -1.875q0.296875 0.09375 0.59375 0.1875q0.296875 0.09375 0.609375 0.09375q1.234375 0 1.71875 -1.25q0.5 -1.234375 0.796875 -2.0l-4.921875 -12.328125l2.3125 0z" fill-rule="nonzero"></path><path fill="#000000" d="m770.04846 412.03796l2.171875 3.234375l2.15625 -3.234375l3.78125 0l-4.078125 5.8125l4.578125 6.59375l-3.890625 0l-2.59375 -3.921875l-2.578125 3.921875l-3.828125 0l4.46875 -6.53125l-4.078125 -5.875l3.890625 0z" fill-rule="nonzero"></path><path fill="#000000" fill-opacity="0.0" d="m715.6693 405.6404l-155.21265 -109.19684" fill-rule="evenodd"></path><path stroke="#000000" stroke-width="2.0" stroke-linejoin="round" stroke-linecap="butt" d="m715.6693 405.6404l-145.39813 -102.29205" fill-rule="evenodd"></path><path fill="#000000" stroke="#000000" stroke-width="2.0" stroke-linecap="butt" d="m572.172 300.64655l-9.323975 -2.52063l5.522339 7.9242554z" fill-rule="evenodd"></path><path fill="#000000" fill-opacity="0.0" d="m608.6142 307.87927l107.055115 0l0 44.53543l-107.055115 0z" fill-rule="evenodd"></path><path fill="#000000" d="m629.89374 321.23676l0 5.1875l0.03125 0q0.359375 -0.796875 1.203125 -1.234375q0.84375 -0.4375 1.90625 -0.4375q1.78125 0 2.578125 0.90625q0.8125 0.90625 0.8125 2.59375l0 6.546875l-1.625 0l0 -6.703125q0 -0.84375 -0.53125 -1.375q-0.53125 -0.546875 -1.484375 -0.546875q-1.359375 0 -2.125 0.84375q-0.765625 0.828125 -0.765625 2.171875l0 5.609375l-1.609375 0l0 -13.5625l1.609375 0zm12.781982 3.515625q2.0 0 2.84375 0.71875q0.84375 0.703125 0.84375 1.90625q0 5.109375 0 5.671875q0 0.546875 0.5 0.546875q0.109375 0 0.234375 -0.015625q0.140625 -0.03125 0.265625 -0.078125l0 1.265625q-0.234375 0.125 -0.53125 0.1875q-0.28125 0.078125 -0.625 0.078125q-0.671875 0 -1.03125 -0.375q-0.34375 -0.375 -0.34375 -1.15625q-0.640625 0.765625 -1.515625 1.15625q-0.859375 0.375 -1.9375 0.375q-1.53125 0 -2.390625 -0.71875q-0.859375 -0.71875 -0.859375 -2.046875q0 -1.3125 0.84375 -2.09375q0.84375 -0.78125 3.96875 -1.171875q1.0625 -0.125 1.4375 -0.390625q0.375 -0.28125 0.375 -0.8125q0 -0.828125 -0.53125 -1.21875q-0.515625 -0.40625 -1.65625 -0.40625q-1.203125 0 -1.796875 0.453125q-0.59375 0.453125 -0.640625 1.40625l-1.625 0q0.078125 -1.625 1.15625 -2.453125q1.078125 -0.828125 3.015625 -0.828125zm-2.84375 7.40625q0 0.6875 0.5 1.0625q0.5 0.375 1.40625 0.375q1.359375 0 2.171875 -0.671875q0.828125 -0.671875 0.828125 -1.515625l0 -1.6875q-0.40625 0.296875 -1.0625 0.40625q-0.65625 0.09375 -1.71875 0.234375q-1.078125 0.15625 -1.609375 0.59375q-0.515625 0.421875 -0.515625 1.203125zm12.114197 -7.40625q1.984375 0 2.9375 0.78125q0.96875 0.765625 1.0625 2.28125l-1.609375 0l0 -0.015625q-0.0625 -0.78125 -0.6875 -1.203125q-0.609375 -0.421875 -1.578125 -0.421875q-0.984375 0 -1.546875 0.328125q-0.5625 0.328125 -0.5625 0.921875q0 0.53125 0.5 0.875q0.5 0.34375 1.5 0.5625l1.515625 0.34375q1.4375 0.3125 2.171875 0.96875q0.75 0.65625 0.75 1.765625q0 1.4375 -1.125 2.265625q-1.125 0.828125 -3.0625 0.828125q-1.890625 0 -3.0 -0.84375q-1.09375 -0.84375 -1.171875 -2.484375l1.625 0q0.03125 0.90625 0.71875 1.40625q0.703125 0.484375 1.921875 0.484375q1.171875 0 1.765625 -0.359375q0.609375 -0.375 0.609375 -1.09375q0 -0.671875 -0.609375 -1.046875q-0.59375 -0.390625 -2.4375 -0.765625q-1.859375 -0.359375 -2.625 -1.015625q-0.75 -0.671875 -0.75 -1.765625q0 -1.296875 1.046875 -2.046875q1.046875 -0.75 2.640625 -0.75zm7.671875 -3.515625l0 5.1875l0.03125 0q0.359375 -0.796875 1.203125 -1.234375q0.84375 -0.4375 1.90625 -0.4375q1.78125 0 2.578125 0.90625q0.8125 0.90625 0.8125 2.59375l0 6.546875l-1.625 0l0 -6.703125q0 -0.84375 -0.53125 -1.375q-0.53125 -0.546875 -1.484375 -0.546875q-1.359375 0 -2.125 0.84375q-0.765625 0.828125 -0.765625 2.171875l0 5.609375l-1.609375 0l0 -13.5625l1.609375 0zm14.313171 0.09375l0 13.46875l-1.609375 0l0 -9.65625l-3.5 0l0 -1.296875l0.046875 0q1.71875 0 2.640625 -0.609375q0.9375 -0.609375 1.1875 -1.90625l1.234375 0zm8.719482 -0.421875q-1.28125 2.0 -1.890625 4.125q-0.609375 2.125 -0.609375 4.640625q0 2.53125 0.609375 4.6875q0.609375 2.140625 1.890625 4.203125l-1.234375 0q-1.625 -2.546875 -2.3125 -4.640625q-0.671875 -2.109375 -0.671875 -4.25q0 -2.234375 0.75 -4.515625q0.765625 -2.296875 2.234375 -4.25l1.234375 0z" fill-rule="nonzero"></path><path fill="#000000" d="m685.76 324.97113l1.71875 2.578125l1.703125 -2.578125l3.0 0l-3.234375 4.609375l3.625 5.21875l-3.078125 0l-2.046875 -3.09375l-2.046875 3.09375l-3.03125 0l3.53125 -5.171875l-3.21875 -4.65625l3.078125 0z" fill-rule="nonzero"></path><path fill="#000000" d="m693.4367 320.90863q1.515625 2.34375 2.25 4.484375q0.734375 2.125 0.734375 4.40625q0 2.3125 -0.78125 4.5625q-0.765625 2.25 -2.203125 4.203125l-1.234375 0q1.265625 -2.015625 1.875 -4.140625q0.625 -2.125 0.625 -4.625q0 -2.53125 -0.625 -4.6875q-0.609375 -2.15625 -1.875 -4.203125l1.234375 0z" fill-rule="nonzero"></path><path fill="#000000" fill-opacity="0.0" d="m784.04724 181.3727l107.055115 0l0 44.535446l-107.055115 0z" fill-rule="evenodd"></path><path fill="#000000" d="m805.3268 194.7302l0 5.1875l0.03125 0q0.359375 -0.796875 1.203125 -1.234375q0.84375 -0.4375 1.90625 -0.4375q1.78125 0 2.578125 0.90625q0.8125 0.90625 0.8125 2.59375l0 6.546875l-1.625 0l0 -6.703125q0 -0.84375 -0.53125 -1.375q-0.53125 -0.546875 -1.484375 -0.546875q-1.359375 0 -2.125 0.84375q-0.765625 0.828125 -0.765625 2.171875l0 5.609375l-1.609375 0l0 -13.5625l1.609375 0zm12.781982 3.515625q2.0 0 2.84375 0.71875q0.84375 0.703125 0.84375 1.90625q0 5.109375 0 5.671875q0 0.546875 0.5 0.546875q0.109375 0 0.234375 -0.015625q0.140625 -0.03125 0.265625 -0.078125l0 1.265625q-0.234375 0.125 -0.53125 0.1875q-0.28125 0.078125 -0.625 0.078125q-0.671875 0 -1.03125 -0.375q-0.34375 -0.375 -0.34375 -1.15625q-0.640625 0.765625 -1.515625 1.15625q-0.859375 0.375 -1.9375 0.375q-1.53125 0 -2.390625 -0.71875q-0.859375 -0.71875 -0.859375 -2.046875q0 -1.3125 0.84375 -2.09375q0.84375 -0.78125 3.96875 -1.171875q1.0625 -0.125 1.4375 -0.390625q0.375 -0.28125 0.375 -0.8125q0 -0.828125 -0.53125 -1.21875q-0.515625 -0.40625 -1.65625 -0.40625q-1.203125 0 -1.796875 0.453125q-0.59375 0.453125 -0.640625 1.40625l-1.625 0q0.078125 -1.625 1.15625 -2.453125q1.078125 -0.828125 3.015625 -0.828125zm-2.84375 7.40625q0 0.6875 0.5 1.0625q0.5 0.375 1.40625 0.375q1.359375 0 2.171875 -0.671875q0.828125 -0.671875 0.828125 -1.515625l0 -1.6875q-0.40625 0.296875 -1.0625 0.40625q-0.65625 0.09375 -1.71875 0.234375q-1.078125 0.15625 -1.609375 0.59375q-0.515625 0.421875 -0.515625 1.203125zm12.114197 -7.40625q1.984375 0 2.9375 0.78125q0.96875 0.765625 1.0625 2.28125l-1.609375 0l0 -0.015625q-0.0625 -0.78125 -0.6875 -1.203125q-0.609375 -0.421875 -1.578125 -0.421875q-0.984375 0 -1.546875 0.328125q-0.5625 0.328125 -0.5625 0.921875q0 0.53125 0.5 0.875q0.5 0.34375 1.5 0.5625l1.515625 0.34375q1.4375 0.3125 2.171875 0.96875q0.75 0.65625 0.75 1.765625q0 1.4375 -1.125 2.265625q-1.125 0.828125 -3.0625 0.828125q-1.890625 0 -3.0 -0.84375q-1.09375 -0.84375 -1.171875 -2.484375l1.625 0q0.03125 0.90625 0.71875 1.40625q0.703125 0.484375 1.921875 0.484375q1.171875 0 1.765625 -0.359375q0.609375 -0.375 0.609375 -1.09375q0 -0.671875 -0.609375 -1.046875q-0.59375 -0.390625 -2.4375 -0.765625q-1.859375 -0.359375 -2.625 -1.015625q-0.75 -0.671875 -0.75 -1.765625q0 -1.296875 1.046875 -2.046875q1.046875 -0.75 2.640625 -0.75zm7.671875 -3.515625l0 5.1875l0.03125 0q0.359375 -0.796875 1.203125 -1.234375q0.84375 -0.4375 1.90625 -0.4375q1.78125 0 2.578125 0.90625q0.8125 0.90625 0.8125 2.59375l0 6.546875l-1.625 0l0 -6.703125q0 -0.84375 -0.53125 -1.375q-0.53125 -0.546875 -1.484375 -0.546875q-1.359375 0 -2.125 0.84375q-0.765625 0.828125 -0.765625 2.171875l0 5.609375l-1.609375 0l0 -13.5625l1.609375 0zm12.719482 0.09375q1.859375 0 3.03125 1.0625q1.1875 1.046875 1.1875 2.8125q0 1.390625 -0.78125 2.515625q-0.78125 1.125 -3.296875 2.578125q-1.546875 0.890625 -2.1875 1.59375q-0.640625 0.703125 -0.78125 1.484375l6.90625 0l0 1.421875l-8.796875 0q0.140625 -1.671875 0.859375 -2.9375q0.734375 -1.265625 2.734375 -2.453125q2.359375 -1.4375 2.984375 -2.25q0.640625 -0.828125 0.640625 -1.96875q0 -1.046875 -0.75 -1.734375q-0.734375 -0.703125 -1.84375 -0.703125q-1.21875 0 -1.921875 0.90625q-0.703125 0.90625 -0.703125 2.3125l0 0.125l-1.625 0l0 -0.328125q0 -2.015625 1.1875 -3.21875q1.1875 -1.21875 3.15625 -1.21875zm10.313232 -0.421875q-1.28125 2.0 -1.890625 4.125q-0.609375 2.125 -0.609375 4.640625q0 2.53125 0.609375 4.6875q0.609375 2.140625 1.890625 4.203125l-1.234375 0q-1.625 -2.546875 -2.3125 -4.640625q-0.671875 -2.109375 -0.671875 -4.25q0 -2.234375 0.75 -4.515625q0.765625 -2.296875 2.234375 -4.25l1.234375 0z" fill-rule="nonzero"></path><path fill="#000000" d="m861.19305 198.46457l1.71875 2.578125l1.703125 -2.578125l3.0 0l-3.234375 4.609375l3.625 5.21875l-3.078125 0l-2.046875 -3.09375l-2.046875 3.09375l-3.03125 0l3.53125 -5.171875l-3.21875 -4.65625l3.078125 0z" fill-rule="nonzero"></path><path fill="#000000" d="m868.86975 194.40207q1.515625 2.34375 2.25 4.484375q0.734375 2.125 0.734375 4.40625q0 2.3125 -0.78125 4.5625q-0.765625 2.25 -2.203125 4.203125l-1.234375 0q1.265625 -2.015625 1.875 -4.140625q0.625 -2.125 0.625 -4.625q0 -2.53125 -0.625 -4.6875q-0.609375 -2.15625 -1.875 -4.203125l1.234375 0z" fill-rule="nonzero"></path><path fill="#000000" fill-opacity="0.0" d="m696.6772 15.496063l97.921265 0l0 44.535435l-97.921265 0z" fill-rule="evenodd"></path><path stroke="#000000" stroke-width="1.0" stroke-linejoin="round" stroke-linecap="butt" d="m696.6772 15.496063l97.921265 0l0 44.535435l-97.921265 0z" fill-rule="evenodd"></path><path fill="#000000" d="m734.0437 31.121277l0 8.03125l4.484375 -4.296875l2.171875 0l-3.90625 3.578125l4.1875 6.25l-2.046875 0l-3.375 -5.125l-1.515625 1.40625l0 3.71875l-1.609375 0l0 -13.5625l1.609375 0zm12.05835 3.515625q2.109375 0 3.28125 1.53125q1.171875 1.515625 1.171875 3.890625l0 0.203125l-7.359375 0l0 0.109375q0 1.40625 0.8125 2.265625q0.828125 0.84375 2.25 0.84375q1.078125 0 1.703125 -0.5q0.640625 -0.5 0.84375 -1.421875l1.59375 0q-0.328125 1.640625 -1.4375 2.5q-1.09375 0.859375 -2.75 0.859375q-1.5625 0 -2.640625 -0.703125q-1.0625 -0.703125 -1.578125 -1.953125q-0.5 -1.25 -0.5 -2.546875q0 -2.171875 1.296875 -3.625q1.3125 -1.453125 3.3125 -1.453125zm-2.90625 4.1875l5.640625 0q-0.078125 -1.1875 -0.875 -1.96875q-0.78125 -0.796875 -1.96875 -0.796875q-1.109375 0 -1.90625 0.75q-0.78125 0.75 -0.890625 2.015625zm9.598572 -3.96875l2.875 8.03125l0.03125 0l2.765625 -8.03125l1.71875 0l-4.1875 10.875q-0.65625 1.703125 -1.265625 2.296875q-0.609375 0.59375 -1.671875 0.59375q-0.296875 0 -0.578125 -0.046875q-0.28125 -0.03125 -0.546875 -0.125l0 -1.484375q0.234375 0.078125 0.46875 0.140625q0.234375 0.078125 0.46875 0.078125q0.984375 0 1.375 -0.984375q0.390625 -0.984375 0.625 -1.578125l-3.890625 -9.765625l1.8125 0z" fill-rule="nonzero"></path><path fill="#000000" fill-opacity="0.0" d="m696.6772 60.031498l97.921265 0l0 44.535435l-97.921265 0z" fill-rule="evenodd"></path><path stroke="#000000" stroke-width="1.0" stroke-linejoin="round" stroke-linecap="butt" d="m696.6772 60.031498l97.921265 0l0 44.535435l-97.921265 0z" fill-rule="evenodd"></path><path fill="#000000" d="m725.7555 79.39108l2.765625 8.1875l0.03125 0l2.6875 -8.1875l1.6875 0l-3.59375 9.828125l-1.71875 0l-3.65625 -9.828125l1.796875 0zm12.5 -0.21875q2.0 0 2.84375 0.71875q0.84375 0.703125 0.84375 1.90625q0 5.109375 0 5.671875q0 0.546875 0.5 0.546875q0.109375 0 0.234375 -0.015625q0.140625 -0.03125 0.265625 -0.078125l0 1.265625q-0.234375 0.125 -0.53125 0.1875q-0.28125 0.078125 -0.625 0.078125q-0.671875 0 -1.03125 -0.375q-0.34375 -0.375 -0.34375 -1.15625q-0.640625 0.765625 -1.515625 1.15625q-0.859375 0.375 -1.9375 0.375q-1.53125 0 -2.390625 -0.71875q-0.859375 -0.71875 -0.859375 -2.046875q0 -1.3125 0.84375 -2.09375q0.84375 -0.78125 3.96875 -1.171875q1.0625 -0.125 1.4375 -0.390625q0.375 -0.28125 0.375 -0.8125q0 -0.828125 -0.53125 -1.21875q-0.515625 -0.40625 -1.65625 -0.40625q-1.203125 0 -1.796875 0.453125q-0.59375 0.453125 -0.640625 1.40625l-1.625 0q0.078125 -1.625 1.15625 -2.453125q1.078125 -0.828125 3.015625 -0.828125zm-2.84375 7.40625q0 0.6875 0.5 1.0625q0.5 0.375 1.40625 0.375q1.359375 0 2.171875 -0.671875q0.828125 -0.671875 0.828125 -1.515625l0 -1.6875q-0.40625 0.296875 -1.0625 0.40625q-0.65625 0.09375 -1.71875 0.234375q-1.078125 0.15625 -1.609375 0.59375q-0.515625 0.421875 -0.515625 1.203125zm10.551697 -10.921875l0 13.5625l-1.609375 0l0 -13.5625l1.609375 0zm4.0510864 3.734375l0 6.703125q0 0.828125 0.53125 1.375q0.53125 0.546875 1.46875 0.546875q1.390625 0 2.140625 -0.84375q0.765625 -0.84375 0.765625 -2.171875l0 -5.609375l1.625 0l0 9.828125l-1.53125 0l0 -1.5625l-0.03125 0q-0.546875 0.9375 -1.359375 1.375q-0.796875 0.421875 -1.84375 0.421875q-1.71875 0 -2.546875 -0.890625q-0.828125 -0.890625 -0.828125 -2.625l0 -6.546875l1.609375 0zm12.844482 -0.21875q2.109375 0 3.28125 1.53125q1.171875 1.515625 1.171875 3.890625l0 0.203125l-7.359375 0l0 0.109375q0 1.40625 0.8125 2.265625q0.828125 0.84375 2.25 0.84375q1.078125 0 1.703125 -0.5q0.640625 -0.5 0.84375 -1.421875l1.59375 0q-0.328125 1.640625 -1.4375 2.5q-1.09375 0.859375 -2.75 0.859375q-1.5625 0 -2.640625 -0.703125q-1.0625 -0.703125 -1.578125 -1.953125q-0.5 -1.25 -0.5 -2.546875q0 -2.171875 1.296875 -3.625q1.3125 -1.453125 3.3125 -1.453125zm-2.90625 4.1875l5.640625 0q-0.078125 -1.1875 -0.875 -1.96875q-0.78125 -0.796875 -1.96875 -0.796875q-1.109375 0 -1.90625 0.75q-0.78125 0.75 -0.890625 2.015625z" fill-rule="nonzero"></path><path fill="#000000" fill-opacity="0.0" d="m0.7401575 482.5223l1157.5433 0l0 63.77951l-1157.5433 0z" fill-rule="evenodd"></path><path fill="#000000" d="m321.86227 495.87982l0 2.5l-6.546875 0l0 3.140625l5.671875 0l0 2.3125l-5.671875 0l0 5.609375l-2.984375 0l0 -13.5625l9.53125 0zm4.0120544 0l0 2.21875l-2.6875 0l0 -2.21875l2.6875 0zm0 3.734375l0 9.828125l-2.6875 0l0 -9.828125l2.6875 0zm5.9504395 -0.25q1.078125 0 1.78125 0.40625q0.703125 0.390625 1.15625 1.15625l0.03125 0l0 -1.3125l2.5625 0l0 9.28125q0 1.96875 -1.265625 3.109375q-1.25 1.15625 -3.8125 1.15625q-1.734375 0 -2.984375 -0.828125q-1.234375 -0.828125 -1.359375 -2.328125l2.671875 0q0.1875 0.71875 0.703125 1.03125q0.515625 0.328125 1.3125 0.328125q1.03125 0 1.59375 -0.625q0.578125 -0.625 0.578125 -1.75l0 -1.359375l-0.03125 0q-0.40625 0.734375 -1.1875 1.140625q-0.765625 0.390625 -1.765625 0.390625q-1.984375 0 -3.09375 -1.3125q-1.109375 -1.328125 -1.109375 -3.625q0 -2.078125 1.15625 -3.46875q1.15625 -1.390625 3.0625 -1.390625zm-1.515625 4.8125q0 1.390625 0.5625 2.171875q0.578125 0.78125 1.625 0.78125q1.0625 0 1.671875 -0.78125q0.625 -0.78125 0.625 -1.953125q0 -1.4375 -0.59375 -2.21875q-0.578125 -0.78125 -1.71875 -0.78125q-1.0 0 -1.59375 0.765625q-0.578125 0.75 -0.578125 2.015625zm11.692841 -4.5625l0 5.640625q0 1.109375 0.390625 1.71875q0.390625 0.609375 1.34375 0.609375q1.109375 0 1.59375 -0.671875q0.5 -0.671875 0.5 -2.046875l0 -5.25l2.703125 0l0 9.828125l-2.578125 0l0 -1.359375l-0.0625 0q-0.5 0.8125 -1.3125 1.21875q-0.796875 0.40625 -1.6875 0.40625q-1.828125 0 -2.703125 -0.921875q-0.875 -0.9375 -0.875 -3.015625l0 -6.15625l2.6875 0zm14.09021 -0.25q0.1875 0 0.328125 0.03125q0.15625 0.015625 0.28125 0.0625l0 2.5q-0.234375 -0.046875 -0.453125 -0.0625q-0.21875 -0.03125 -0.515625 -0.03125q-1.359375 0 -2.015625 0.84375q-0.65625 0.828125 -0.65625 2.21875l0 4.515625l-2.6875 0l0 -9.828125l2.5625 0l0 1.828125l0.03125 0q0.421875 -0.96875 1.265625 -1.515625q0.859375 -0.5625 1.859375 -0.5625zm6.072754 0q2.1875 0 3.484375 1.5q1.3125 1.484375 1.3125 3.8125l-0.03125 0.5l-7.078125 0q0.046875 1.28125 0.65625 1.890625q0.609375 0.609375 1.75 0.609375q0.734375 0 1.34375 -0.375q0.625 -0.375 0.796875 -0.90625l2.375 0q-0.546875 1.671875 -1.6875 2.5q-1.140625 0.8125 -2.921875 0.8125q-2.265625 0 -3.640625 -1.4375q-1.375 -1.4375 -1.375 -3.734375q0 -2.1875 1.40625 -3.671875q1.40625 -1.5 3.609375 -1.5zm-2.3125 4.109375l4.390625 0q-0.203125 -1.078125 -0.71875 -1.578125q-0.5 -0.5 -1.453125 -0.5q-0.984375 0 -1.5625 0.5625q-0.5625 0.546875 -0.65625 1.515625zm18.177307 -7.59375q1.953125 0 3.25 1.171875q1.296875 1.15625 1.296875 2.984375q0 1.28125 -0.609375 2.3125q-0.609375 1.015625 -2.5625 2.265625q-1.375 0.859375 -2.03125 1.421875q-0.640625 0.5625 -1.0 1.09375l6.296875 0l0 2.3125l-9.765625 0q0 -1.3125 0.46875 -2.328125q0.46875 -1.015625 1.34375 -1.8125q0.875 -0.8125 3.34375 -2.453125q0.9375 -0.625 1.375 -1.25q0.453125 -0.625 0.453125 -1.34375q0 -0.90625 -0.546875 -1.484375q-0.53125 -0.578125 -1.4375 -0.578125q-1.015625 0 -1.5625 0.828125q-0.53125 0.8125 -0.5625 2.234375l-2.578125 0l0 -0.25q0 -2.3125 1.3125 -3.71875q1.3125 -1.40625 3.515625 -1.40625zm8.969482 10.640625l0 2.921875l-2.984375 0l0 -2.921875l2.984375 0z" fill-rule="nonzero"></path><path fill="#000000" d="m400.47522 495.5517q2.25 0 3.765625 1.171875q1.53125 1.171875 1.828125 3.234375l-1.8125 0q-0.296875 -1.390625 -1.296875 -2.125q-1.0 -0.75 -2.5 -0.75q-2.15625 0 -3.375 1.515625q-1.21875 1.515625 -1.21875 3.96875q0 2.59375 1.1875 4.140625q1.203125 1.53125 3.421875 1.53125q1.65625 0 2.71875 -1.046875q1.0625 -1.046875 1.203125 -2.859375l1.796875 0q-0.296875 2.625 -1.828125 4.03125q-1.53125 1.40625 -4.03125 1.40625q-2.921875 0 -4.609375 -1.921875q-1.671875 -1.9375 -1.671875 -5.15625q0 -3.15625 1.734375 -5.140625q1.734375 -2.0 4.6875 -2.0zm9.066681 4.0625l0 6.703125q0 0.828125 0.53125 1.375q0.53125 0.546875 1.46875 0.546875q1.390625 0 2.140625 -0.84375q0.765625 -0.84375 0.765625 -2.171875l0 -5.609375l1.625 0l0 9.828125l-1.53125 0l0 -1.5625l-0.03125 0q-0.546875 0.9375 -1.359375 1.375q-0.796875 0.421875 -1.84375 0.421875q-1.71875 0 -2.546875 -0.890625q-0.828125 -0.890625 -0.828125 -2.625l0 -6.546875l1.609375 0zm12.860107 -0.21875q1.796875 0 2.921875 0.859375q1.125 0.84375 1.328125 2.515625l-1.671875 0q-0.203125 -0.953125 -0.84375 -1.453125q-0.625 -0.5 -1.59375 -0.5q-1.5 0 -2.28125 1.015625q-0.78125 1.0 -0.78125 2.828125q0 1.625 0.765625 2.609375q0.78125 0.96875 2.109375 0.96875q1.171875 0 1.84375 -0.625q0.6875 -0.640625 0.84375 -1.765625l1.65625 0q-0.265625 1.84375 -1.390625 2.84375q-1.109375 0.984375 -2.9375 0.984375q-2.140625 0 -3.375 -1.34375q-1.21875 -1.359375 -1.21875 -3.671875q0 -2.421875 1.234375 -3.84375q1.234375 -1.421875 3.390625 -1.421875zm7.629822 -3.515625l0 8.03125l4.484375 -4.296875l2.171875 0l-3.90625 3.578125l4.1875 6.25l-2.046875 0l-3.375 -5.125l-1.515625 1.40625l0 3.71875l-1.609375 0l0 -13.5625l1.609375 0zm12.214661 3.515625q2.234375 0 3.5 1.4375q1.265625 1.4375 1.265625 3.703125q0 2.296875 -1.296875 3.71875q-1.296875 1.421875 -3.46875 1.421875q-2.125 0 -3.453125 -1.390625q-1.3125 -1.40625 -1.3125 -3.75q0 -2.328125 1.28125 -3.734375q1.296875 -1.40625 3.484375 -1.40625zm-3.0625 5.140625q0 1.703125 0.859375 2.703125q0.875 1.0 2.203125 1.0q1.328125 0 2.1875 -1.0q0.875 -1.015625 0.875 -2.703125q0 -1.671875 -0.859375 -2.6875q-0.859375 -1.03125 -2.21875 -1.03125q-1.296875 0 -2.171875 1.015625q-0.875 1.0 -0.875 2.703125zm13.775269 -5.140625q2.234375 0 3.5 1.4375q1.265625 1.4375 1.265625 3.703125q0 2.296875 -1.296875 3.71875q-1.296875 1.421875 -3.46875 1.421875q-2.125 0 -3.453125 -1.390625q-1.3125 -1.40625 -1.3125 -3.75q0 -2.328125 1.28125 -3.734375q1.296875 -1.40625 3.484375 -1.40625zm-3.0625 5.140625q0 1.703125 0.859375 2.703125q0.875 1.0 2.203125 1.0q1.328125 0 2.1875 -1.0q0.875 -1.015625 0.875 -2.703125q0 -1.671875 -0.859375 -2.6875q-0.859375 -1.03125 -2.21875 -1.03125q-1.296875 0 -2.171875 1.015625q-0.875 1.0 -0.875 2.703125zm16.333557 -8.65625l0 5.1875l0.03125 0q0.359375 -0.796875 1.203125 -1.234375q0.84375 -0.4375 1.90625 -0.4375q1.78125 0 2.578125 0.90625q0.8125 0.90625 0.8125 2.59375l0 6.546875l-1.625 0l0 -6.703125q0 -0.84375 -0.53125 -1.375q-0.53125 -0.546875 -1.484375 -0.546875q-1.359375 0 -2.125 0.84375q-0.765625 0.828125 -0.765625 2.171875l0 5.609375l-1.609375 0l0 -13.5625l1.609375 0zm12.781982 3.515625q2.0 0 2.84375 0.71875q0.84375 0.703125 0.84375 1.90625q0 5.109375 0 5.671875q0 0.546875 0.5 0.546875q0.109375 0 0.234375 -0.015625q0.140625 -0.03125 0.265625 -0.078125l0 1.265625q-0.234375 0.125 -0.53125 0.1875q-0.28125 0.078125 -0.625 0.078125q-0.671875 0 -1.03125 -0.375q-0.34375 -0.375 -0.34375 -1.15625q-0.640625 0.765625 -1.515625 1.15625q-0.859375 0.375 -1.9375 0.375q-1.53125 0 -2.390625 -0.71875q-0.859375 -0.71875 -0.859375 -2.046875q0 -1.3125 0.84375 -2.09375q0.84375 -0.78125 3.96875 -1.171875q1.0625 -0.125 1.4375 -0.390625q0.375 -0.28125 0.375 -0.8125q0 -0.828125 -0.53125 -1.21875q-0.515625 -0.40625 -1.65625 -0.40625q-1.203125 0 -1.796875 0.453125q-0.59375 0.453125 -0.640625 1.40625l-1.625 0q0.078125 -1.625 1.15625 -2.453125q1.078125 -0.828125 3.015625 -0.828125zm-2.84375 7.40625q0 0.6875 0.5 1.0625q0.5 0.375 1.40625 0.375q1.359375 0 2.171875 -0.671875q0.828125 -0.671875 0.828125 -1.515625l0 -1.6875q-0.40625 0.296875 -1.0625 0.40625q-0.65625 0.09375 -1.71875 0.234375q-1.078125 0.15625 -1.609375 0.59375q-0.515625 0.421875 -0.515625 1.203125zm12.114197 -7.40625q1.984375 0 2.9375 0.78125q0.96875 0.765625 1.0625 2.28125l-1.609375 0l0 -0.015625q-0.0625 -0.78125 -0.6875 -1.203125q-0.609375 -0.421875 -1.578125 -0.421875q-0.984375 0 -1.546875 0.328125q-0.5625 0.328125 -0.5625 0.921875q0 0.53125 0.5 0.875q0.5 0.34375 1.5 0.5625l1.515625 0.34375q1.4375 0.3125 2.171875 0.96875q0.75 0.65625 0.75 1.765625q0 1.4375 -1.125 2.265625q-1.125 0.828125 -3.0625 0.828125q-1.890625 0 -3.0 -0.84375q-1.09375 -0.84375 -1.171875 -2.484375l1.625 0q0.03125 0.90625 0.71875 1.40625q0.703125 0.484375 1.921875 0.484375q1.171875 0 1.765625 -0.359375q0.609375 -0.375 0.609375 -1.09375q0 -0.671875 -0.609375 -1.046875q-0.59375 -0.390625 -2.4375 -0.765625q-1.859375 -0.359375 -2.625 -1.015625q-0.75 -0.671875 -0.75 -1.765625q0 -1.296875 1.046875 -2.046875q1.046875 -0.75 2.640625 -0.75zm7.671875 -3.515625l0 5.1875l0.03125 0q0.359375 -0.796875 1.203125 -1.234375q0.84375 -0.4375 1.90625 -0.4375q1.78125 0 2.578125 0.90625q0.8125 0.90625 0.8125 2.59375l0 6.546875l-1.625 0l0 -6.703125q0 -0.84375 -0.53125 -1.375q-0.53125 -0.546875 -1.484375 -0.546875q-1.359375 0 -2.125 0.84375q-0.765625 0.828125 -0.765625 2.171875l0 5.609375l-1.609375 0l0 -13.5625l1.609375 0zm16.184052 0.796875l0 2.9375l1.96875 0l0 1.4375l-1.96875 0l0 6.140625q0 0.734375 0.484375 0.78125q0.5 0.046875 1.03125 0.046875l0.453125 0l0 1.421875l-1.34375 0q-1.3281555 0 -1.7812805 -0.46875q-0.453125 -0.484375 -0.453125 -1.59375l0 -6.328125l-1.671875 0l0 -1.4375l1.671875 0l0 -2.9375l1.6094055 0zm7.6568604 2.71875q2.0 0 2.84375 0.71875q0.84375 0.703125 0.84375 1.90625q0 5.109375 0 5.671875q0 0.546875 0.5 0.546875q0.109375 0 0.234375 -0.015625q0.140625 -0.03125 0.265625 -0.078125l0 1.265625q-0.234375 0.125 -0.53125 0.1875q-0.28125 0.078125 -0.625 0.078125q-0.671875 0 -1.03125 -0.375q-0.34375 -0.375 -0.34375 -1.15625q-0.640625 0.765625 -1.515625 1.15625q-0.859375 0.375 -1.9375 0.375q-1.53125 0 -2.390625 -0.71875q-0.859375 -0.71875 -0.859375 -2.046875q0 -1.3125 0.84375 -2.09375q0.84375 -0.78125 3.96875 -1.171875q1.0625 -0.125 1.4375 -0.390625q0.375 -0.28125 0.375 -0.8125q0 -0.828125 -0.53125 -1.21875q-0.515625 -0.40625 -1.65625 -0.40625q-1.203125 0 -1.796875 0.453125q-0.59375 0.453125 -0.640625 1.40625l-1.625 0q0.078125 -1.625 1.15625 -2.453125q1.078125 -0.828125 3.015625 -0.828125zm-2.84375 7.40625q0 0.6875 0.5 1.0625q0.5 0.375 1.40625 0.375q1.359375 0 2.171875 -0.671875q0.828125 -0.671875 0.828125 -1.515625l0 -1.6875q-0.40625 0.296875 -1.0625 0.40625q-0.65625 0.09375 -1.71875 0.234375q-1.078125 0.15625 -1.609375 0.59375q-0.515625 0.421875 -0.515625 1.203125zm10.520447 -10.921875l0 5.078125l0.03125 0q0.375 -0.765625 1.1875 -1.15625q0.8125 -0.40625 1.953125 -0.40625q2.109375 0 3.3125 1.453125q1.203125 1.4375 1.203125 3.71875q0 2.28125 -1.203125 3.703125q-1.203125 1.40625 -3.265625 1.40625q-0.921875 0 -1.796875 -0.375q-0.875 -0.390625 -1.390625 -1.171875l-0.03125 0l0 1.3125l-1.625 0l0 -13.5625l1.625 0zm-0.0625 8.640625q0 1.71875 0.828125 2.71875q0.828125 1.0 2.265625 1.0q1.40625 0 2.171875 -1.0q0.78125 -1.0 0.78125 -2.78125q0 -1.59375 -0.8125 -2.609375q-0.8125 -1.03125 -2.25 -1.03125q-1.421875 0 -2.203125 1.046875q-0.78125 1.03125 -0.78125 2.65625zm11.15271 -8.640625l0 13.5625l-1.609375 0l0 -13.5625l1.609375 0zm6.5197754 3.515625q2.109375 0 3.28125 1.53125q1.171875 1.515625 1.171875 3.890625l0 0.203125l-7.359375 0l0 0.109375q0 1.40625 0.8125 2.265625q0.828125 0.84375 2.25 0.84375q1.078125 0 1.703125 -0.5q0.640625 -0.5 0.84375 -1.421875l1.59375 0q-0.328125 1.640625 -1.4375 2.5q-1.09375 0.859375 -2.75 0.859375q-1.5625 0 -2.640625 -0.703125q-1.0625 -0.703125 -1.578125 -1.953125q-0.5 -1.25 -0.5 -2.546875q0 -2.171875 1.296875 -3.625q1.3125 -1.453125 3.3125 -1.453125zm-2.90625 4.1875l5.640625 0q-0.078125 -1.1875 -0.875 -1.96875q-0.78125 -0.796875 -1.96875 -0.796875q-1.109375 0 -1.90625 0.75q-0.78125 0.75 -0.890625 2.015625zm18.047485 -4.1875q2.0 0 2.84375 0.71875q0.84375 0.703125 0.84375 1.90625q0 5.109375 0 5.671875q0 0.546875 0.5 0.546875q0.109375 0 0.234375 -0.015625q0.140625 -0.03125 0.265625 -0.078125l0 1.265625q-0.234375 0.125 -0.53125 0.1875q-0.28125 0.078125 -0.625 0.078125q-0.671875 0 -1.03125 -0.375q-0.34375 -0.375 -0.34375 -1.15625q-0.640625 0.765625 -1.515625 1.15625q-0.859375 0.375 -1.9375 0.375q-1.53125 0 -2.390625 -0.71875q-0.859375 -0.71875 -0.859375 -2.046875q0 -1.3125 0.84375 -2.09375q0.84375 -0.78125 3.96875 -1.171875q1.0625 -0.125 1.4375 -0.390625q0.375 -0.28125 0.375 -0.8125q0 -0.828125 -0.53125 -1.21875q-0.515625 -0.40625 -1.65625 -0.40625q-1.203125 0 -1.796875 0.453125q-0.59375 0.453125 -0.640625 1.40625l-1.625 0q0.078125 -1.625 1.15625 -2.453125q1.078125 -0.828125 3.015625 -0.828125zm-2.84375 7.40625q0 0.6875 0.5 1.0625q0.5 0.375 1.40625 0.375q1.359375 0 2.171875 -0.671875q0.828125 -0.671875 0.828125 -1.515625l0 -1.6875q-0.40625 0.296875 -1.0625 0.40625q-0.65625 0.09375 -1.71875 0.234375q-1.078125 0.15625 -1.609375 0.59375q-0.515625 0.421875 -0.515625 1.203125zm13.598633 -7.40625q1.78125 0 2.578125 0.90625q0.8125 0.90625 0.8125 2.59375l0 6.546875l-1.625 0l0 -6.703125q0 -0.84375 -0.53125 -1.375q-0.53125 -0.546875 -1.484375 -0.546875q-1.359375 0 -2.125 0.84375q-0.765625 0.828125 -0.765625 2.171875l0 5.609375l-1.609375 0l0 -9.828125l1.515625 0l0 1.5625l0.046875 0q0.53125 -0.921875 1.3125 -1.34375q0.78125 -0.4375 1.875 -0.4375zm14.391296 -3.515625l0 13.5625l-1.609375 0l0 -1.328125l-0.03125 0q-0.390625 0.765625 -1.21875 1.171875q-0.828125 0.390625 -1.921875 0.390625q-2.0625 0 -3.296875 -1.421875q-1.21875 -1.4375 -1.21875 -3.75q0 -2.265625 1.1875 -3.6875q1.203125 -1.421875 3.28125 -1.421875q0.96875 0 1.828125 0.390625q0.875 0.390625 1.359375 1.140625l0.03125 0l0 -5.046875l1.609375 0zm-7.59375 8.734375q0 1.578125 0.8125 2.609375q0.828125 1.015625 2.234375 1.015625q1.421875 0 2.203125 -1.015625q0.796875 -1.03125 0.796875 -2.6875q0 -1.671875 -0.8125 -2.6875q-0.8125 -1.03125 -2.3125 -1.03125q-1.390625 0 -2.15625 1.015625q-0.765625 1.015625 -0.765625 2.78125zm16.679749 -8.734375l0 5.1875l0.03125 0q0.359375 -0.796875 1.203125 -1.234375q0.84375 -0.4375 1.90625 -0.4375q1.78125 0 2.578125 0.90625q0.8125 0.90625 0.8125 2.59375l0 6.546875l-1.625 0l0 -6.703125q0 -0.84375 -0.53125 -1.375q-0.53125 -0.546875 -1.484375 -0.546875q-1.359375 0 -2.125 0.84375q-0.765625 0.828125 -0.765625 2.171875l0 5.609375l-1.609375 0l0 -13.5625l1.609375 0zm12.781982 3.515625q2.0 0 2.84375 0.71875q0.84375 0.703125 0.84375 1.90625q0 5.109375 0 5.671875q0 0.546875 0.5 0.546875q0.109375 0 0.234375 -0.015625q0.140625 -0.03125 0.265625 -0.078125l0 1.265625q-0.234375 0.125 -0.53125 0.1875q-0.28125 0.078125 -0.625 0.078125q-0.671875 0 -1.03125 -0.375q-0.34375 -0.375 -0.34375 -1.15625q-0.640625 0.765625 -1.515625 1.15625q-0.859375 0.375 -1.9375 0.375q-1.53125 0 -2.390625 -0.71875q-0.859375 -0.71875 -0.859375 -2.046875q0 -1.3125 0.84375 -2.09375q0.84375 -0.78125 3.96875 -1.171875q1.0625 -0.125 1.4375 -0.390625q0.375 -0.28125 0.375 -0.8125q0 -0.828125 -0.53125 -1.21875q-0.515625 -0.40625 -1.65625 -0.40625q-1.203125 0 -1.796875 0.453125q-0.59375 0.453125 -0.640625 1.40625l-1.625 0q0.078125 -1.625 1.15625 -2.453125q1.078125 -0.828125 3.015625 -0.828125zm-2.84375 7.40625q0 0.6875 0.5 1.0625q0.5 0.375 1.40625 0.375q1.359375 0 2.171875 -0.671875q0.828125 -0.671875 0.828125 -1.515625l0 -1.6875q-0.40625 0.296875 -1.0625 0.40625q-0.65625 0.09375 -1.71875 0.234375q-1.078125 0.15625 -1.609375 0.59375q-0.515625 0.421875 -0.515625 1.203125zm16.067322 -7.1875l0 1.109375l-6.0 7.296875l6.265625 0l0 1.421875l-8.28125 0l0 -1.234375l5.921875 -7.15625l-5.546875 0l0 -1.4375l7.640625 0zm5.751526 -0.21875q2.0 0 2.84375 0.71875q0.84375 0.703125 0.84375 1.90625q0 5.109375 0 5.671875q0 0.546875 0.5 0.546875q0.109375 0 0.234375 -0.015625q0.140625 -0.03125 0.265625 -0.078125l0 1.265625q-0.234375 0.125 -0.53125 0.1875q-0.28125 0.078125 -0.625 0.078125q-0.671875 0 -1.03125 -0.375q-0.34375 -0.375 -0.34375 -1.15625q-0.640625 0.765625 -1.515625 1.15625q-0.859375 0.375 -1.9375 0.375q-1.53125 0 -2.390625 -0.71875q-0.859375 -0.71875 -0.859375 -2.046875q0 -1.3125 0.84375 -2.09375q0.84375 -0.78125 3.96875 -1.171875q1.0625 -0.125 1.4375 -0.390625q0.375 -0.28125 0.375 -0.8125q0 -0.828125 -0.53125 -1.21875q-0.515625 -0.40625 -1.65625 -0.40625q-1.203125 0 -1.796875 0.453125q-0.59375 0.453125 -0.640625 1.40625l-1.625 0q0.078125 -1.625 1.15625 -2.453125q1.078125 -0.828125 3.015625 -0.828125zm-2.84375 7.40625q0 0.6875 0.5 1.0625q0.5 0.375 1.40625 0.375q1.359375 0 2.171875 -0.671875q0.828125 -0.671875 0.828125 -1.515625l0 -1.6875q-0.40625 0.296875 -1.0625 0.40625q-0.65625 0.09375 -1.71875 0.234375q-1.078125 0.15625 -1.609375 0.59375q-0.515625 0.421875 -0.515625 1.203125zm13.739136 -7.421875q0.046875 0 0.09375 0q0.046875 0 0.125 0.015625l0 1.703125q-1.8125 0 -2.6875 0.96875q-0.859375 0.96875 -0.859375 2.984375l0 4.390625l-1.625 0l0 -9.828125l1.53125 0l0 2.078125l0.03125 0q0.5625 -1.171875 1.390625 -1.734375q0.828125 -0.578125 2.0 -0.578125zm10.0877075 -3.5l0 13.5625l-1.609375 0l0 -1.328125l-0.03125 0q-0.390625 0.765625 -1.21875 1.171875q-0.828125 0.390625 -1.921875 0.390625q-2.0625 0 -3.296875 -1.421875q-1.21875 -1.4375 -1.21875 -3.75q0 -2.265625 1.1875 -3.6875q1.203125 -1.421875 3.28125 -1.421875q0.96875 0 1.828125 0.390625q0.875 0.390625 1.359375 1.140625l0.03125 0l0 -5.046875l1.609375 0zm-7.59375 8.734375q0 1.578125 0.8125 2.609375q0.828125 1.015625 2.234375 1.015625q1.421875 0 2.203125 -1.015625q0.796875 -1.03125 0.796875 -2.6875q0 -1.671875 -0.8125 -2.6875q-0.8125 -1.03125 -2.3125 -1.03125q-1.390625 0 -2.15625 1.015625q-0.765625 1.015625 -0.765625 2.78125zm19.914124 -5.21875q2.109375 0 3.3125 1.453125q1.203125 1.4375 1.203125 3.71875q0 2.28125 -1.203125 3.703125q-1.203125 1.40625 -3.265625 1.40625q-0.921875 0 -1.796875 -0.375q-0.875 -0.390625 -1.390625 -1.171875l-0.03125 0l0 5.078125l-1.625 0l0 -13.59375l1.625 0l0 1.34375l0.03125 0q0.375 -0.765625 1.1875 -1.15625q0.828125 -0.40625 1.953125 -0.40625zm-3.234375 5.125q0 1.71875 0.828125 2.71875q0.828125 1.0 2.265625 1.0q1.40625 0 2.171875 -1.0q0.78125 -1.0 0.78125 -2.78125q0 -1.59375 -0.8125 -2.609375q-0.8125 -1.03125 -2.25 -1.03125q-1.421875 0 -2.203125 1.046875q-0.78125 1.03125 -0.78125 2.65625zm13.683899 -5.125q2.234375 0 3.5 1.4375q1.265625 1.4375 1.265625 3.703125q0 2.296875 -1.296875 3.71875q-1.296875 1.421875 -3.46875 1.421875q-2.125 0 -3.453125 -1.390625q-1.3125 -1.40625 -1.3125 -3.75q0 -2.328125 1.28125 -3.734375q1.296875 -1.40625 3.484375 -1.40625zm-3.0625 5.140625q0 1.703125 0.859375 2.703125q0.875 1.0 2.203125 1.0q1.328125 0 2.1875 -1.0q0.875 -1.015625 0.875 -2.703125q0 -1.671875 -0.859375 -2.6875q-0.859375 -1.03125 -2.21875 -1.03125q-1.296875 0 -2.171875 1.015625q-0.875 1.0 -0.875 2.703125zm11.244019 -8.65625l0 1.96875l-1.609375 0l0 -1.96875l1.609375 0zm0 3.734375l0 9.828125l-1.609375 0l0 -9.828125l1.609375 0zm7.1917114 -0.21875q1.78125 0 2.578125 0.90625q0.8125 0.90625 0.8125 2.59375l0 6.546875l-1.625 0l0 -6.703125q0 -0.84375 -0.53125 -1.375q-0.53125 -0.546875 -1.484375 -0.546875q-1.359375 0 -2.125 0.84375q-0.765625 0.828125 -0.765625 2.171875l0 5.609375l-1.609375 0l0 -9.828125l1.515625 0l0 1.5625l0.046875 0q0.53125 -0.921875 1.3125 -1.34375q0.78125 -0.4375 1.875 -0.4375zm7.8601074 -2.71875l0 2.9375l1.96875 0l0 1.4375l-1.96875 0l0 6.140625q0 0.734375 0.484375 0.78125q0.5 0.046875 1.03125 0.046875l0.453125 0l0 1.421875l-1.34375 0q-1.328125 0 -1.78125 -0.46875q-0.453125 -0.484375 -0.453125 -1.59375l0 -6.328125l-1.671875 0l0 -1.4375l1.671875 0l0 -2.9375l1.609375 0zm7.7193604 2.71875q2.109375 0 3.28125 1.53125q1.171875 1.515625 1.171875 3.890625l0 0.203125l-7.359375 0l0 0.109375q0 1.40625 0.8125 2.265625q0.828125 0.84375 2.25 0.84375q1.078125 0 1.703125 -0.5q0.640625 -0.5 0.84375 -1.421875l1.59375 0q-0.328125 1.640625 -1.4375 2.5q-1.09375 0.859375 -2.75 0.859375q-1.5625 0 -2.640625 -0.703125q-1.0625 -0.703125 -1.578125 -1.953125q-0.5 -1.25 -0.5 -2.546875q0 -2.171875 1.296875 -3.625q1.3125 -1.453125 3.3125 -1.453125zm-2.90625 4.1875l5.640625 0q-0.078125 -1.1875 -0.875 -1.96875q-0.78125 -0.796875 -1.96875 -0.796875q-1.109375 0 -1.90625 0.75q-0.78125 0.75 -0.890625 2.015625zm13.739136 -4.203125q0.046875 0 0.09375 0q0.046875 0 0.125 0.015625l0 1.703125q-1.8125 0 -2.6875 0.96875q-0.859375 0.96875 -0.859375 2.984375l0 4.390625l-1.625 0l0 -9.828125l1.53125 0l0 2.078125l0.03125 0q0.5625 -1.171875 1.390625 -1.734375q0.828125 -0.578125 2.0 -0.578125zm4.5877075 0.015625q1.984375 0 2.9375 0.78125q0.96875 0.765625 1.0625 2.28125l-1.609375 0l0 -0.015625q-0.0625 -0.78125 -0.6875 -1.203125q-0.609375 -0.421875 -1.578125 -0.421875q-0.984375 0 -1.546875 0.328125q-0.5625 0.328125 -0.5625 0.921875q0 0.53125 0.5 0.875q0.5 0.34375 1.5 0.5625l1.515625 0.34375q1.4375 0.3125 2.171875 0.96875q0.75 0.65625 0.75 1.765625q0 1.4375 -1.125 2.265625q-1.125 0.828125 -3.0625 0.828125q-1.890625 0 -3.0 -0.84375q-1.09375 -0.84375 -1.171875 -2.484375l1.625 0q0.03125 0.90625 0.71875 1.40625q0.703125 0.484375 1.921875 0.484375q1.171875 0 1.765625 -0.359375q0.609375 -0.375 0.609375 -1.09375q0 -0.671875 -0.609375 -1.046875q-0.59375 -0.390625 -2.4375 -0.765625q-1.859375 -0.359375 -2.625 -1.015625q-0.75 -0.671875 -0.75 -1.765625q0 -1.296875 1.046875 -2.046875q1.046875 -0.75 2.640625 -0.75zm20.011414 -3.515625l0 13.5625l-1.609375 0l0 -1.328125l-0.03125 0q-0.390625 0.765625 -1.21875 1.171875q-0.828125 0.390625 -1.921875 0.390625q-2.0625 0 -3.296875 -1.421875q-1.21875 -1.4375 -1.21875 -3.75q0 -2.265625 1.1875 -3.6875q1.203125 -1.421875 3.28125 -1.421875q0.96875 0 1.828125 0.390625q0.875 0.390625 1.359375 1.140625l0.03125 0l0 -5.046875l1.609375 0zm-7.59375 8.734375q0 1.578125 0.8125 2.609375q0.828125 1.015625 2.234375 1.015625q1.421875 0 2.203125 -1.015625q0.796875 -1.03125 0.796875 -2.6875q0 -1.671875 -0.8125 -2.6875q-0.8125 -1.03125 -2.3125 -1.03125q-1.390625 0 -2.15625 1.015625q-0.765625 1.015625 -0.765625 2.78125zm13.90271 -5.21875q2.0 0 2.84375 0.71875q0.84375 0.703125 0.84375 1.90625q0 5.109375 0 5.671875q0 0.546875 0.5 0.546875q0.109375 0 0.234375 -0.015625q0.140625 -0.03125 0.265625 -0.078125l0 1.265625q-0.234375 0.125 -0.53125 0.1875q-0.28125 0.078125 -0.625 0.078125q-0.671875 0 -1.03125 -0.375q-0.34375 -0.375 -0.34375 -1.15625q-0.640625 0.765625 -1.515625 1.15625q-0.859375 0.375 -1.9375 0.375q-1.53125 0 -2.390625 -0.71875q-0.859375 -0.71875 -0.859375 -2.046875q0 -1.3125 0.84375 -2.09375q0.84375 -0.78125 3.96875 -1.171875q1.0625 -0.125 1.4375 -0.390625q0.375 -0.28125 0.375 -0.8125q0 -0.828125 -0.53125 -1.21875q-0.515625 -0.40625 -1.65625 -0.40625q-1.203125 0 -1.796875 0.453125q-0.59375 0.453125 -0.640625 1.40625l-1.625 0q0.078125 -1.625 1.15625 -2.453125q1.078125 -0.828125 3.015625 -0.828125zm-2.84375 7.40625q0 0.6875 0.5 1.0625q0.5 0.375 1.40625 0.375q1.359375 0 2.171875 -0.671875q0.828125 -0.671875 0.828125 -1.515625l0 -1.6875q-0.40625 0.296875 -1.0625 0.40625q-0.65625 0.09375 -1.71875 0.234375q-1.078125 0.15625 -1.609375 0.59375q-0.515625 0.421875 -0.515625 1.203125zm11.082947 -10.125l0 2.9375l1.96875 0l0 1.4375l-1.96875 0l0 6.140625q0 0.734375 0.484375 0.78125q0.5 0.046875 1.03125 0.046875l0.453125 0l0 1.421875l-1.34375 0q-1.328125 0 -1.78125 -0.46875q-0.453125 -0.484375 -0.453125 -1.59375l0 -6.328125l-1.671875 0l0 -1.4375l1.671875 0l0 -2.9375l1.609375 0zm7.6569214 2.71875q2.0 0 2.84375 0.71875q0.84375 0.703125 0.84375 1.90625q0 5.109375 0 5.671875q0 0.546875 0.5 0.546875q0.109375 0 0.234375 -0.015625q0.140625 -0.03125 0.265625 -0.078125l0 1.265625q-0.234375 0.125 -0.53125 0.1875q-0.28125 0.078125 -0.625 0.078125q-0.671875 0 -1.03125 -0.375q-0.34375 -0.375 -0.34375 -1.15625q-0.640625 0.765625 -1.515625 1.15625q-0.859375 0.375 -1.9375 0.375q-1.53125 0 -2.390625 -0.71875q-0.859375 -0.71875 -0.859375 -2.046875q0 -1.3125 0.84375 -2.09375q0.84375 -0.78125 3.96875 -1.171875q1.0625 -0.125 1.4375 -0.390625q0.375 -0.28125 0.375 -0.8125q0 -0.828125 -0.53125 -1.21875q-0.515625 -0.40625 -1.65625 -0.40625q-1.203125 0 -1.796875 0.453125q-0.59375 0.453125 -0.640625 1.40625l-1.625 0q0.078125 -1.625 1.15625 -2.453125q1.078125 -0.828125 3.015625 -0.828125zm-2.84375 7.40625q0 0.6875 0.5 1.0625q0.5 0.375 1.40625 0.375q1.359375 0 2.171875 -0.671875q0.828125 -0.671875 0.828125 -1.515625l0 -1.6875q-0.40625 0.296875 -1.0625 0.40625q-0.65625 0.09375 -1.71875 0.234375q-1.078125 0.15625 -1.609375 0.59375q-0.515625 0.421875 -0.515625 1.203125zm17.297485 -7.40625q1.984375 0 2.9375 0.78125q0.96875 0.765625 1.0625 2.28125l-1.609375 0l0 -0.015625q-0.0625 -0.78125 -0.6875 -1.203125q-0.609375 -0.421875 -1.578125 -0.421875q-0.984375 0 -1.546875 0.328125q-0.5625 0.328125 -0.5625 0.921875q0 0.53125 0.5 0.875q0.5 0.34375 1.5 0.5625l1.515625 0.34375q1.4375 0.3125 2.171875 0.96875q0.75 0.65625 0.75 1.765625q0 1.4375 -1.125 2.265625q-1.125 0.828125 -3.0625 0.828125q-1.890625 0 -3.0 -0.84375q-1.09375 -0.84375 -1.171875 -2.484375l1.625 0q0.03125 0.90625 0.71875 1.40625q0.703125 0.484375 1.921875 0.484375q1.171875 0 1.765625 -0.359375q0.609375 -0.375 0.609375 -1.09375q0 -0.671875 -0.609375 -1.046875q-0.59375 -0.390625 -2.4375 -0.765625q-1.859375 -0.359375 -2.625 -1.015625q-0.75 -0.671875 -0.75 -1.765625q0 -1.296875 1.046875 -2.046875q1.046875 -0.75 2.640625 -0.75zm8.296875 -2.71875l0 2.9375l1.96875 0l0 1.4375l-1.96875 0l0 6.140625q0 0.734375 0.484375 0.78125q0.5 0.046875 1.03125 0.046875l0.453125 0l0 1.421875l-1.34375 0q-1.328125 0 -1.78125 -0.46875q-0.453125 -0.484375 -0.453125 -1.59375l0 -6.328125l-1.671875 0l0 -1.4375l1.671875 0l0 -2.9375l1.609375 0zm8.53186 2.703125q0.046875 0 0.09375 0q0.046875 0 0.125 0.015625l0 1.703125q-1.8125 0 -2.6875 0.96875q-0.859375 0.96875 -0.859375 2.984375l0 4.390625l-1.625 0l0 -9.828125l1.53125 0l0 2.078125l0.03125 0q0.5625 -1.171875 1.390625 -1.734375q0.828125 -0.578125 2.0 -0.578125zm2.9313965 0.234375l0 6.703125q0 0.828125 0.53125 1.375q0.53125 0.546875 1.46875 0.546875q1.390625 0 2.140625 -0.84375q0.765625 -0.84375 0.765625 -2.171875l0 -5.609375l1.625 0l0 9.828125l-1.53125 0l0 -1.5625l-0.03125 0q-0.546875 0.9375 -1.359375 1.375q-0.796875 0.421875 -1.84375 0.421875q-1.71875 0 -2.546875 -0.890625q-0.828125 -0.890625 -0.828125 -2.625l0 -6.546875l1.609375 0zm12.860107 -0.21875q1.796875 0 2.921875 0.859375q1.125 0.84375 1.328125 2.515625l-1.671875 0q-0.203125 -0.953125 -0.84375 -1.453125q-0.625 -0.5 -1.59375 -0.5q-1.5 0 -2.28125 1.015625q-0.78125 1.0 -0.78125 2.828125q0 1.625 0.765625 2.609375q0.78125 0.96875 2.109375 0.96875q1.171875 0 1.84375 -0.625q0.6875 -0.640625 0.84375 -1.765625l1.65625 0q-0.265625 1.84375 -1.390625 2.84375q-1.109375 0.984375 -2.9375 0.984375q-2.140625 0 -3.375 -1.34375q-1.21875 -1.359375 -1.21875 -3.671875q0 -2.421875 1.234375 -3.84375q1.234375 -1.421875 3.390625 -1.421875zm8.161011 -2.71875l0 2.9375l1.96875 0l0 1.4375l-1.96875 0l0 6.140625q0 0.734375 0.484375 0.78125q0.5 0.046875 1.03125 0.046875l0.453125 0l0 1.421875l-1.34375 0q-1.328125 0 -1.78125 -0.46875q-0.453125 -0.484375 -0.453125 -1.59375l0 -6.328125l-1.671875 0l0 -1.4375l1.671875 0l0 -2.9375l1.609375 0zm5.2506104 2.9375l0 6.703125q0 0.828125 0.53125 1.375q0.53125 0.546875 1.46875 0.546875q1.390625 0 2.140625 -0.84375q0.765625 -0.84375 0.765625 -2.171875l0 -5.609375l1.625 0l0 9.828125l-1.53125 0l0 -1.5625l-0.03125 0q-0.546875 0.9375 -1.359375 1.375q-0.796875 0.421875 -1.84375 0.421875q-1.71875 0 -2.546875 -0.890625q-0.828125 -0.890625 -0.828125 -2.625l0 -6.546875l1.609375 0zm13.656982 -0.234375q0.046875 0 0.09375 0q0.046875 0 0.125 0.015625l0 1.703125q-1.8125 0 -2.6875 0.96875q-0.859375 0.96875 -0.859375 2.984375l0 4.390625l-1.625 0l0 -9.828125l1.53125 0l0 2.078125l0.03125 0q0.5625 -1.171875 1.390625 -1.734375q0.828125 -0.578125 2.0 -0.578125zm5.4002075 0.015625q2.109375 0 3.28125 1.53125q1.171875 1.515625 1.171875 3.890625l0 0.203125l-7.359375 0l0 0.109375q0 1.40625 0.8125 2.265625q0.828125 0.84375 2.25 0.84375q1.078125 0 1.703125 -0.5q0.640625 -0.5 0.84375 -1.421875l1.59375 0q-0.328125 1.640625 -1.4375 2.5q-1.09375 0.859375 -2.75 0.859375q-1.5625 0 -2.640625 -0.703125q-1.0625 -0.703125 -1.578125 -1.953125q-0.5 -1.25 -0.5 -2.546875q0 -2.171875 1.296875 -3.625q1.3125 -1.453125 3.3125 -1.453125zm-2.90625 4.1875l5.640625 0q-0.078125 -1.1875 -0.875 -1.96875q-0.78125 -0.796875 -1.96875 -0.796875q-1.109375 0 -1.90625 0.75q-0.78125 0.75 -0.890625 2.015625zm11.317322 3.75l0 2.109375l-2.109375 0l0 -2.109375l2.109375 0z" fill-rule="nonzero"></path><path fill="#000000" fill-opacity="0.0" d="m106.28852 56.01123l57.023125 0l0 24.570763l-57.023125 0z" fill-rule="evenodd"></path><path stroke="#000000" stroke-width="1.0" stroke-linejoin="round" stroke-linecap="butt" d="m106.28852 56.01123l57.023125 0l0 24.570763l-57.023125 0z" fill-rule="evenodd"></path><path fill="#000000" fill-opacity="0.0" d="m106.28852 80.58199l57.023125 0l0 24.570763l-57.023125 0z" fill-rule="evenodd"></path><path stroke="#000000" stroke-width="1.0" stroke-linejoin="round" stroke-linecap="butt" d="m106.28852 80.58199l57.023125 0l0 24.570763l-57.023125 0z" fill-rule="evenodd"></path><path fill="#000000" fill-opacity="0.0" d="m163.31165 80.58199l57.023132 0l0 24.570763l-57.023132 0z" fill-rule="evenodd"></path><path stroke="#000000" stroke-width="1.0" stroke-linejoin="round" stroke-linecap="butt" d="m163.31165 80.58199l57.023132 0l0 24.570763l-57.023132 0z" fill-rule="evenodd"></path><path fill="#000000" fill-opacity="0.0" d="m163.31165 56.01123l57.031418 0l0 24.563133l-57.031418 0z" fill-rule="evenodd"></path><path stroke="#000000" stroke-width="1.0" stroke-linejoin="round" stroke-linecap="butt" d="m163.31165 56.01123l57.031418 0l0 24.563133l-57.031418 0z" fill-rule="evenodd"></path><path fill="#000000" fill-opacity="0.0" d="m220.34169 56.014816l57.031418 0l0 24.563133l-57.031418 0z" fill-rule="evenodd"></path><path stroke="#000000" stroke-width="1.0" stroke-linejoin="round" stroke-linecap="butt" d="m220.34169 56.014816l57.031418 0l0 24.563133l-57.031418 0z" fill-rule="evenodd"></path><path fill="#000000" fill-opacity="0.0" d="m220.34169 80.58559l57.031418 0l0 24.563126l-57.031418 0z" fill-rule="evenodd"></path><path stroke="#000000" stroke-width="1.0" stroke-linejoin="round" stroke-linecap="butt" d="m220.34169 80.58559l57.031418 0l0 24.563126l-57.031418 0z" fill-rule="evenodd"></path><path fill="#000000" fill-opacity="0.0" d="m277.3648 80.58559l57.031433 0l0 24.563126l-57.031433 0z" fill-rule="evenodd"></path><path stroke="#000000" stroke-width="1.0" stroke-linejoin="round" stroke-linecap="butt" d="m277.3648 80.58559l57.031433 0l0 24.563126l-57.031433 0z" fill-rule="evenodd"></path><path fill="#000000" fill-opacity="0.0" d="m277.3648 56.014816l57.031433 0l0 24.563133l-57.031433 0z" fill-rule="evenodd"></path><path stroke="#000000" stroke-width="1.0" stroke-linejoin="round" stroke-linecap="butt" d="m277.3648 56.014816l57.031433 0l0 24.563133l-57.031433 0z" fill-rule="evenodd"></path><path fill="#000000" fill-opacity="0.0" d="m106.29527 15.496063l228.0945 0l0 47.90551l-228.0945 0z" fill-rule="evenodd"></path><path fill="#000000" d="m126.27611 28.434189l0 4.359375l0.03125 0q0.296875 -0.65625 1.0 -1.03125q0.71875 -0.375 1.609375 -0.375q1.5 0 2.171875 0.765625q0.671875 0.765625 0.671875 2.1875l0 5.515625l-1.359375 0l0 -5.65625q0 -0.703125 -0.453125 -1.15625q-0.4375 -0.453125 -1.234375 -0.453125q-1.15625 0 -1.796875 0.703125q-0.640625 0.703125 -0.640625 1.828125l0 4.734375l-1.359375 0l0 -11.421875l1.359375 0zm11.6171875 2.953125q1.765625 0 2.78125 1.21875q1.03125 1.21875 1.03125 3.140625q0 1.921875 -1.015625 3.125q-1.015625 1.1875 -2.765625 1.1875q-0.765625 0 -1.515625 -0.328125q-0.734375 -0.328125 -1.15625 -0.984375l-0.03125 0l0 4.28125l-1.359375 0l0 -11.453125l1.359375 0l0 1.125l0.03125 0q0.3125 -0.640625 1.0 -0.96875q0.703125 -0.34375 1.640625 -0.34375zm-2.71875 4.328125q0 1.4375 0.6875 2.28125q0.703125 0.84375 1.921875 0.84375q1.171875 0 1.8125 -0.84375q0.65625 -0.84375 0.65625 -2.34375q0 -1.34375 -0.6875 -2.203125q-0.671875 -0.859375 -1.875 -0.859375q-1.203125 0 -1.859375 0.875q-0.65625 0.875 -0.65625 2.25zm15.09375 5.34375l0 0.796875l-8.0 0l0 -0.796875l8.0 0zm5.140625 -9.671875q0.046875 0 0.078125 0q0.046875 0 0.109375 0l0 1.4375q-1.53125 0 -2.265625 0.8125q-0.71875 0.8125 -0.71875 2.515625l0 3.703125l-1.359375 0l0 -8.28125l1.28125 0l0 1.75l0.03125 0q0.46875 -0.984375 1.171875 -1.453125q0.703125 -0.484375 1.671875 -0.484375zm4.65625 0q1.78125 0 2.765625 1.28125q0.984375 1.28125 0.984375 3.296875l0 0.15625l-6.203125 0l0 0.109375q0 1.171875 0.6875 1.890625q0.6875 0.71875 1.890625 0.71875q0.90625 0 1.4375 -0.421875q0.546875 -0.421875 0.703125 -1.1875l1.34375 0q-0.265625 1.375 -1.203125 2.109375q-0.921875 0.71875 -2.328125 0.71875q-1.296875 0 -2.203125 -0.59375q-0.90625 -0.59375 -1.34375 -1.640625q-0.421875 -1.0625 -0.421875 -2.15625q0 -1.828125 1.09375 -3.046875q1.109375 -1.234375 2.796875 -1.234375zm-2.453125 3.53125l4.75 0q-0.0625 -1.0 -0.734375 -1.65625q-0.65625 -0.671875 -1.65625 -0.671875q-0.9375 0 -1.609375 0.640625q-0.65625 0.625 -0.75 1.6875zm11.0625 -3.53125q1.515625 0 2.453125 0.71875q0.953125 0.71875 1.109375 2.125l-1.40625 0q-0.15625 -0.796875 -0.703125 -1.21875q-0.53125 -0.421875 -1.34375 -0.421875q-1.265625 0 -1.921875 0.84375q-0.65625 0.84375 -0.65625 2.390625q0 1.375 0.640625 2.203125q0.65625 0.8125 1.78125 0.8125q0.984375 0 1.5625 -0.53125q0.578125 -0.53125 0.703125 -1.484375l1.390625 0q-0.21875 1.546875 -1.15625 2.390625q-0.9375 0.84375 -2.484375 0.84375q-1.8125 0 -2.84375 -1.140625q-1.03125 -1.140625 -1.03125 -3.09375q0 -2.03125 1.046875 -3.234375q1.046875 -1.203125 2.859375 -1.203125zm8.703125 0q1.875 0 2.9375 1.21875q1.078125 1.203125 1.078125 3.125q0 1.921875 -1.09375 3.125q-1.09375 1.203125 -2.921875 1.203125q-1.796875 0 -2.90625 -1.171875q-1.109375 -1.1875 -1.109375 -3.15625q0 -1.96875 1.078125 -3.15625q1.09375 -1.1875 2.9375 -1.1875zm-2.578125 4.34375q0 1.421875 0.71875 2.265625q0.734375 0.84375 1.859375 0.84375q1.125 0 1.84375 -0.84375q0.734375 -0.859375 0.734375 -2.265625q0 -1.421875 -0.734375 -2.28125q-0.71875 -0.859375 -1.859375 -0.859375q-1.09375 0 -1.828125 0.84375q-0.734375 0.84375 -0.734375 2.296875zm12.3125 -4.34375q0.046875 0 0.078125 0q0.046875 0 0.109375 0l0 1.4375q-1.53125 0 -2.265625 0.8125q-0.71875 0.8125 -0.71875 2.515625l0 3.703125l-1.359375 0l0 -8.28125l1.28125 0l0 1.75l0.03125 0q0.46875 -0.984375 1.171875 -1.453125q0.703125 -0.484375 1.671875 -0.484375zm8.609375 -2.953125l0 11.421875l-1.359375 0l0 -1.125l-0.03125 0q-0.328125 0.640625 -1.03125 0.984375q-0.6875 0.34375 -1.609375 0.34375q-1.734375 0 -2.78125 -1.203125q-1.03125 -1.21875 -1.03125 -3.15625q0 -1.921875 1.0 -3.109375q1.015625 -1.203125 2.765625 -1.203125q0.8125 0 1.546875 0.328125q0.734375 0.328125 1.140625 0.96875l0.03125 0l0 -4.25l1.359375 0zm-6.40625 7.34375q0 1.34375 0.6875 2.203125q0.703125 0.859375 1.875 0.859375q1.203125 0 1.859375 -0.859375q0.671875 -0.859375 0.671875 -2.25q0 -1.421875 -0.6875 -2.28125q-0.671875 -0.859375 -1.9375 -0.859375q-1.171875 0 -1.828125 0.859375q-0.640625 0.84375 -0.640625 2.328125zm11.609375 -7.625l0 1.09375l-1.703125 0l0 12.6875l1.703125 0l0 1.09375l-2.984375 0l0 -14.875l2.984375 0zm2.921875 0.953125l0 2.46875l1.640625 0l0 1.203125l-1.640625 0l0 5.1875q0 0.609375 0.40625 0.65625q0.40625 0.03125 0.859375 0.03125l0.375 0l0 1.203125l-1.125 0q-1.109375 0 -1.5 -0.390625q-0.375 -0.40625 -0.375 -1.34375l0 -5.34375l-1.421875 0l0 -1.203125l1.421875 0l0 -2.46875l1.359375 0zm4.5078125 -0.671875l0 4.359375l0.03125 0q0.296875 -0.65625 1.0 -1.03125q0.71875 -0.375 1.609375 -0.375q1.5 0 2.171875 0.765625q0.671875 0.765625 0.671875 2.1875l0 5.515625l-1.359375 0l0 -5.65625q0 -0.703125 -0.453125 -1.15625q-0.4375 -0.453125 -1.234375 -0.453125q-1.15625 0 -1.796875 0.703125q-0.640625 0.703125 -0.640625 1.828125l0 4.734375l-1.359375 0l0 -11.421875l1.359375 0zm11.6484375 2.953125q0.046875 0 0.078125 0q0.046875 0 0.109375 0l0 1.4375q-1.53125 0 -2.265625 0.8125q-0.71875 0.8125 -0.71875 2.515625l0 3.703125l-1.359375 0l0 -8.28125l1.28125 0l0 1.75l0.03125 0q0.46875 -0.984375 1.171875 -1.453125q0.703125 -0.484375 1.671875 -0.484375zm4.65625 0q1.78125 0 2.765625 1.28125q0.984375 1.28125 0.984375 3.296875l0 0.15625l-6.203125 0l0 0.109375q0 1.171875 0.6875 1.890625q0.6875 0.71875 1.890625 0.71875q0.90625 0 1.4375 -0.421875q0.546875 -0.421875 0.703125 -1.1875l1.34375 0q-0.265625 1.375 -1.203125 2.109375q-0.921875 0.71875 -2.328125 0.71875q-1.296875 0 -2.203125 -0.59375q-0.90625 -0.59375 -1.34375 -1.640625q-0.421875 -1.0625 -0.421875 -2.15625q0 -1.828125 1.09375 -3.046875q1.109375 -1.234375 2.796875 -1.234375zm-2.453125 3.53125l4.75 0q-0.0625 -1.0 -0.734375 -1.65625q-0.65625 -0.671875 -1.65625 -0.671875q-0.9375 0 -1.609375 0.640625q-0.65625 0.625 -0.75 1.6875zm10.984375 -3.53125q1.6875 0 2.390625 0.609375q0.71875 0.59375 0.71875 1.609375q0 4.296875 0 4.765625q0 0.46875 0.421875 0.46875q0.09375 0 0.203125 -0.015625q0.109375 -0.03125 0.21875 -0.0625l0 1.0625q-0.1875 0.109375 -0.4375 0.171875q-0.25 0.0625 -0.53125 0.0625q-0.5625 0 -0.859375 -0.3125q-0.296875 -0.328125 -0.296875 -0.984375q-0.546875 0.640625 -1.28125 0.96875q-0.734375 0.328125 -1.640625 0.328125q-1.28125 0 -2.015625 -0.609375q-0.71875 -0.609375 -0.71875 -1.71875q0 -1.125 0.703125 -1.765625q0.71875 -0.65625 3.359375 -0.984375q0.890625 -0.125 1.203125 -0.34375q0.3125 -0.234375 0.3125 -0.6875q0 -0.6875 -0.4375 -1.015625q-0.4375 -0.34375 -1.40625 -0.34375q-1.0 0 -1.515625 0.390625q-0.5 0.375 -0.53125 1.171875l-1.359375 0q0.0625 -1.375 0.96875 -2.0625q0.90625 -0.703125 2.53125 -0.703125zm-2.390625 6.234375q0 0.578125 0.421875 0.90625q0.421875 0.3125 1.1875 0.3125q1.140625 0 1.828125 -0.5625q0.6875 -0.578125 0.6875 -1.28125l0 -1.421875q-0.34375 0.25 -0.890625 0.34375q-0.546875 0.078125 -1.453125 0.203125q-0.90625 0.125 -1.34375 0.484375q-0.4375 0.359375 -0.4375 1.015625zm15.0 -9.1875l0 11.421875l-1.359375 0l0 -1.125l-0.03125 0q-0.328125 0.640625 -1.03125 0.984375q-0.6875 0.34375 -1.609375 0.34375q-1.734375 0 -2.78125 -1.203125q-1.03125 -1.21875 -1.03125 -3.15625q0 -1.921875 1.0 -3.109375q1.015625 -1.203125 2.765625 -1.203125q0.8125 0 1.546875 0.328125q0.734375 0.328125 1.140625 0.96875l0.03125 0l0 -4.25l1.359375 0zm-6.40625 7.34375q0 1.34375 0.6875 2.203125q0.703125 0.859375 1.875 0.859375q1.203125 0 1.859375 -0.859375q0.671875 -0.859375 0.671875 -2.25q0 -1.421875 -0.6875 -2.28125q-0.671875 -0.859375 -1.9375 -0.859375q-1.171875 0 -1.828125 0.859375q-0.640625 0.84375 -0.640625 2.328125zm15.46875 5.28125l0 0.796875l-8.0 0l0 -0.796875l8.0 0zm4.4843903 -9.671875q1.515625 0 2.453125 0.71875q0.953125 0.71875 1.109375 2.125l-1.40625 0q-0.15625 -0.796875 -0.703125 -1.21875q-0.53125 -0.421875 -1.34375 -0.421875q-1.265625 0 -1.921875 0.84375q-0.65625 0.84375 -0.65625 2.390625q0 1.375 0.640625 2.203125q0.65625 0.8125 1.78125 0.8125q0.984375 0 1.5625 -0.53125q0.578125 -0.53125 0.703125 -1.484375l1.390625 0q-0.21875 1.546875 -1.15625 2.390625q-0.9375 0.84375 -2.484375 0.84375q-1.8125 0 -2.84375 -1.140625q-1.0312653 -1.140625 -1.0312653 -3.09375q0 -2.03125 1.0468903 -3.234375q1.046875 -1.203125 2.859375 -1.203125zm8.703125 0q1.875 0 2.9375 1.21875q1.078125 1.203125 1.078125 3.125q0 1.921875 -1.09375 3.125q-1.09375 1.203125 -2.921875 1.203125q-1.796875 0 -2.90625 -1.171875q-1.109375 -1.1875 -1.109375 -3.15625q0 -1.96875 1.078125 -3.15625q1.09375 -1.1875 2.9375 -1.1875zm-2.578125 4.34375q0 1.421875 0.71875 2.265625q0.734375 0.84375 1.859375 0.84375q1.125 0 1.84375 -0.84375q0.734375 -0.859375 0.734375 -2.265625q0 -1.421875 -0.734375 -2.28125q-0.71875 -0.859375 -1.859375 -0.859375q-1.09375 0 -1.828125 0.84375q-0.734375 0.84375 -0.734375 2.296875zm9.5625 -4.15625l0 5.640625q0 0.703125 0.4375 1.171875q0.453125 0.453125 1.25 0.453125q1.171875 0 1.796875 -0.703125q0.640625 -0.71875 0.640625 -1.828125l0 -4.734375l1.359375 0l0 8.28125l-1.28125 0l0 -1.3125l-0.03125 0q-0.453125 0.78125 -1.140625 1.15625q-0.671875 0.359375 -1.546875 0.359375q-1.453125 0 -2.15625 -0.75q-0.6875 -0.75 -0.6875 -2.21875l0 -5.515625l1.359375 0zm11.5390625 -0.1875q1.5 0 2.171875 0.765625q0.671875 0.765625 0.671875 2.1875l0 5.515625l-1.359375 0l0 -5.65625q0 -0.703125 -0.453125 -1.15625q-0.4375 -0.453125 -1.234375 -0.453125q-1.15625 0 -1.796875 0.703125q-0.640625 0.703125 -0.640625 1.828125l0 4.734375l-1.359375 0l0 -8.28125l1.28125 0l0 1.3125l0.03125 0q0.453125 -0.765625 1.109375 -1.125q0.65625 -0.375 1.578125 -0.375zm6.7890625 -2.28125l0 2.46875l1.640625 0l0 1.203125l-1.640625 0l0 5.1875q0 0.609375 0.40625 0.65625q0.40625 0.03125 0.859375 0.03125l0.375 0l0 1.203125l-1.125 0q-1.109375 0 -1.5 -0.390625q-0.375 -0.40625 -0.375 -1.34375l0 -5.34375l-1.421875 0l0 -1.203125l1.421875 0l0 -2.46875l1.359375 0zm5.1171875 -0.953125l0 14.875l-3.0 0l0 -1.09375l1.71875 0l0 -12.6875l-1.71875 0l0 -1.09375l3.0 0zm5.28125 0l0 1.09375l-1.703125 0l0 12.6875l1.703125 0l0 1.09375l-2.984375 0l0 -14.875l2.984375 0zm4.359375 0.359375q1.5625 0 2.546875 0.890625q1.0 0.875 1.0 2.375q0 1.171875 -0.65625 2.125q-0.65625 0.9375 -2.78125 2.15625q-1.296875 0.75 -1.84375 1.34375q-0.53125 0.59375 -0.65625 1.25l5.828125 0l0 1.203125l-7.40625 0q0.109375 -1.421875 0.71875 -2.484375q0.625 -1.0625 2.296875 -2.0625q1.984375 -1.203125 2.515625 -1.890625q0.546875 -0.6875 0.546875 -1.65625q0 -0.890625 -0.625 -1.46875q-0.625 -0.578125 -1.5625 -0.578125q-1.03125 0 -1.625 0.765625q-0.59375 0.75 -0.59375 1.9375l0 0.109375l-1.359375 0l0 -0.28125q0 -1.6875 1.0 -2.703125q1.0 -1.03125 2.65625 -1.03125zm7.5390625 -0.359375l0 14.875l-3.0 0l0 -1.09375l1.71875 0l0 -12.6875l-1.71875 0l0 -1.09375l3.0 0z" fill-rule="nonzero"></path><path fill="#000000" fill-opacity="0.0" d="m106.28948 203.68228l71.90974 0l0 38.307205l-71.90974 0z" fill-rule="evenodd"></path><path stroke="#000000" stroke-width="1.0" stroke-linejoin="round" stroke-linecap="butt" d="m106.28948 203.68228l71.90974 0l0 38.307205l-71.90974 0z" fill-rule="evenodd"></path><path fill="#000000" fill-opacity="0.0" d="m106.28948 241.98949l71.90974 0l0 38.307205l-71.90974 0z" fill-rule="evenodd"></path><path stroke="#000000" stroke-width="1.0" stroke-linejoin="round" stroke-linecap="butt" d="m106.28948 241.98949l71.90974 0l0 38.307205l-71.90974 0z" fill-rule="evenodd"></path><path fill="#000000" fill-opacity="0.0" d="m106.28948 280.2967l71.90974 0l0 38.30722l-71.90974 0z" fill-rule="evenodd"></path><path stroke="#000000" stroke-width="1.0" stroke-linejoin="round" stroke-linecap="butt" d="m106.28948 280.2967l71.90974 0l0 38.30722l-71.90974 0z" fill-rule="evenodd"></path><path fill="#000000" fill-opacity="0.0" d="m106.28948 318.6039l71.90974 0l0 38.30722l-71.90974 0z" fill-rule="evenodd"></path><path stroke="#000000" stroke-width="1.0" stroke-linejoin="round" stroke-linecap="butt" d="m106.28948 318.6039l71.90974 0l0 38.30722l-71.90974 0z" fill-rule="evenodd"></path><path fill="#000000" fill-opacity="0.0" d="m193.07164 203.68228l71.9055 0l0 38.29921l-71.9055 0z" fill-rule="evenodd"></path><path stroke="#000000" stroke-width="1.0" stroke-linejoin="round" stroke-linecap="butt" d="m193.07164 203.68228l71.9055 0l0 38.29921l-71.9055 0z" fill-rule="evenodd"></path><path fill="#000000" fill-opacity="0.0" d="m279.84854 203.68228l71.90552 0l0 38.29921l-71.90552 0z" fill-rule="evenodd"></path><path stroke="#000000" stroke-width="1.0" stroke-linejoin="round" stroke-linecap="butt" d="m279.84854 203.68228l71.90552 0l0 38.29921l-71.90552 0z" fill-rule="evenodd"></path><path fill="#000000" fill-opacity="0.0" d="m193.07164 241.98149l71.9055 0l0 38.29921l-71.9055 0z" fill-rule="evenodd"></path><path stroke="#000000" stroke-width="1.0" stroke-linejoin="round" stroke-linecap="butt" d="m193.07164 241.98149l71.9055 0l0 38.29921l-71.9055 0z" fill-rule="evenodd"></path><path fill="#000000" fill-opacity="0.0" d="m193.07164 318.61142l71.9055 0l0 38.299194l-71.9055 0z" fill-rule="evenodd"></path><path stroke="#000000" stroke-width="1.0" stroke-linejoin="round" stroke-linecap="butt" d="m193.07164 318.61142l71.9055 0l0 38.299194l-71.9055 0z" fill-rule="evenodd"></path><path fill="#000000" fill-opacity="0.0" d="m279.84854 318.61142l71.90552 0l0 38.299194l-71.90552 0z" fill-rule="evenodd"></path><path stroke="#000000" stroke-width="1.0" stroke-linejoin="round" stroke-linecap="butt" d="m279.84854 318.61142l71.90552 0l0 38.299194l-71.90552 0z" fill-rule="evenodd"></path><path fill="#000000" fill-opacity="0.0" d="m105.732285 167.0538l246.58269 0l0 47.905518l-246.58269 0z" fill-rule="evenodd"></path><path fill="#000000" d="m142.01971 191.4138l0 -8.296875l1.265625 0l0 1.25q0.484375 -0.875 0.890625 -1.15625q0.40625 -0.28125 0.90625 -0.28125q0.703125 0 1.4375 0.453125l-0.484375 1.296875q-0.515625 -0.296875 -1.03125 -0.296875q-0.453125 0 -0.828125 0.28125q-0.359375 0.265625 -0.515625 0.765625q-0.234375 0.75 -0.234375 1.640625l0 4.34375l-1.40625 0zm11.015625 -2.671875l1.453125 0.171875q-0.34375 1.28125 -1.28125 1.984375q-0.921875 0.703125 -2.359375 0.703125q-1.828125 0 -2.890625 -1.125q-1.0625 -1.125 -1.0625 -3.140625q0 -2.09375 1.078125 -3.25q1.078125 -1.15625 2.796875 -1.15625q1.65625 0 2.703125 1.140625q1.0625 1.125 1.0625 3.171875q0 0.125 0 0.375l-6.1875 0q0.078125 1.375 0.765625 2.109375q0.703125 0.71875 1.734375 0.71875q0.78125 0 1.328125 -0.40625q0.546875 -0.40625 0.859375 -1.296875zm-4.609375 -2.28125l4.625 0q-0.09375 -1.046875 -0.53125 -1.5625q-0.671875 -0.8125 -1.734375 -0.8125q-0.96875 0 -1.640625 0.65625q-0.65625 0.640625 -0.71875 1.71875zm10.8984375 3.6875l0.203125 1.25q-0.59375 0.125 -1.0625 0.125q-0.765625 0 -1.1875 -0.234375q-0.421875 -0.25 -0.59375 -0.640625q-0.171875 -0.40625 -0.171875 -1.671875l0 -4.765625l-1.03125 0l0 -1.09375l1.03125 0l0 -2.0625l1.40625 -0.84375l0 2.90625l1.40625 0l0 1.09375l-1.40625 0l0 4.84375q0 0.609375 0.0625 0.78125q0.078125 0.171875 0.25 0.28125q0.171875 0.09375 0.484375 0.09375q0.234375 0 0.609375 -0.0625zm1.3828125 -8.578125l0 -1.609375l1.40625 0l0 1.609375l-1.40625 0zm0 9.84375l0 -8.296875l1.40625 0l0 8.296875l-1.40625 0zm3.5390625 0l0 -8.296875l1.265625 0l0 1.25q0.484375 -0.875 0.890625 -1.15625q0.40625 -0.28125 0.90625 -0.28125q0.703125 0 1.4375 0.453125l-0.484375 1.296875q-0.515625 -0.296875 -1.03125 -0.296875q-0.453125 0 -0.828125 0.28125q-0.359375 0.265625 -0.515625 0.765625q-0.234375 0.75 -0.234375 1.640625l0 4.34375l-1.40625 0zm11.015625 -2.671875l1.453125 0.171875q-0.34375 1.28125 -1.28125 1.984375q-0.921875 0.703125 -2.359375 0.703125q-1.828125 0 -2.890625 -1.125q-1.0625 -1.125 -1.0625 -3.140625q0 -2.09375 1.078125 -3.25q1.078125 -1.15625 2.796875 -1.15625q1.65625 0 2.703125 1.140625q1.0625 1.125 1.0625 3.171875q0 0.125 0 0.375l-6.1875 0q0.078125 1.375 0.765625 2.109375q0.703125 0.71875 1.734375 0.71875q0.78125 0 1.328125 -0.40625q0.546875 -0.40625 0.859375 -1.296875zm-4.609375 -2.28125l4.625 0q-0.09375 -1.046875 -0.53125 -1.5625q-0.671875 -0.8125 -1.734375 -0.8125q-0.96875 0 -1.640625 0.65625q-0.65625 0.640625 -0.71875 1.71875zm13.2109375 4.953125l0 -1.046875q-0.78125 1.234375 -2.3125 1.234375q-1.0 0 -1.828125 -0.546875q-0.828125 -0.546875 -1.296875 -1.53125q-0.453125 -0.984375 -0.453125 -2.25q0 -1.25 0.40625 -2.25q0.421875 -1.015625 1.25 -1.546875q0.828125 -0.546875 1.859375 -0.546875q0.75 0 1.328125 0.3125q0.59375 0.3125 0.953125 0.828125l0 -4.109375l1.40625 0l0 11.453125l-1.3125 0zm-4.4375 -4.140625q0 1.59375 0.671875 2.390625q0.671875 0.78125 1.578125 0.78125q0.921875 0 1.5625 -0.75q0.65625 -0.765625 0.65625 -2.3125q0 -1.703125 -0.65625 -2.5q-0.65625 -0.796875 -1.625 -0.796875q-0.9375 0 -1.5625 0.765625q-0.625 0.765625 -0.625 2.421875zm6.6484375 7.328125l0 -1.015625l9.328125 0l0 1.015625l-9.328125 0zm10.1796875 -3.1875l0 -11.453125l1.40625 0l0 11.453125l-1.40625 0zm3.5859375 -9.84375l0 -1.609375l1.40625 0l0 1.609375l-1.40625 0zm0 9.84375l0 -8.296875l1.40625 0l0 8.296875l-1.40625 0zm2.9921875 -2.484375l1.390625 -0.21875q0.109375 0.84375 0.640625 1.296875q0.546875 0.4375 1.5 0.4375q0.96875 0 1.4375 -0.390625q0.46875 -0.40625 0.46875 -0.9375q0 -0.46875 -0.40625 -0.75q-0.296875 -0.1875 -1.4375 -0.46875q-1.546875 -0.390625 -2.15625 -0.671875q-0.59375 -0.296875 -0.90625 -0.796875q-0.296875 -0.5 -0.296875 -1.109375q0 -0.5625 0.25 -1.03125q0.25 -0.46875 0.6875 -0.78125q0.328125 -0.25 0.890625 -0.40625q0.578125 -0.171875 1.21875 -0.171875q0.984375 0 1.71875 0.28125q0.734375 0.28125 1.078125 0.765625q0.359375 0.46875 0.5 1.28125l-1.375 0.1875q-0.09375 -0.640625 -0.546875 -1.0q-0.453125 -0.359375 -1.265625 -0.359375q-0.96875 0 -1.390625 0.328125q-0.40625 0.3125 -0.40625 0.734375q0 0.28125 0.171875 0.5q0.171875 0.21875 0.53125 0.375q0.21875 0.078125 1.25 0.359375q1.484375 0.390625 2.078125 0.65625q0.59375 0.25 0.921875 0.734375q0.34375 0.484375 0.34375 1.203125q0 0.703125 -0.421875 1.328125q-0.40625 0.609375 -1.1875 0.953125q-0.765625 0.34375 -1.734375 0.34375q-1.625 0 -2.46875 -0.671875q-0.84375 -0.671875 -1.078125 -2.0zm11.625 1.21875l0.203125 1.25q-0.59375 0.125 -1.0625 0.125q-0.765625 0 -1.1875 -0.234375q-0.421875 -0.25 -0.59375 -0.640625q-0.171875 -0.40625 -0.171875 -1.671875l0 -4.765625l-1.03125 0l0 -1.09375l1.03125 0l0 -2.0625l1.40625 -0.84375l0 2.90625l1.40625 0l0 1.09375l-1.40625 0l0 4.84375q0 0.609375 0.0625 0.78125q0.078125 0.171875 0.25 0.28125q0.171875 0.09375 0.484375 0.09375q0.234375 0 0.609375 -0.0625zm1.4140625 4.453125l0 -14.640625l3.09375 0l0 1.15625l-1.6875 0l0 12.3125l1.6875 0l0 1.171875l-3.09375 0zm7.4765625 -4.453125l0.203125 1.25q-0.59375 0.125 -1.0625 0.125q-0.765625 0 -1.1875 -0.234375q-0.421875 -0.25 -0.59375 -0.640625q-0.171875 -0.40625 -0.171875 -1.671875l0 -4.765625l-1.03125 0l0 -1.09375l1.03125 0l0 -2.0625l1.40625 -0.84375l0 2.90625l1.40625 0l0 1.09375l-1.40625 0l0 4.84375q0 0.609375 0.0625 0.78125q0.078125 0.171875 0.25 0.28125q0.171875 0.09375 0.484375 0.09375q0.234375 0 0.609375 -0.0625zm1.3828125 1.265625l0 -11.453125l1.40625 0l0 4.109375q0.984375 -1.140625 2.484375 -1.140625q0.921875 0 1.59375 0.359375q0.6875 0.359375 0.96875 1.0q0.296875 0.640625 0.296875 1.859375l0 5.265625l-1.40625 0l0 -5.265625q0 -1.046875 -0.453125 -1.53125q-0.453125 -0.484375 -1.296875 -0.484375q-0.625 0 -1.171875 0.328125q-0.546875 0.328125 -0.78125 0.890625q-0.234375 0.546875 -0.234375 1.515625l0 4.546875l-1.40625 0zm8.8828125 0l0 -8.296875l1.265625 0l0 1.25q0.484375 -0.875 0.890625 -1.15625q0.40625 -0.28125 0.90625 -0.28125q0.703125 0 1.4375 0.453125l-0.484375 1.296875q-0.515625 -0.296875 -1.03125 -0.296875q-0.453125 0 -0.828125 0.28125q-0.359375 0.265625 -0.515625 0.765625q-0.234375 0.75 -0.234375 1.640625l0 4.34375l-1.40625 0zm11.015625 -2.671875l1.453125 0.171875q-0.34375 1.28125 -1.28125 1.984375q-0.921875 0.703125 -2.359375 0.703125q-1.828125 0 -2.890625 -1.125q-1.0625 -1.125 -1.0625 -3.140625q0 -2.09375 1.078125 -3.25q1.078125 -1.15625 2.796875 -1.15625q1.65625 0 2.703125 1.140625q1.0625 1.125 1.0625 3.171875q0 0.125 0 0.375l-6.1875 0q0.078125 1.375 0.765625 2.109375q0.703125 0.71875 1.734375 0.71875q0.78125 0 1.328125 -0.40625q0.546875 -0.40625 0.859375 -1.296875zm-4.609375 -2.28125l4.625 0q-0.09375 -1.046875 -0.53125 -1.5625q-0.671875 -0.8125 -1.734375 -0.8125q-0.96875 0 -1.640625 0.65625q-0.65625 0.640625 -0.71875 1.71875zm13.2421875 3.921875q-0.78125 0.671875 -1.5 0.953125q-0.71875 0.265625 -1.546875 0.265625q-1.375 0 -2.109375 -0.671875q-0.734375 -0.671875 -0.734375 -1.703125q0 -0.609375 0.28125 -1.109375q0.28125 -0.515625 0.71875 -0.8125q0.453125 -0.3125 1.015625 -0.46875q0.421875 -0.109375 1.25 -0.203125q1.703125 -0.203125 2.515625 -0.484375q0 -0.296875 0 -0.375q0 -0.859375 -0.390625 -1.203125q-0.546875 -0.484375 -1.609375 -0.484375q-0.984375 0 -1.46875 0.359375q-0.46875 0.34375 -0.6875 1.21875l-1.375 -0.1875q0.1875 -0.875 0.609375 -1.421875q0.4375 -0.546875 1.25 -0.828125q0.8125 -0.296875 1.875 -0.296875q1.0625 0 1.71875 0.25q0.671875 0.25 0.984375 0.625q0.3125 0.375 0.4375 0.953125q0.078125 0.359375 0.078125 1.296875l0 1.875q0 1.96875 0.078125 2.484375q0.09375 0.515625 0.359375 1.0l-1.46875 0q-0.21875 -0.4375 -0.28125 -1.03125zm-0.109375 -3.140625q-0.765625 0.3125 -2.296875 0.53125q-0.875 0.125 -1.234375 0.28125q-0.359375 0.15625 -0.5625 0.46875q-0.1875 0.296875 -0.1875 0.65625q0 0.5625 0.421875 0.9375q0.4375 0.375 1.25 0.375q0.8125 0 1.4375 -0.34375q0.640625 -0.359375 0.9375 -0.984375q0.234375 -0.46875 0.234375 -1.40625l0 -0.515625zm8.9765625 4.171875l0 -1.046875q-0.78125 1.234375 -2.3125 1.234375q-1.0 0 -1.828125 -0.546875q-0.828125 -0.546875 -1.296875 -1.53125q-0.453125 -0.984375 -0.453125 -2.25q0 -1.25 0.40625 -2.25q0.421875 -1.015625 1.25 -1.546875q0.828125 -0.546875 1.859375 -0.546875q0.75 0 1.328125 0.3125q0.59375 0.3125 0.953125 0.828125l0 -4.109375l1.40625 0l0 11.453125l-1.3125 0zm-4.4375 -4.140625q0 1.59375 0.671875 2.390625q0.671875 0.78125 1.578125 0.78125q0.921875 0 1.5625 -0.75q0.65625 -0.765625 0.65625 -2.3125q0 -1.703125 -0.65625 -2.5q-0.65625 -0.796875 -1.625 -0.796875q-0.9375 0 -1.5625 0.765625q-0.625 0.765625 -0.625 2.421875zm6.6484375 7.328125l0 -1.015625l9.328125 0l0 1.015625l-9.328125 0zm15.6171875 -6.234375l1.390625 0.1875q-0.234375 1.421875 -1.171875 2.234375q-0.921875 0.8125 -2.28125 0.8125q-1.703125 0 -2.75 -1.109375q-1.03125 -1.125 -1.03125 -3.203125q0 -1.34375 0.4375 -2.34375q0.453125 -1.015625 1.359375 -1.515625q0.921875 -0.5 1.984375 -0.5q1.359375 0 2.21875 0.6875q0.859375 0.671875 1.09375 1.9375l-1.359375 0.203125q-0.203125 -0.828125 -0.703125 -1.25q-0.484375 -0.421875 -1.1875 -0.421875q-1.0625 0 -1.734375 0.765625q-0.65625 0.75 -0.65625 2.40625q0 1.671875 0.640625 2.4375q0.640625 0.75 1.671875 0.75q0.828125 0 1.375 -0.5q0.5625 -0.515625 0.703125 -1.578125zm2.0625 -1.109375q0 -2.296875 1.28125 -3.40625q1.078125 -0.921875 2.609375 -0.921875q1.71875 0 2.796875 1.125q1.09375 1.109375 1.09375 3.09375q0 1.59375 -0.484375 2.515625q-0.484375 0.921875 -1.40625 1.4375q-0.90625 0.5 -2.0 0.5q-1.734375 0 -2.8125 -1.109375q-1.078125 -1.125 -1.078125 -3.234375zm1.453125 0q0 1.59375 0.6875 2.390625q0.703125 0.796875 1.75 0.796875q1.046875 0 1.734375 -0.796875q0.703125 -0.796875 0.703125 -2.4375q0 -1.53125 -0.703125 -2.328125q-0.6875 -0.796875 -1.734375 -0.796875q-1.046875 0 -1.75 0.796875q-0.6875 0.78125 -0.6875 2.375zm13.4140625 4.15625l0 -1.21875q-0.96875 1.40625 -2.640625 1.40625q-0.734375 0 -1.375 -0.28125q-0.625 -0.28125 -0.9375 -0.703125q-0.3125 -0.4375 -0.4375 -1.046875q-0.078125 -0.421875 -0.078125 -1.3125l0 -5.140625l1.40625 0l0 4.59375q0 1.109375 0.078125 1.484375q0.140625 0.5625 0.5625 0.875q0.4375 0.3125 1.0625 0.3125q0.640625 0 1.1875 -0.3125q0.5625 -0.328125 0.78125 -0.890625q0.234375 -0.5625 0.234375 -1.625l0 -4.4375l1.40625 0l0 8.296875l-1.25 0zm3.4609375 0l0 -8.296875l1.265625 0l0 1.171875q0.90625 -1.359375 2.640625 -1.359375q0.75 0 1.375 0.265625q0.625 0.265625 0.9375 0.703125q0.3125 0.4375 0.4375 1.046875q0.078125 0.390625 0.078125 1.359375l0 5.109375l-1.40625 0l0 -5.046875q0 -0.859375 -0.171875 -1.28125q-0.15625 -0.4375 -0.578125 -0.6875q-0.40625 -0.25 -0.96875 -0.25q-0.90625 0 -1.5625 0.578125q-0.640625 0.5625 -0.640625 2.15625l0 4.53125l-1.40625 0zm11.9609375 -1.265625l0.203125 1.25q-0.59375 0.125 -1.0625 0.125q-0.765625 0 -1.1875 -0.234375q-0.421875 -0.25 -0.59375 -0.640625q-0.171875 -0.40625 -0.171875 -1.671875l0 -4.765625l-1.03125 0l0 -1.09375l1.03125 0l0 -2.0625l1.40625 -0.84375l0 2.90625l1.40625 0l0 1.09375l-1.40625 0l0 4.84375q0 0.609375 0.0625 0.78125q0.078125 0.171875 0.25 0.28125q0.171875 0.09375 0.484375 0.09375q0.234375 0 0.609375 -0.0625zm3.7265625 4.453125l-3.09375 0l0 -1.171875l1.6875 0l0 -12.3125l-1.6875 0l0 -1.15625l3.09375 0l0 14.640625z" fill-rule="nonzero"></path><path fill="#000000" fill-opacity="0.0" d="m178.19922 261.1431l14.866135 0" fill-rule="evenodd"></path><path stroke="#000000" stroke-width="1.0" stroke-linejoin="round" stroke-linecap="butt" d="m178.1992 261.1431l8.86615 0" fill-rule="evenodd"></path><path fill="#000000" stroke="#000000" stroke-width="1.0" stroke-linecap="butt" d="m187.06535 262.79483l4.538101 -1.6517334l-4.538101 -1.6517334z" fill-rule="evenodd"></path><path fill="#000000" fill-opacity="0.0" d="m178.19922 337.7575l14.866135 0" fill-rule="evenodd"></path><path stroke="#000000" stroke-width="1.0" stroke-linejoin="round" stroke-linecap="butt" d="m178.1992 337.75754l8.86615 0" fill-rule="evenodd"></path><path fill="#000000" stroke="#000000" stroke-width="1.0" stroke-linecap="butt" d="m187.06535 339.40927l4.538101 -1.6517334l-4.538101 -1.6517334z" fill-rule="evenodd"></path><path fill="#000000" fill-opacity="0.0" d="m264.97714 337.76102l14.86615 0" fill-rule="evenodd"></path><path stroke="#000000" stroke-width="1.0" stroke-linejoin="round" stroke-linecap="butt" d="m264.97714 337.76102l8.86615 0" fill-rule="evenodd"></path><path fill="#000000" stroke="#000000" stroke-width="1.0" stroke-linecap="butt" d="m273.8433 339.41275l4.5381165 -1.6517334l-4.5381165 -1.6517334z" fill-rule="evenodd"></path><path fill="#000000" fill-opacity="0.0" d="m178.19922 222.83588l14.866135 0" fill-rule="evenodd"></path><path stroke="#000000" stroke-width="1.0" stroke-linejoin="round" stroke-linecap="butt" d="m178.1992 222.83588l8.86615 0" fill-rule="evenodd"></path><path fill="#000000" stroke="#000000" stroke-width="1.0" stroke-linecap="butt" d="m187.06535 224.48761l4.538101 -1.6517334l-4.538101 -1.6517334z" fill-rule="evenodd"></path><path fill="#000000" fill-opacity="0.0" d="m264.97714 222.83188l14.86615 0" fill-rule="evenodd"></path><path stroke="#000000" stroke-width="1.0" stroke-linejoin="round" stroke-linecap="butt" d="m264.97714 222.83188l8.86615 0" fill-rule="evenodd"></path><path fill="#000000" stroke="#000000" stroke-width="1.0" stroke-linecap="butt" d="m273.8433 224.48361l4.5381165 -1.6517334l-4.5381165 -1.6517334z" fill-rule="evenodd"></path><path fill="#000000" fill-opacity="0.0" d="m106.296585 52.312336l56.37796 0l0 20.976376l-56.37796 0z" fill-rule="evenodd"></path><path fill="#000000" d="m127.04132 63.69296l0 3.0156288l0.015625 0q0.203125 -0.46875 0.6875 -0.71875q0.5 -0.25 1.109375 -0.25q1.03125 0 1.5 0.53125q0.46875 0.515625 0.46875 1.5l0 3.78125l-0.9375 0l0 -3.890625q0 -0.46875 -0.3125 -0.78125q-0.3125 -0.328125 -0.859375 -0.328125q-0.78125 0 -1.234375 0.5q-0.4375 0.484375 -0.4375 1.25l0 3.25l-0.9375 0l0 -7.859379l0.9375 0zm7.7858734 2.0468788q1.234375 0 1.921875 0.84375q0.703125 0.828125 0.703125 2.140625q0 1.328125 -0.703125 2.15625q-0.6875 0.8125 -1.890625 0.8125q-0.53125 0 -1.046875 -0.21875q-0.5 -0.234375 -0.796875 -0.671875l-0.015625 0l0 2.9375l-0.9375 0l0 -7.875l0.9375 0l0 0.765625l0.015625 0q0.21875 -0.4375 0.6875 -0.65625q0.484375 -0.234375 1.125 -0.234375zm-1.859375 2.96875q0 0.984375 0.46875 1.578125q0.484375 0.578125 1.328125 0.578125q0.8125 0 1.25 -0.578125q0.453125 -0.59375 0.453125 -1.625q0 -0.921875 -0.484375 -1.515625q-0.46875 -0.59375 -1.28125 -0.59375q-0.828125 0 -1.28125 0.609375q-0.453125 0.59375 -0.453125 1.546875zm7.738617 -4.953129q0.65625 0 1.125 0.21875q0.484375 0.20312881 0.8125 0.6406288q0.65625 0.84375 0.65625 3.109375q0 1.140625 -0.15625 1.90625q-0.15625 0.765625 -0.5 1.203125q-0.3125 0.40625 -0.796875 0.640625q-0.484375 0.21875 -1.140625 0.21875q-1.3125 0 -1.953125 -0.875q-0.640625 -0.875 -0.640625 -3.09375q0 -2.234375 0.640625 -3.09375q0.65625 -0.8750038 1.953125 -0.8750038zm-1.609375 3.9531288q0 0.9375 0.09375 1.5625q0.109375 0.609375 0.3125 0.9375q0.40625 0.65625 1.203125 0.65625q0.859375 0 1.234375 -0.75q0.1875 -0.390625 0.265625 -0.96875q0.09375 -0.578125 0.09375 -1.40625q0 -0.265625 0 -0.609375q0 -0.34375 -0.046875 -0.6875q-0.046875 -0.34375 -0.140625 -0.671875q-0.09375 -0.34375 -0.265625 -0.59375q-0.1875 -0.265625 -0.46875 -0.421875q-0.265625 -0.171875 -0.6875 -0.171875q-0.375 0 -0.671875 0.15625q-0.296875 0.15625 -0.5 0.46875q-0.421875 0.640625 -0.421875 2.5z" fill-rule="nonzero"></path><path fill="#000000" fill-opacity="0.0" d="m106.296585 77.908134l56.37796 0l0 20.97638l-56.37796 0z" fill-rule="evenodd"></path><path fill="#000000" d="m127.04132 89.288765l0 3.015625l0.015625 0q0.203125 -0.46875 0.6875 -0.71875q0.5 -0.25 1.109375 -0.25q1.03125 0 1.5 0.53125q0.46875 0.515625 0.46875 1.5l0 3.78125l-0.9375 0l0 -3.890625q0 -0.46875 -0.3125 -0.78125q-0.3125 -0.328125 -0.859375 -0.328125q-0.78125 0 -1.234375 0.5q-0.4375 0.484375 -0.4375 1.25l0 3.25l-0.9375 0l0 -7.859375l0.9375 0zm7.7858734 2.046875q1.234375 0 1.921875 0.84375q0.703125 0.828125 0.703125 2.140625q0 1.328125 -0.703125 2.15625q-0.6875 0.8125 -1.890625 0.8125q-0.53125 0 -1.046875 -0.21875q-0.5 -0.234375 -0.796875 -0.671875l-0.015625 0l0 2.9375l-0.9375 0l0 -7.875l0.9375 0l0 0.765625l0.015625 0q0.21875 -0.4375 0.6875 -0.65625q0.484375 -0.234375 1.125 -0.234375zm-1.859375 2.96875q0 0.984375 0.46875 1.578125q0.484375 0.578125 1.328125 0.578125q0.8125 0 1.25 -0.578125q0.453125 -0.59375 0.453125 -1.625q0 -0.921875 -0.484375 -1.515625q-0.46875 -0.59375 -1.28125 -0.59375q-0.828125 0 -1.28125 0.609375q-0.453125 0.59375 -0.453125 1.546875zm8.597992 -4.953125l0 7.796875l-0.9375 0l0 -5.59375l-2.03125 0l0 -0.75l0.03125 0q1.0 0 1.53125 -0.34375q0.546875 -0.359375 0.6875 -1.109375l0.71875 0z" fill-rule="nonzero"></path></g></svg>

