<?xml version="1.0" standalone="yes"?>

<svg version="1.1" viewBox="0.0 0.0 959.2808398950132 285.62729658792654" fill="none" stroke="none" stroke-linecap="square" stroke-miterlimit="10" xmlns="http://www.w3.org/2000/svg" xmlns:xlink="http://www.w3.org/1999/xlink"><clipPath id="p.0"><path d="m0 0l959.2808 0l0 285.6273l-959.2808 0l0 -285.6273z" clip-rule="nonzero"></path></clipPath><g clip-path="url(#p.0)"><path fill="#000000" fill-opacity="0.0" d="m0 0l959.2808 0l0 285.6273l-959.2808 0z" fill-rule="evenodd"></path><path fill="#000000" fill-opacity="0.0" d="m844.51447 77.637794l0 0c0 -5.7888184 -5.520935 -11.340546 -15.348145 -15.433857c-9.827209 -4.093315 -23.155823 -6.392914 -37.05359 -6.392914l-159.1336 0c-28.940674 0 -52.401672 -9.772179 -52.401672 -21.82677l0 0c0 12.054592 -23.46106 21.82677 -52.401733 21.82677l-159.13358 0c-28.940674 0 -52.401733 9.772175 -52.401733 21.82677z" fill-rule="evenodd"></path><path fill="#000000" fill-opacity="0.0" d="m844.51447 77.637794l0 0c0 -5.7888184 -5.520935 -11.340546 -15.348145 -15.433857c-9.827209 -4.093315 -23.155823 -6.392914 -37.05359 -6.392914l-159.1336 0c-28.940674 0 -52.401672 -9.772179 -52.401672 -21.82677l0 0c0 12.054592 -23.46106 21.82677 -52.401733 21.82677l-159.13358 0c-28.940674 0 -52.401733 9.772175 -52.401733 21.82677" fill-rule="evenodd"></path><path stroke="#000000" stroke-width="1.0" stroke-linejoin="round" stroke-linecap="butt" d="m844.51447 77.637794l0 0c0 -5.7888184 -5.520935 -11.340546 -15.348145 -15.433857c-9.827209 -4.093315 -23.155823 -6.392914 -37.05359 -6.392914l-159.1336 0c-28.940674 0 -52.401672 -9.772179 -52.401672 -21.82677l0 0c0 12.054592 -23.46106 21.82677 -52.401733 21.82677l-159.13358 0c-28.940674 0 -52.401733 9.772175 -52.401733 21.82677" fill-rule="evenodd"></path><path fill="#000000" fill-opacity="0.0" d="m300.9447 88.81102l556.0126 0l0 150.4252l-556.0126 0z" fill-rule="evenodd"></path><path stroke="#000000" stroke-width="2.0" stroke-linejoin="round" stroke-linecap="butt" d="m300.9447 88.81102l556.0126 0l0 150.4252l-556.0126 0z" fill-rule="evenodd"></path><path fill="#000000" fill-opacity="0.0" d="m66.462326 88.80052l234.48238 0l0 150.4252l-234.48238 0z" fill-rule="evenodd"></path><path stroke="#000000" stroke-width="2.0" stroke-linejoin="round" stroke-linecap="butt" d="m66.462326 88.80052l234.48238 0l0 150.4252l-234.48238 0z" fill-rule="evenodd"></path><path fill="#000000" fill-opacity="0.0" d="m856.9687 88.80052l41.062866 0l0 150.4252l-41.062866 0z" fill-rule="evenodd"></path><path stroke="#000000" stroke-width="2.0" stroke-linejoin="round" stroke-linecap="butt" d="m856.9687 88.80052l41.062866 0l0 150.4252l-41.062866 0z" fill-rule="evenodd"></path><path fill="#000000" fill-opacity="0.0" d="m289.47244 77.637794l0 0c0 -5.7888184 -5.520874 -11.340546 -15.348053 -15.433857c-9.827209 -4.093315 -23.155762 -6.392914 -37.053528 -6.392914l0 0l0 0c-28.940582 0 -52.401566 -9.772179 -52.401566 -21.82677l0 0c0 12.054592 -23.460983 21.82677 -52.40158 21.82677l0 0c-28.94059 0 -52.401573 9.772175 -52.401573 21.82677z" fill-rule="evenodd"></path><path fill="#000000" fill-opacity="0.0" d="m289.47244 77.637794l0 0c0 -5.7888184 -5.520874 -11.340546 -15.348053 -15.433857c-9.827209 -4.093315 -23.155762 -6.392914 -37.053528 -6.392914l0 0l0 0c-28.940582 0 -52.401566 -9.772179 -52.401566 -21.82677l0 0c0 12.054592 -23.460983 21.82677 -52.40158 21.82677l0 0c-28.94059 0 -52.401573 9.772175 -52.401573 21.82677" fill-rule="evenodd"></path><path stroke="#000000" stroke-width="1.0" stroke-linejoin="round" stroke-linecap="butt" d="m289.47244 77.637794l0 0c0 -5.7888184 -5.520874 -11.340546 -15.348053 -15.433857c-9.827209 -4.093315 -23.155762 -6.392914 -37.053528 -6.392914l0 0l0 0c-28.940582 0 -52.401566 -9.772179 -52.401566 -21.82677l0 0c0 12.054592 -23.460983 21.82677 -52.40158 21.82677l0 0c-28.94059 0 -52.401573 9.772175 -52.401573 21.82677" fill-rule="evenodd"></path><path fill="#000000" fill-opacity="0.0" d="m79.86614 0l209.6063 0l0 33.984253l-209.6063 0z" fill-rule="evenodd"></path><path fill="#000000" d="m112.10357 13.357498q1.765625 0 2.890625 0.9375q1.140625 0.9375 1.140625 2.609375q0 1.34375 -0.59375 2.234375q-0.578125 0.875 -1.765625 1.203125l0 0.03125q1.03125 0.203125 1.515625 0.96875q0.5 0.75 0.5625 2.59375q0.046875 1.1875 0.21875 1.859375q0.1875 0.671875 0.53125 1.125l-2.0 0q-0.171875 -0.21875 -0.234375 -0.4375q-0.046875 -0.21875 -0.09375 -0.609375l-0.0625 -1.484375q-0.03125 -1.046875 -0.453125 -2.125q-0.421875 -1.09375 -1.859375 -1.140625l-4.46875 0l0 5.796875l-1.796875 0l0 -13.5625l6.46875 0zm-0.8125 6.25q1.5 0 2.265625 -0.578125q0.78125 -0.59375 0.78125 -1.84375q0 -1.09375 -0.625 -1.703125q-0.609375 -0.609375 -1.71875 -0.609375l-4.5625 0l0 4.734375l3.859375 0zm10.936874 -2.734375q2.109375 0 3.28125 1.53125q1.171875 1.515625 1.171875 3.890625l0 0.203125l-7.359375 0l0 0.109375q0 1.40625 0.8125 2.265625q0.828125 0.84375 2.25 0.84375q1.078125 0 1.703125 -0.5q0.640625 -0.5 0.84375 -1.421875l1.59375 0q-0.328125 1.640625 -1.4375 2.5q-1.09375 0.859375 -2.75 0.859375q-1.5625 0 -2.640625 -0.703125q-1.0625 -0.703125 -1.578125 -1.953125q-0.5 -1.25 -0.5 -2.546875q0 -2.171875 1.296875 -3.625q1.3125 -1.453125 3.3125 -1.453125zm-2.90625 4.1875l5.640625 0q-0.078125 -1.1875 -0.875 -1.96875q-0.78125 -0.796875 -1.96875 -0.796875q-1.109375 0 -1.90625 0.75q-0.78125 0.75 -0.890625 2.015625zm10.551689 -7.703125l0 13.5625l-1.609375 0l0 -13.5625l1.609375 0zm6.676071 3.515625q2.234375 0 3.5 1.4375q1.265625 1.4375 1.265625 3.703125q0 2.296875 -1.296875 3.71875q-1.296875 1.421875 -3.46875 1.421875q-2.125 0 -3.453125 -1.390625q-1.3125 -1.40625 -1.3125 -3.75q0 -2.328125 1.28125 -3.734375q1.296875 -1.40625 3.484375 -1.40625zm-3.0625 5.140625q0 1.703125 0.859375 2.703125q0.875 1.0 2.203125 1.0q1.328125 0 2.1875 -1.0q0.875 -1.015625 0.875 -2.703125q0 -1.671875 -0.859375 -2.6875q-0.859375 -1.03125 -2.21875 -1.03125q-1.296875 0 -2.171875 1.015625q-0.875 1.0 -0.875 2.703125zm13.634644 -5.140625q1.796875 0 2.921875 0.859375q1.125 0.84375 1.328125 2.515625l-1.671875 0q-0.203125 -0.953125 -0.84375 -1.453125q-0.625 -0.5 -1.59375 -0.5q-1.5 0 -2.28125 1.015625q-0.78125 1.0 -0.78125 2.828125q0 1.625 0.765625 2.609375q0.78125 0.96875 2.109375 0.96875q1.171875 0 1.84375 -0.625q0.6875 -0.640625 0.84375 -1.765625l1.65625 0q-0.265625 1.84375 -1.390625 2.84375q-1.109375 0.984375 -2.9375 0.984375q-2.140625 0 -3.375 -1.34375q-1.21875 -1.359375 -1.21875 -3.671875q0 -2.421875 1.234375 -3.84375q1.234375 -1.421875 3.390625 -1.421875zm9.942322 0q2.0 0 2.84375 0.71875q0.84375 0.703125 0.84375 1.90625q0 5.109375 0 5.671875q0 0.546875 0.5 0.546875q0.109375 0 0.234375 -0.015625q0.140625 -0.03125 0.265625 -0.078125l0 1.265625q-0.234375 0.125 -0.53125 0.1875q-0.28125 0.078125 -0.625 0.078125q-0.671875 0 -1.03125 -0.375q-0.34375 -0.375 -0.34375 -1.15625q-0.640625 0.765625 -1.515625 1.15625q-0.859375 0.375 -1.9375 0.375q-1.53125 0 -2.390625 -0.71875q-0.859375 -0.71875 -0.859375 -2.046875q0 -1.3125 0.84375 -2.09375q0.84375 -0.78125 3.96875 -1.171875q1.0625 -0.125 1.4375 -0.390625q0.375 -0.28125 0.375 -0.8125q0 -0.828125 -0.53125 -1.21875q-0.515625 -0.40625 -1.65625 -0.40625q-1.203125 0 -1.796875 0.453125q-0.59375 0.453125 -0.640625 1.40625l-1.625 0q0.078125 -1.625 1.15625 -2.453125q1.078125 -0.828125 3.015625 -0.828125zm-2.84375 7.40625q0 0.6875 0.5 1.0625q0.5 0.375 1.40625 0.375q1.359375 0 2.171875 -0.671875q0.828125 -0.671875 0.828125 -1.515625l0 -1.6875q-0.40625 0.296875 -1.0625 0.40625q-0.65625 0.09375 -1.71875 0.234375q-1.078125 0.15625 -1.609375 0.59375q-0.515625 0.421875 -0.515625 1.203125zm11.082947 -10.125l0 2.9375l1.96875 0l0 1.4375l-1.96875 0l0 6.140625q0 0.734375 0.484375 0.78125q0.5 0.046875 1.03125 0.046875l0.453125 0l0 1.421875l-1.34375 0q-1.328125 0 -1.78125 -0.46875q-0.453125 -0.484375 -0.453125 -1.59375l0 -6.328125l-1.671875 0l0 -1.4375l1.671875 0l0 -2.9375l1.609375 0zm5.3443756 -0.796875l0 1.96875l-1.609375 0l0 -1.96875l1.609375 0zm0 3.734375l0 9.828125l-1.609375 0l0 -9.828125l1.609375 0zm6.676071 -0.21875q2.234375 0 3.5 1.4375q1.265625 1.4375 1.265625 3.703125q0 2.296875 -1.296875 3.71875q-1.296875 1.421875 -3.46875 1.421875q-2.125 0 -3.453125 -1.390625q-1.3125 -1.40625 -1.3125 -3.75q0 -2.328125 1.28125 -3.734375q1.296875 -1.40625 3.484375 -1.40625zm-3.0625 5.140625q0 1.703125 0.859375 2.703125q0.875 1.0 2.203125 1.0q1.328125 0 2.1875 -1.0q0.875 -1.015625 0.875 -2.703125q0 -1.671875 -0.859375 -2.6875q-0.859375 -1.03125 -2.21875 -1.03125q-1.296875 0 -2.171875 1.015625q-0.875 1.0 -0.875 2.703125zm14.290894 -5.140625q1.78125 0 2.578125 0.90625q0.8125 0.90625 0.8125 2.59375l0 6.546875l-1.625 0l0 -6.703125q0 -0.84375 -0.53125 -1.375q-0.53125 -0.546875 -1.484375 -0.546875q-1.359375 0 -2.125 0.84375q-0.765625 0.828125 -0.765625 2.171875l0 5.609375l-1.609375 0l0 -9.828125l1.515625 0l0 1.5625l0.046875 0q0.53125 -0.921875 1.3125 -1.34375q0.78125 -0.4375 1.875 -0.4375zm16.824646 -3.84375q2.25 0 3.765625 1.171875q1.53125 1.171875 1.828125 3.234375l-1.8125 0q-0.296875 -1.390625 -1.296875 -2.125q-1.0 -0.75 -2.5 -0.75q-2.15625 0 -3.375 1.515625q-1.21875 1.515625 -1.21875 3.96875q0 2.59375 1.1875 4.140625q1.203125 1.53125 3.421875 1.53125q1.65625 0 2.71875 -1.046875q1.0625 -1.046875 1.203125 -2.859375l1.796875 0q-0.296875 2.625 -1.828125 4.03125q-1.53125 1.40625 -4.03125 1.40625q-2.921875 0 -4.609375 -1.921875q-1.671875 -1.9375 -1.671875 -5.15625q0 -3.15625 1.734375 -5.140625q1.734375 -2.0 4.6875 -2.0zm11.691696 3.84375q2.234375 0 3.5 1.4375q1.265625 1.4375 1.265625 3.703125q0 2.296875 -1.296875 3.71875q-1.296875 1.421875 -3.46875 1.421875q-2.125 0 -3.453125 -1.390625q-1.3125 -1.40625 -1.3125 -3.75q0 -2.328125 1.28125 -3.734375q1.296875 -1.40625 3.484375 -1.40625zm-3.0625 5.140625q0 1.703125 0.859375 2.703125q0.875 1.0 2.203125 1.0q1.328125 0 2.1875 -1.0q0.875 -1.015625 0.875 -2.703125q0 -1.671875 -0.859375 -2.6875q-0.859375 -1.03125 -2.21875 -1.03125q-1.296875 0 -2.171875 1.015625q-0.875 1.0 -0.875 2.703125zm11.150269 -4.921875l0 6.703125q0 0.828125 0.53125 1.375q0.53125 0.546875 1.46875 0.546875q1.390625 0 2.140625 -0.84375q0.765625 -0.84375 0.765625 -2.171875l0 -5.609375l1.625 0l0 9.828125l-1.53125 0l0 -1.5625l-0.03125 0q-0.546875 0.9375 -1.359375 1.375q-0.796875 0.421875 -1.84375 0.421875q-1.71875 0 -2.546875 -0.890625q-0.828125 -0.890625 -0.828125 -2.625l0 -6.546875l1.609375 0zm13.516342 -0.21875q1.78125 0 2.578125 0.90625q0.8125 0.90625 0.8125 2.59375l0 6.546875l-1.625 0l0 -6.703125q0 -0.84375 -0.53125 -1.375q-0.53125 -0.546875 -1.484375 -0.546875q-1.359375 0 -2.125 0.84375q-0.765625 0.828125 -0.765625 2.171875l0 5.609375l-1.609375 0l0 -9.828125l1.515625 0l0 1.5625l0.046875 0q0.53125 -0.921875 1.3125 -1.34375q0.78125 -0.4375 1.875 -0.4375zm7.860092 -2.71875l0 2.9375l1.96875 0l0 1.4375l-1.96875 0l0 6.140625q0 0.734375 0.484375 0.78125q0.5 0.046875 1.03125 0.046875l0.453125 0l0 1.421875l-1.34375 0q-1.328125 0 -1.78125 -0.46875q-0.453125 -0.484375 -0.453125 -1.59375l0 -6.328125l-1.671875 0l0 -1.4375l1.671875 0l0 -2.9375l1.609375 0zm7.7193756 2.71875q2.1093903 0 3.2812653 1.53125q1.171875 1.515625 1.171875 3.890625l0 0.203125l-7.3593903 0l0 0.109375q0 1.40625 0.8125 2.265625q0.828125 0.84375 2.25 0.84375q1.078125 0 1.7031403 -0.5q0.640625 -0.5 0.84375 -1.421875l1.59375 0q-0.328125 1.640625 -1.4375 2.5q-1.09375 0.859375 -2.7500153 0.859375q-1.5625 0 -2.640625 -0.703125q-1.0625 -0.703125 -1.578125 -1.953125q-0.5 -1.25 -0.5 -2.546875q0 -2.171875 1.296875 -3.625q1.3125 -1.453125 3.3125 -1.453125zm-2.90625 4.1875l5.6406403 0q-0.078125 -1.1875 -0.875 -1.96875q-0.78126526 -0.796875 -1.9687653 -0.796875q-1.109375 0 -1.90625 0.75q-0.78125 0.75 -0.890625 2.015625zm13.739212 -4.203125q0.046875 0 0.09375 0q0.046875 0 0.125 0.015625l0 1.703125q-1.8125 0 -2.6875 0.96875q-0.859375 0.96875 -0.859375 2.984375l0 4.390625l-1.625 0l0 -9.828125l1.53125 0l0 2.078125l0.03125 0q0.5625 -1.171875 1.390625 -1.734375q0.828125 -0.578125 2.0 -0.578125z" fill-rule="nonzero"></path><path fill="#000000" fill-opacity="0.0" d="m316.6404 0l527.874 0l0 33.984253l-527.874 0z" fill-rule="evenodd"></path><path fill="#000000" d="m533.40576 13.357498l0 5.828125l7.140625 0l0 -5.828125l1.8125 0l0 13.5625l-1.8125 0l0 -6.21875l-7.140625 0l0 6.21875l-1.796875 0l0 -13.5625l1.796875 0zm15.426025 3.515625q2.0 0 2.84375 0.71875q0.84375 0.703125 0.84375 1.90625q0 5.109375 0 5.671875q0 0.546875 0.5 0.546875q0.109375 0 0.234375 -0.015625q0.140625 -0.03125 0.265625 -0.078125l0 1.265625q-0.234375 0.125 -0.53125 0.1875q-0.28125 0.078125 -0.625 0.078125q-0.671875 0 -1.03125 -0.375q-0.34375 -0.375 -0.34375 -1.15625q-0.640625 0.765625 -1.515625 1.15625q-0.859375 0.375 -1.9375 0.375q-1.53125 0 -2.390625 -0.71875q-0.859375 -0.71875 -0.859375 -2.046875q0 -1.3125 0.84375 -2.09375q0.84375 -0.78125 3.96875 -1.171875q1.0625 -0.125 1.4375 -0.390625q0.375 -0.28125 0.375 -0.8125q0 -0.828125 -0.53125 -1.21875q-0.515625 -0.40625 -1.65625 -0.40625q-1.203125 0 -1.796875 0.453125q-0.59375 0.453125 -0.640625 1.40625l-1.625 0q0.078125 -1.625 1.15625 -2.453125q1.078125 -0.828125 3.015625 -0.828125zm-2.84375 7.40625q0 0.6875 0.5 1.0625q0.5 0.375 1.40625 0.375q1.359375 0 2.171875 -0.671875q0.828125 -0.671875 0.828125 -1.515625l0 -1.6875q-0.40625 0.296875 -1.0625 0.40625q-0.65625 0.09375 -1.71875 0.234375q-1.078125 0.15625 -1.609375 0.59375q-0.515625 0.421875 -0.515625 1.203125zm12.114197 -7.40625q1.984375 0 2.9375 0.78125q0.96875 0.765625 1.0625 2.28125l-1.609375 0l0 -0.015625q-0.0625 -0.78125 -0.6875 -1.203125q-0.609375 -0.421875 -1.578125 -0.421875q-0.984375 0 -1.546875 0.328125q-0.5625 0.328125 -0.5625 0.921875q0 0.53125 0.5 0.875q0.5 0.34375 1.5 0.5625l1.515625 0.34375q1.4375 0.3125 2.171875 0.96875q0.75 0.65625 0.75 1.765625q0 1.4375 -1.125 2.265625q-1.125 0.828125 -3.0625 0.828125q-1.890625 0 -3.0 -0.84375q-1.09375 -0.84375 -1.171875 -2.484375l1.625 0q0.03125 0.90625 0.71875 1.40625q0.703125 0.484375 1.921875 0.484375q1.171875 0 1.765625 -0.359375q0.609375 -0.375 0.609375 -1.09375q0 -0.671875 -0.609375 -1.046875q-0.59375 -0.390625 -2.4375 -0.765625q-1.859375 -0.359375 -2.625 -1.015625q-0.75 -0.671875 -0.75 -1.765625q0 -1.296875 1.046875 -2.046875q1.046875 -0.75 2.640625 -0.75zm7.671875 -3.515625l0 5.1875l0.03125 0q0.359375 -0.796875 1.203125 -1.234375q0.84375 -0.4375 1.90625 -0.4375q1.78125 0 2.578125 0.90625q0.8125 0.90625 0.8125 2.59375l0 6.546875l-1.625 0l0 -6.703125q0 -0.84375 -0.53125 -1.375q-0.53125 -0.546875 -1.484375 -0.546875q-1.359375 0 -2.125 0.84375q-0.765625 0.828125 -0.765625 2.171875l0 5.609375l-1.609375 0l0 -13.5625l1.609375 0zm17.047607 14.984375l0 0.953125l-9.5 0l0 -0.953125l9.5 0zm5.125 -11.46875q2.109375 0 3.28125 1.53125q1.171875 1.515625 1.171875 3.890625l0 0.203125l-7.359375 0l0 0.109375q0 1.40625 0.8125 2.265625q0.828125 0.84375 2.25 0.84375q1.078125 0 1.703125 -0.5q0.640625 -0.5 0.84375 -1.421875l1.59375 0q-0.328125 1.640625 -1.4375 2.5q-1.09375 0.859375 -2.75 0.859375q-1.5625 0 -2.640625 -0.703125q-1.0625 -0.703125 -1.578125 -1.953125q-0.5 -1.25 -0.5 -2.546875q0 -2.171875 1.296875 -3.625q1.3125 -1.453125 3.3125 -1.453125zm-2.90625 4.1875l5.640625 0q-0.078125 -1.1875 -0.875 -1.96875q-0.78125 -0.796875 -1.96875 -0.796875q-1.109375 0 -1.90625 0.75q-0.78125 0.75 -0.890625 2.015625zm13.598572 -4.1875q1.78125 0 2.578125 0.90625q0.8125 0.90625 0.8125 2.59375l0 6.546875l-1.625 0l0 -6.703125q0 -0.84375 -0.53125 -1.375q-0.53125 -0.546875 -1.484375 -0.546875q-1.359375 0 -2.125 0.84375q-0.765625 0.828125 -0.765625 2.171875l0 5.609375l-1.609375 0l0 -9.828125l1.515625 0l0 1.5625l0.046875 0q0.53125 -0.921875 1.3125 -1.34375q0.78125 -0.4375 1.875 -0.4375zm7.8601074 -2.71875l0 2.9375l1.96875 0l0 1.4375l-1.96875 0l0 6.140625q0 0.734375 0.484375 0.78125q0.5 0.046875 1.03125 0.046875l0.453125 0l0 1.421875l-1.34375 0q-1.328125 0 -1.78125 -0.46875q-0.453125 -0.484375 -0.453125 -1.59375l0 -6.328125l-1.671875 0l0 -1.4375l1.671875 0l0 -2.9375l1.609375 0zm8.53186 2.703125q0.046875 0 0.09375 0q0.046875 0 0.125 0.015625l0 1.703125q-1.8125 0 -2.6875 0.96875q-0.859375 0.96875 -0.859375 2.984375l0 4.390625l-1.625 0l0 -9.828125l1.53125 0l0 2.078125l0.03125 0q0.5625 -1.171875 1.390625 -1.734375q0.828125 -0.578125 2.0 -0.578125zm2.0720825 0.234375l2.875 8.03125l0.03125 0l2.765625 -8.03125l1.71875 0l-4.1875 10.875q-0.65625 1.703125 -1.265625 2.296875q-0.609375 0.59375 -1.671875 0.59375q-0.296875 0 -0.578125 -0.046875q-0.28125 -0.03125 -0.546875 -0.125l0 -1.484375q0.234375 0.078125 0.46875 0.140625q0.234375 0.078125 0.46875 0.078125q0.984375 0 1.375 -0.984375q0.390625 -0.984375 0.625 -1.578125l-3.890625 -9.765625l1.8125 0zm10.171875 -3.734375l1.015625 0l0 2.140625l2.03125 -0.765625l0.375 0.921875l-2.0625 0.71875l1.25 1.734375l-0.78125 0.578125l-1.3125 -1.8125l-1.234375 1.8125l-0.859375 -0.578125l1.234375 -1.734375l-2.015625 -0.71875l0.34375 -0.921875l2.015625 0.765625l0 -2.140625z" fill-rule="nonzero"></path><path fill="#000000" fill-opacity="0.0" d="m61.28609 239.23622l831.5591 0l0 59.05513l-831.5591 0z" fill-rule="evenodd"></path><path fill="#000000" d="m226.50319 266.15622l0 -13.59375l9.3125 0l0 2.296875l-6.578125 0l0 3.21875l5.6875 0l0 2.296875l-5.6875 0l0 5.78125l-2.734375 0zm11.349106 -11.1875l0 -2.40625l2.609375 0l0 2.40625l-2.609375 0zm0 11.1875l0 -9.859375l2.609375 0l0 9.859375l-2.609375 0zm4.948929 0.65625l2.96875 0.359375q0.078125 0.515625 0.34375 0.703125q0.375 0.28125 1.171875 0.28125q1.03125 0 1.53125 -0.296875q0.34375 -0.203125 0.515625 -0.65625q0.125 -0.328125 0.125 -1.203125l0 -1.4375q-1.171875 1.59375 -2.953125 1.59375q-1.984375 0 -3.140625 -1.671875q-0.90625 -1.328125 -0.90625 -3.3125q0 -2.46875 1.1875 -3.78125q1.1875 -1.3125 2.96875 -1.3125q1.828125 0 3.015625 1.609375l0 -1.390625l2.4375 0l0 8.84375q0 1.75 -0.296875 2.609375q-0.28125 0.859375 -0.796875 1.34375q-0.515625 0.5 -1.390625 0.78125q-0.859375 0.28125 -2.1875 0.28125q-2.515625 0 -3.5625 -0.859375q-1.046875 -0.859375 -1.046875 -2.171875q0 -0.140625 0.015625 -0.3125zm2.328125 -5.78125q0 1.5625 0.609375 2.296875q0.609375 0.71875 1.5 0.71875q0.953125 0 1.609375 -0.734375q0.65625 -0.75 0.65625 -2.21875q0 -1.53125 -0.640625 -2.265625q-0.625 -0.75 -1.578125 -0.75q-0.9375 0 -1.546875 0.734375q-0.609375 0.71875 -0.609375 2.21875zm15.786606 5.125l0 -1.46875q-0.53125 0.78125 -1.40625 1.234375q-0.875 0.453125 -1.859375 0.453125q-0.984375 0 -1.78125 -0.4375q-0.78125 -0.4375 -1.140625 -1.21875q-0.34375 -0.796875 -0.34375 -2.1875l0 -6.234375l2.609375 0l0 4.53125q0 2.078125 0.140625 2.546875q0.140625 0.46875 0.515625 0.75q0.390625 0.265625 0.96875 0.265625q0.671875 0 1.203125 -0.359375q0.53125 -0.375 0.71875 -0.90625q0.1875 -0.546875 0.1875 -2.671875l0 -4.15625l2.609375 0l0 9.859375l-2.421875 0zm7.411621 0l-2.609375 0l0 -9.859375l2.421875 0l0 1.40625q0.625 -0.984375 1.109375 -1.296875q0.5 -0.328125 1.140625 -0.328125q0.890625 0 1.71875 0.5l-0.8125 2.265625q-0.65625 -0.421875 -1.21875 -0.421875q-0.546875 0 -0.9375 0.296875q-0.375 0.296875 -0.59375 1.09375q-0.21875 0.78125 -0.21875 3.296875l0 3.046875zm10.463379 -3.140625l2.609375 0.4375q-0.5 1.4375 -1.59375 2.1875q-1.078125 0.734375 -2.703125 0.734375q-2.5625 0 -3.796875 -1.671875q-0.96875 -1.34375 -0.96875 -3.40625q0 -2.4375 1.265625 -3.828125q1.28125 -1.390625 3.25 -1.390625q2.1875 0 3.453125 1.453125q1.28125 1.453125 1.234375 4.453125l-6.53125 0q0.015625 1.15625 0.625 1.8125q0.609375 0.640625 1.5 0.640625q0.609375 0 1.03125 -0.328125q0.421875 -0.34375 0.625 -1.09375zm0.15625 -2.625q-0.03125 -1.140625 -0.59375 -1.71875q-0.546875 -0.59375 -1.34375 -0.59375q-0.859375 0 -1.40625 0.625q-0.5625 0.609375 -0.546875 1.6875l3.890625 0zm9.059021 2.15625l2.515625 -0.3125q0.125 0.96875 0.65625 1.484375q0.53125 0.5 1.28125 0.5q0.796875 0 1.34375 -0.609375q0.5625 -0.609375 0.5625 -1.640625q0 -0.984375 -0.53125 -1.5625q-0.53125 -0.578125 -1.28125 -0.578125q-0.5 0 -1.203125 0.203125l0.28125 -2.125q1.0625 0.015625 1.609375 -0.46875q0.5625 -0.484375 0.5625 -1.296875q0 -0.6875 -0.40625 -1.09375q-0.40625 -0.40625 -1.078125 -0.40625q-0.671875 0 -1.140625 0.46875q-0.46875 0.46875 -0.578125 1.359375l-2.40625 -0.421875q0.25 -1.234375 0.75 -1.96875q0.515625 -0.734375 1.421875 -1.15625q0.90625 -0.421875 2.03125 -0.421875q1.90625 0 3.078125 1.21875q0.953125 1.0 0.953125 2.265625q0 1.796875 -1.953125 2.859375q1.15625 0.25 1.859375 1.125q0.703125 0.875 0.703125 2.109375q0 1.78125 -1.3125 3.046875q-1.296875 1.265625 -3.25 1.265625q-1.84375 0 -3.0625 -1.0625q-1.21875 -1.0625 -1.40625 -2.78125zm11.016357 3.609375l0 -2.609375l2.609375 0l0 2.609375l-2.609375 0z" fill-rule="nonzero"></path><path fill="#000000" d="m309.49857 266.15622l0 -13.59375l5.125 0q1.359375 0 2.078125 0.125q1.0 0.171875 1.671875 0.640625q0.671875 0.46875 1.078125 1.3125q0.421875 0.84375 0.421875 1.84375q0 1.734375 -1.109375 2.9375q-1.09375 1.203125 -3.984375 1.203125l-3.484375 0l0 5.53125l-1.796875 0zm1.796875 -7.140625l3.515625 0q1.75 0 2.46875 -0.640625q0.734375 -0.65625 0.734375 -1.828125q0 -0.859375 -0.4375 -1.46875q-0.421875 -0.609375 -1.125 -0.796875q-0.453125 -0.125 -1.671875 -0.125l-3.484375 0l0 4.859375zm9.802948 2.21875q0 -2.734375 1.53125 -4.0625q1.265625 -1.09375 3.09375 -1.09375q2.03125 0 3.3125 1.34375q1.296875 1.328125 1.296875 3.671875q0 1.90625 -0.578125 3.0q-0.5625 1.078125 -1.65625 1.6875q-1.078125 0.59375 -2.375 0.59375q-2.0625 0 -3.34375 -1.328125q-1.28125 -1.328125 -1.28125 -3.8125zm1.71875 0q0 1.890625 0.828125 2.828125q0.828125 0.9375 2.078125 0.9375q1.25 0 2.0625 -0.9375q0.828125 -0.953125 0.828125 -2.890625q0 -1.828125 -0.828125 -2.765625q-0.828125 -0.9375 -2.0625 -0.9375q-1.25 0 -2.078125 0.9375q-0.828125 0.9375 -0.828125 2.828125zm9.297577 -6.765625l0 -1.90625l1.671875 0l0 1.90625l-1.671875 0zm0 11.6875l0 -9.859375l1.671875 0l0 9.859375l-1.671875 0zm4.1292114 0l0 -9.859375l1.5 0l0 1.40625q1.09375 -1.625 3.140625 -1.625q0.890625 0 1.640625 0.328125q0.75 0.3125 1.109375 0.84375q0.375 0.515625 0.53125 1.21875q0.09375 0.46875 0.09375 1.625l0 6.0625l-1.671875 0l0 -6.0q0 -1.015625 -0.203125 -1.515625q-0.1875 -0.515625 -0.6875 -0.8125q-0.5 -0.296875 -1.171875 -0.296875q-1.0625 0 -1.84375 0.671875q-0.765625 0.671875 -0.765625 2.578125l0 5.375l-1.671875 0zm14.031982 -1.5l0.234375 1.484375q-0.703125 0.140625 -1.265625 0.140625q-0.90625 0 -1.40625 -0.28125q-0.5 -0.296875 -0.703125 -0.75q-0.203125 -0.46875 -0.203125 -1.984375l0 -5.65625l-1.234375 0l0 -1.3125l1.234375 0l0 -2.4375l1.65625 -1.0l0 3.4375l1.6875 0l0 1.3125l-1.6875 0l0 5.75q0 0.71875 0.078125 0.921875q0.09375 0.203125 0.296875 0.328125q0.203125 0.125 0.578125 0.125q0.265625 0 0.734375 -0.078125zm8.277039 -1.671875l1.71875 0.21875q-0.40625 1.5 -1.515625 2.34375q-1.09375 0.828125 -2.8125 0.828125q-2.15625 0 -3.421875 -1.328125q-1.265625 -1.328125 -1.265625 -3.734375q0 -2.484375 1.265625 -3.859375q1.28125 -1.375 3.328125 -1.375q1.984375 0 3.234375 1.34375q1.25 1.34375 1.25 3.796875q0 0.140625 -0.015625 0.4375l-7.34375 0q0.09375 1.625 0.921875 2.484375q0.828125 0.859375 2.0625 0.859375q0.90625 0 1.546875 -0.46875q0.65625 -0.484375 1.046875 -1.546875zm-5.484375 -2.703125l5.5 0q-0.109375 -1.234375 -0.625 -1.859375q-0.796875 -0.96875 -2.078125 -0.96875q-1.140625 0 -1.9375 0.78125q-0.78125 0.765625 -0.859375 2.046875zm9.094482 5.875l0 -9.859375l1.5 0l0 1.5q0.578125 -1.046875 1.0625 -1.375q0.484375 -0.34375 1.078125 -0.34375q0.84375 0 1.71875 0.546875l-0.578125 1.546875q-0.609375 -0.359375 -1.234375 -0.359375q-0.546875 0 -0.984375 0.328125q-0.421875 0.328125 -0.609375 0.90625q-0.28125 0.890625 -0.28125 1.953125l0 5.15625l-1.671875 0zm10.739716 -2.9375l1.65625 -0.265625q0.140625 1.0 0.765625 1.53125q0.640625 0.515625 1.78125 0.515625q1.15625 0 1.703125 -0.46875q0.5625 -0.46875 0.5625 -1.09375q0 -0.5625 -0.484375 -0.890625q-0.34375 -0.21875 -1.703125 -0.5625q-1.84375 -0.46875 -2.5625 -0.796875q-0.703125 -0.34375 -1.078125 -0.9375q-0.359375 -0.609375 -0.359375 -1.328125q0 -0.65625 0.296875 -1.21875q0.3125 -0.5625 0.828125 -0.9375q0.390625 -0.28125 1.0625 -0.484375q0.671875 -0.203125 1.4375 -0.203125q1.171875 0 2.046875 0.34375q0.875 0.328125 1.28125 0.90625q0.421875 0.5625 0.578125 1.515625l-1.625 0.21875q-0.109375 -0.75 -0.65625 -1.171875q-0.53125 -0.4375 -1.5 -0.4375q-1.15625 0 -1.640625 0.390625q-0.484375 0.375 -0.484375 0.875q0 0.328125 0.203125 0.59375q0.203125 0.265625 0.640625 0.4375q0.25 0.09375 1.46875 0.4375q1.765625 0.46875 2.46875 0.765625q0.703125 0.296875 1.09375 0.875q0.40625 0.578125 0.40625 1.4375q0 0.828125 -0.484375 1.578125q-0.484375 0.734375 -1.40625 1.140625q-0.921875 0.390625 -2.078125 0.390625q-1.921875 0 -2.9375 -0.796875q-1.0 -0.796875 -1.28125 -2.359375zm13.65625 1.4375l0.234375 1.484375q-0.703125 0.140625 -1.265625 0.140625q-0.90625 0 -1.40625 -0.28125q-0.5 -0.296875 -0.703125 -0.75q-0.203125 -0.46875 -0.203125 -1.984375l0 -5.65625l-1.234375 0l0 -1.3125l1.234375 0l0 -2.4375l1.65625 -1.0l0 3.4375l1.6875 0l0 1.3125l-1.6875 0l0 5.75q0 0.71875 0.078125 0.921875q0.09375 0.203125 0.296875 0.328125q0.203125 0.125 0.578125 0.125q0.265625 0 0.734375 -0.078125zm1.5114441 1.5l0 -9.859375l1.5 0l0 1.5q0.578125 -1.046875 1.0625 -1.375q0.484375 -0.34375 1.078125 -0.34375q0.84375 0 1.71875 0.546875l-0.578125 1.546875q-0.609375 -0.359375 -1.234375 -0.359375q-0.546875 0 -0.984375 0.328125q-0.421875 0.328125 -0.609375 0.90625q-0.28125 0.890625 -0.28125 1.953125l0 5.15625l-1.671875 0zm12.6813965 0l0 -1.453125q-1.140625 1.671875 -3.125 1.671875q-0.859375 0 -1.625 -0.328125q-0.75 -0.34375 -1.125 -0.84375q-0.359375 -0.5 -0.515625 -1.234375q-0.09375 -0.5 -0.09375 -1.5625l0 -6.109375l1.671875 0l0 5.46875q0 1.3125 0.09375 1.765625q0.15625 0.65625 0.671875 1.03125q0.515625 0.375 1.265625 0.375q0.75 0 1.40625 -0.375q0.65625 -0.390625 0.921875 -1.046875q0.28125 -0.671875 0.28125 -1.9375l0 -5.28125l1.671875 0l0 9.859375l-1.5 0zm10.360107 -3.609375l1.640625 0.21875q-0.265625 1.6875 -1.375 2.65625q-1.109375 0.953125 -2.734375 0.953125q-2.015625 0 -3.25 -1.3125q-1.21875 -1.328125 -1.21875 -3.796875q0 -1.59375 0.515625 -2.78125q0.53125 -1.203125 1.609375 -1.796875q1.09375 -0.609375 2.359375 -0.609375q1.609375 0 2.625 0.8125q1.015625 0.8125 1.3125 2.3125l-1.625 0.25q-0.234375 -1.0 -0.828125 -1.5q-0.59375 -0.5 -1.421875 -0.5q-1.265625 0 -2.0625 0.90625q-0.78125 0.90625 -0.78125 2.859375q0 1.984375 0.765625 2.890625q0.765625 0.890625 1.984375 0.890625q0.984375 0 1.640625 -0.59375q0.65625 -0.609375 0.84375 -1.859375zm6.546875 2.109375l0.234375 1.484375q-0.703125 0.140625 -1.265625 0.140625q-0.90625 0 -1.40625 -0.28125q-0.5 -0.296875 -0.703125 -0.75q-0.203125 -0.46875 -0.203125 -1.984375l0 -5.65625l-1.234375 0l0 -1.3125l1.234375 0l0 -2.4375l1.65625 -1.0l0 3.4375l1.6875 0l0 1.3125l-1.6875 0l0 5.75q0 0.71875 0.078125 0.921875q0.09375 0.203125 0.296875 0.328125q0.203125 0.125 0.578125 0.125q0.265625 0 0.734375 -0.078125zm7.9801636 1.5l0 -1.453125q-1.140625 1.671875 -3.125 1.671875q-0.859375 0 -1.625 -0.328125q-0.75 -0.34375 -1.125 -0.84375q-0.359375 -0.5 -0.515625 -1.234375q-0.09375 -0.5 -0.09375 -1.5625l0 -6.109375l1.671875 0l0 5.46875q0 1.3125 0.09375 1.765625q0.15625 0.65625 0.671875 1.03125q0.515625 0.375 1.265625 0.375q0.75 0 1.40625 -0.375q0.65625 -0.390625 0.921875 -1.046875q0.28125 -0.671875 0.28125 -1.9375l0 -5.28125l1.671875 0l0 9.859375l-1.5 0zm3.9069824 0l0 -9.859375l1.5 0l0 1.5q0.578125 -1.046875 1.0625 -1.375q0.484375 -0.34375 1.078125 -0.34375q0.84375 0 1.71875 0.546875l-0.578125 1.546875q-0.609375 -0.359375 -1.234375 -0.359375q-0.546875 0 -0.984375 0.328125q-0.421875 0.328125 -0.609375 0.90625q-0.28125 0.890625 -0.28125 1.953125l0 5.15625l-1.671875 0zm12.978302 -3.171875l1.71875 0.21875q-0.40625 1.5 -1.515625 2.34375q-1.09375 0.828125 -2.8125 0.828125q-2.15625 0 -3.421875 -1.328125q-1.265625 -1.328125 -1.265625 -3.734375q0 -2.484375 1.265625 -3.859375q1.28125 -1.375 3.328125 -1.375q1.984375 0 3.234375 1.34375q1.25 1.34375 1.25 3.796875q0 0.140625 -0.015625 0.4375l-7.34375 0q0.09375 1.625 0.921875 2.484375q0.828125 0.859375 2.0625 0.859375q0.90625 0 1.546875 -0.46875q0.65625 -0.484375 1.046875 -1.546875zm-5.484375 -2.703125l5.5 0q-0.109375 -1.234375 -0.625 -1.859375q-0.796875 -0.96875 -2.078125 -0.96875q-1.140625 0 -1.9375 0.78125q-0.78125 0.765625 -0.859375 2.046875zm14.699646 5.875l0 -8.546875l-1.484375 0l0 -1.3125l1.484375 0l0 -1.046875q0 -0.984375 0.171875 -1.46875q0.234375 -0.65625 0.84375 -1.046875q0.609375 -0.40625 1.703125 -0.40625q0.703125 0 1.5625 0.15625l-0.25 1.46875q-0.515625 -0.09375 -0.984375 -0.09375q-0.765625 0 -1.078125 0.328125q-0.3125 0.3125 -0.3125 1.203125l0 0.90625l1.921875 0l0 1.3125l-1.921875 0l0 8.546875l-1.65625 0zm4.152069 -4.921875q0 -2.734375 1.53125 -4.0625q1.265625 -1.09375 3.09375 -1.09375q2.03125 0 3.3125 1.34375q1.296875 1.328125 1.296875 3.671875q0 1.90625 -0.578125 3.0q-0.5625 1.078125 -1.65625 1.6875q-1.078125 0.59375 -2.375 0.59375q-2.0625 0 -3.34375 -1.328125q-1.28125 -1.328125 -1.28125 -3.8125zm1.71875 0q0 1.890625 0.828125 2.828125q0.828125 0.9375 2.078125 0.9375q1.25 0 2.0625 -0.9375q0.828125 -0.953125 0.828125 -2.890625q0 -1.828125 -0.828125 -2.765625q-0.828125 -0.9375 -2.0625 -0.9375q-1.25 0 -2.078125 0.9375q-0.828125 0.9375 -0.828125 2.828125zm9.266327 4.921875l0 -9.859375l1.5 0l0 1.5q0.578125 -1.046875 1.0625 -1.375q0.484375 -0.34375 1.078125 -0.34375q0.84375 0 1.71875 0.546875l-0.578125 1.546875q-0.609375 -0.359375 -1.234375 -0.359375q-0.546875 0 -0.984375 0.328125q-0.421875 0.328125 -0.609375 0.90625q-0.28125 0.890625 -0.28125 1.953125l0 5.15625l-1.671875 0zm11.411591 0l0 -13.59375l1.671875 0l0 4.875q1.171875 -1.359375 2.953125 -1.359375q1.09375 0 1.890625 0.4375q0.8125 0.421875 1.15625 1.1875q0.359375 0.765625 0.359375 2.203125l0 6.25l-1.671875 0l0 -6.25q0 -1.25 -0.546875 -1.8125q-0.546875 -0.578125 -1.53125 -0.578125q-0.75 0 -1.40625 0.390625q-0.640625 0.375 -0.921875 1.046875q-0.28125 0.65625 -0.28125 1.8125l0 5.390625l-1.671875 0zm16.813232 -1.21875q-0.9375 0.796875 -1.796875 1.125q-0.859375 0.3125 -1.84375 0.3125q-1.609375 0 -2.484375 -0.78125q-0.875 -0.796875 -0.875 -2.03125q0 -0.734375 0.328125 -1.328125q0.328125 -0.59375 0.859375 -0.953125q0.53125 -0.359375 1.203125 -0.546875q0.5 -0.140625 1.484375 -0.25q2.03125 -0.25 2.984375 -0.578125q0 -0.34375 0 -0.4375q0 -1.015625 -0.46875 -1.4375q-0.640625 -0.5625 -1.90625 -0.5625q-1.171875 0 -1.734375 0.40625q-0.5625 0.40625 -0.828125 1.46875l-1.640625 -0.234375q0.234375 -1.046875 0.734375 -1.6875q0.515625 -0.640625 1.46875 -0.984375q0.96875 -0.359375 2.25 -0.359375q1.265625 0 2.046875 0.296875q0.78125 0.296875 1.15625 0.75q0.375 0.453125 0.515625 1.140625q0.09375 0.421875 0.09375 1.53125l0 2.234375q0 2.328125 0.09375 2.953125q0.109375 0.609375 0.4375 1.171875l-1.75 0q-0.265625 -0.515625 -0.328125 -1.21875zm-0.140625 -3.71875q-0.90625 0.359375 -2.734375 0.625q-1.03125 0.140625 -1.453125 0.328125q-0.421875 0.1875 -0.65625 0.546875q-0.234375 0.359375 -0.234375 0.796875q0 0.671875 0.5 1.125q0.515625 0.4375 1.484375 0.4375q0.96875 0 1.71875 -0.421875q0.75 -0.4375 1.109375 -1.15625q0.265625 -0.578125 0.265625 -1.671875l0 -0.609375zm3.4069824 2.0l1.65625 -0.265625q0.140625 1.0 0.765625 1.53125q0.640625 0.515625 1.78125 0.515625q1.15625 0 1.703125 -0.46875q0.5625 -0.46875 0.5625 -1.09375q0 -0.5625 -0.484375 -0.890625q-0.34375 -0.21875 -1.703125 -0.5625q-1.84375 -0.46875 -2.5625 -0.796875q-0.703125 -0.34375 -1.078125 -0.9375q-0.359375 -0.609375 -0.359375 -1.328125q0 -0.65625 0.296875 -1.21875q0.3125 -0.5625 0.828125 -0.9375q0.390625 -0.28125 1.0625 -0.484375q0.671875 -0.203125 1.4375 -0.203125q1.171875 0 2.046875 0.34375q0.875 0.328125 1.28125 0.90625q0.421875 0.5625 0.578125 1.515625l-1.625 0.21875q-0.109375 -0.75 -0.65625 -1.171875q-0.53125 -0.4375 -1.5 -0.4375q-1.15625 0 -1.640625 0.390625q-0.484375 0.375 -0.484375 0.875q0 0.328125 0.203125 0.59375q0.203125 0.265625 0.640625 0.4375q0.25 0.09375 1.46875 0.4375q1.765625 0.46875 2.46875 0.765625q0.703125 0.296875 1.09375 0.875q0.40625 0.578125 0.40625 1.4375q0 0.828125 -0.484375 1.578125q-0.484375 0.734375 -1.40625 1.140625q-0.921875 0.390625 -2.078125 0.390625q-1.921875 0 -2.9375 -0.796875q-1.0 -0.796875 -1.28125 -2.359375zm10.0 2.9375l0 -13.59375l1.671875 0l0 4.875q1.171875 -1.359375 2.9530945 -1.359375q1.09375 0 1.890625 0.4375q0.8125 0.421875 1.15625 1.1875q0.359375 0.765625 0.359375 2.203125l0 6.25l-1.671875 0l0 -6.25q0 -1.25 -0.546875 -1.8125q-0.546875 -0.578125 -1.53125 -0.578125q-0.7499695 0 -1.4062195 0.390625q-0.640625 0.375 -0.921875 1.046875q-0.28125 0.65625 -0.28125 1.8125l0 5.390625l-1.671875 0zm19.21524 -1.5l0.234375 1.484375q-0.703125 0.140625 -1.265625 0.140625q-0.90625 0 -1.40625 -0.28125q-0.5 -0.296875 -0.703125 -0.75q-0.203125 -0.46875 -0.203125 -1.984375l0 -5.65625l-1.234375 0l0 -1.3125l1.234375 0l0 -2.4375l1.65625 -1.0l0 3.4375l1.6875 0l0 1.3125l-1.6875 0l0 5.75q0 0.71875 0.078125 0.921875q0.09375 0.203125 0.296875 0.328125q0.203125 0.125 0.578125 0.125q0.265625 0 0.734375 -0.078125zm7.9645386 0.28125q-0.9375 0.796875 -1.796875 1.125q-0.859375 0.3125 -1.84375 0.3125q-1.609375 0 -2.484375 -0.78125q-0.875 -0.796875 -0.875 -2.03125q0 -0.734375 0.328125 -1.328125q0.328125 -0.59375 0.859375 -0.953125q0.53125 -0.359375 1.203125 -0.546875q0.5 -0.140625 1.484375 -0.25q2.03125 -0.25 2.984375 -0.578125q0 -0.34375 0 -0.4375q0 -1.015625 -0.46875 -1.4375q-0.640625 -0.5625 -1.90625 -0.5625q-1.171875 0 -1.734375 0.40625q-0.5625 0.40625 -0.828125 1.46875l-1.640625 -0.234375q0.234375 -1.046875 0.734375 -1.6875q0.515625 -0.640625 1.46875 -0.984375q0.96875 -0.359375 2.25 -0.359375q1.265625 0 2.046875 0.296875q0.78125 0.296875 1.15625 0.75q0.375 0.453125 0.515625 1.140625q0.09375 0.421875 0.09375 1.53125l0 2.234375q0 2.328125 0.09375 2.953125q0.109375 0.609375 0.4375 1.171875l-1.75 0q-0.265625 -0.515625 -0.328125 -1.21875zm-0.140625 -3.71875q-0.90625 0.359375 -2.734375 0.625q-1.03125 0.140625 -1.453125 0.328125q-0.421875 0.1875 -0.65625 0.546875q-0.234375 0.359375 -0.234375 0.796875q0 0.671875 0.5 1.125q0.515625 0.4375 1.484375 0.4375q0.96875 0 1.71875 -0.421875q0.75 -0.4375 1.109375 -1.15625q0.265625 -0.578125 0.265625 -1.671875l0 -0.609375zm5.6257324 4.9375l-1.546875 0l0 -13.59375l1.65625 0l0 4.84375q1.0625 -1.328125 2.703125 -1.328125q0.90625 0 1.71875 0.375q0.8125 0.359375 1.328125 1.03125q0.53125 0.65625 0.828125 1.59375q0.296875 0.9375 0.296875 2.0q0 2.53125 -1.25 3.921875q-1.25 1.375 -3.0 1.375q-1.75 0 -2.734375 -1.453125l0 1.234375zm-0.015625 -5.0q0 1.765625 0.46875 2.5625q0.796875 1.28125 2.140625 1.28125q1.09375 0 1.890625 -0.9375q0.796875 -0.953125 0.796875 -2.84375q0 -1.921875 -0.765625 -2.84375q-0.765625 -0.921875 -1.84375 -0.921875q-1.09375 0 -1.890625 0.953125q-0.796875 0.953125 -0.796875 2.75zm8.813232 5.0l0 -13.59375l1.671875 0l0 13.59375l-1.671875 0zm10.926025 -3.171875l1.71875 0.21875q-0.40625 1.5 -1.515625 2.34375q-1.09375 0.828125 -2.8125 0.828125q-2.15625 0 -3.421875 -1.328125q-1.265625 -1.328125 -1.265625 -3.734375q0 -2.484375 1.265625 -3.859375q1.28125 -1.375 3.328125 -1.375q1.984375 0 3.234375 1.34375q1.25 1.34375 1.25 3.796875q0 0.140625 -0.015625 0.4375l-7.34375 0q0.09375 1.625 0.921875 2.484375q0.828125 0.859375 2.0625 0.859375q0.90625 0 1.546875 -0.46875q0.65625 -0.484375 1.046875 -1.546875zm-5.484375 -2.703125l5.5 0q-0.109375 -1.234375 -0.625 -1.859375q-0.796875 -0.96875 -2.078125 -0.96875q-1.140625 0 -1.9375 0.78125q-0.78125 0.765625 -0.859375 2.046875zm21.043396 2.703125l1.71875 0.21875q-0.40625 1.5 -1.515625 2.34375q-1.09375 0.828125 -2.8125 0.828125q-2.15625 0 -3.421875 -1.328125q-1.265625 -1.328125 -1.265625 -3.734375q0 -2.484375 1.265625 -3.859375q1.28125 -1.375 3.328125 -1.375q1.984375 0 3.234375 1.34375q1.25 1.34375 1.25 3.796875q0 0.140625 -0.015625 0.4375l-7.34375 0q0.09375 1.625 0.921875 2.484375q0.828125 0.859375 2.0625 0.859375q0.90625 0 1.546875 -0.46875q0.65625 -0.484375 1.046875 -1.546875zm-5.484375 -2.703125l5.5 0q-0.109375 -1.234375 -0.625 -1.859375q-0.796875 -0.96875 -2.078125 -0.96875q-1.140625 0 -1.9375 0.78125q-0.78125 0.765625 -0.859375 2.046875zm9.110107 5.875l0 -9.859375l1.5 0l0 1.40625q1.09375 -1.625 3.140625 -1.625q0.890625 0 1.640625 0.328125q0.75 0.3125 1.109375 0.84375q0.375 0.515625 0.53125 1.21875q0.09375 0.46875 0.09375 1.625l0 6.0625l-1.671875 0l0 -6.0q0 -1.015625 -0.203125 -1.515625q-0.1875 -0.515625 -0.6875 -0.8125q-0.5 -0.296875 -1.171875 -0.296875q-1.0625 0 -1.84375 0.671875q-0.765625 0.671875 -0.765625 2.578125l0 5.375l-1.671875 0zm14.031982 -1.5l0.234375 1.484375q-0.703125 0.140625 -1.265625 0.140625q-0.90625 0 -1.40625 -0.28125q-0.5 -0.296875 -0.703125 -0.75q-0.203125 -0.46875 -0.203125 -1.984375l0 -5.65625l-1.234375 0l0 -1.3125l1.234375 0l0 -2.4375l1.65625 -1.0l0 3.4375l1.6875 0l0 1.3125l-1.6875 0l0 5.75q0 0.71875 0.078125 0.921875q0.09375 0.203125 0.296875 0.328125q0.203125 0.125 0.578125 0.125q0.265625 0 0.734375 -0.078125zm1.5114136 1.5l0 -9.859375l1.5 0l0 1.5q0.578125 -1.046875 1.0625 -1.375q0.484375 -0.34375 1.078125 -0.34375q0.84375 0 1.71875 0.546875l-0.578125 1.546875q-0.609375 -0.359375 -1.234375 -0.359375q-0.546875 0 -0.984375 0.328125q-0.421875 0.328125 -0.609375 0.90625q-0.28125 0.890625 -0.28125 1.953125l0 5.15625l-1.671875 0zm6.2438965 -11.6875l0 -1.90625l1.671875 0l0 1.90625l-1.671875 0zm0 11.6875l0 -9.859375l1.671875 0l0 9.859375l-1.671875 0zm10.879211 -3.171875l1.71875 0.21875q-0.40625 1.5 -1.515625 2.34375q-1.09375 0.828125 -2.8125 0.828125q-2.15625 0 -3.421875 -1.328125q-1.265625 -1.328125 -1.265625 -3.734375q0 -2.484375 1.265625 -3.859375q1.28125 -1.375 3.328125 -1.375q1.984375 0 3.234375 1.34375q1.25 1.34375 1.25 3.796875q0 0.140625 -0.015625 0.4375l-7.34375 0q0.09375 1.625 0.921875 2.484375q0.828125 0.859375 2.0625 0.859375q0.90625 0 1.546875 -0.46875q0.65625 -0.484375 1.046875 -1.546875zm-5.484375 -2.703125l5.5 0q-0.109375 -1.234375 -0.625 -1.859375q-0.796875 -0.96875 -2.078125 -0.96875q-1.140625 0 -1.9375 0.78125q-0.78125 0.765625 -0.859375 2.046875zm8.438232 2.9375l1.65625 -0.265625q0.140625 1.0 0.765625 1.53125q0.640625 0.515625 1.78125 0.515625q1.15625 0 1.703125 -0.46875q0.5625 -0.46875 0.5625 -1.09375q0 -0.5625 -0.484375 -0.890625q-0.34375 -0.21875 -1.703125 -0.5625q-1.84375 -0.46875 -2.5625 -0.796875q-0.703125 -0.34375 -1.078125 -0.9375q-0.359375 -0.609375 -0.359375 -1.328125q0 -0.65625 0.296875 -1.21875q0.3125 -0.5625 0.828125 -0.9375q0.390625 -0.28125 1.0625 -0.484375q0.671875 -0.203125 1.4375 -0.203125q1.171875 0 2.046875 0.34375q0.875 0.328125 1.28125 0.90625q0.421875 0.5625 0.578125 1.515625l-1.625 0.21875q-0.109375 -0.75 -0.65625 -1.171875q-0.53125 -0.4375 -1.5 -0.4375q-1.15625 0 -1.640625 0.390625q-0.484375 0.375 -0.484375 0.875q0 0.328125 0.203125 0.59375q0.203125 0.265625 0.640625 0.4375q0.25 0.09375 1.46875 0.4375q1.765625 0.46875 2.46875 0.765625q0.703125 0.296875 1.09375 0.875q0.40625 0.578125 0.40625 1.4375q0 0.828125 -0.484375 1.578125q-0.484375 0.734375 -1.40625 1.140625q-0.921875 0.390625 -2.078125 0.390625q-1.921875 0 -2.9375 -0.796875q-1.0 -0.796875 -1.28125 -2.359375zm18.370789 6.9375q-1.375 -1.75 -2.328125 -4.078125q-0.953125 -2.34375 -0.953125 -4.84375q0 -2.21875 0.703125 -4.234375q0.84375 -2.34375 2.578125 -4.671875l1.203125 0q-1.125 1.921875 -1.484375 2.75q-0.5625 1.28125 -0.890625 2.671875q-0.40625 1.734375 -0.40625 3.484375q0 4.46875 2.78125 8.921875l-1.203125 0zm12.9470215 -8.765625l1.796875 0.453125q-0.5625 2.21875 -2.03125 3.390625q-1.46875 1.15625 -3.59375 1.15625q-2.203125 0 -3.578125 -0.890625q-1.375 -0.90625 -2.09375 -2.59375q-0.71875 -1.703125 -0.71875 -3.65625q0 -2.125 0.796875 -3.703125q0.8125 -1.578125 2.3125 -2.390625q1.5 -0.828125 3.296875 -0.828125q2.046875 0 3.4375 1.046875q1.390625 1.03125 1.9375 2.90625l-1.765625 0.421875q-0.46875 -1.484375 -1.375 -2.15625q-0.90625 -0.6875 -2.265625 -0.6875q-1.5625 0 -2.625 0.75q-1.046875 0.75 -1.484375 2.03125q-0.421875 1.265625 -0.421875 2.609375q0 1.734375 0.5 3.03125q0.515625 1.28125 1.578125 1.921875q1.078125 0.640625 2.3125 0.640625q1.515625 0 2.5625 -0.859375q1.046875 -0.875 1.421875 -2.59375zm2.9260864 -0.15625q0 -2.734375 1.53125 -4.0625q1.265625 -1.09375 3.09375 -1.09375q2.03125 0 3.3125 1.34375q1.296875 1.328125 1.296875 3.671875q0 1.90625 -0.578125 3.0q-0.5625 1.078125 -1.65625 1.6875q-1.078125 0.59375 -2.375 0.59375q-2.0625 0 -3.34375 -1.328125q-1.28125 -1.328125 -1.28125 -3.8125zm1.71875 0q0 1.890625 0.828125 2.828125q0.828125 0.9375 2.078125 0.9375q1.25 0 2.0625 -0.9375q0.828125 -0.953125 0.828125 -2.890625q0 -1.828125 -0.828125 -2.765625q-0.828125 -0.9375 -2.0625 -0.9375q-1.25 0 -2.078125 0.9375q-0.828125 0.9375 -0.828125 2.828125zm15.735107 4.921875l0 -1.453125q-1.140625 1.671875 -3.125 1.671875q-0.859375 0 -1.625 -0.328125q-0.75 -0.34375 -1.125 -0.84375q-0.359375 -0.5 -0.515625 -1.234375q-0.09375 -0.5 -0.09375 -1.5625l0 -6.109375l1.671875 0l0 5.46875q0 1.3125 0.09375 1.765625q0.15625 0.65625 0.671875 1.03125q0.515625 0.375 1.265625 0.375q0.75 0 1.40625 -0.375q0.65625 -0.390625 0.921875 -1.046875q0.28125 -0.671875 0.28125 -1.9375l0 -5.28125l1.671875 0l0 9.859375l-1.5 0zm3.9226074 0l0 -9.859375l1.5 0l0 1.40625q1.09375 -1.625 3.140625 -1.625q0.890625 0 1.640625 0.328125q0.75 0.3125 1.109375 0.84375q0.375 0.515625 0.53125 1.21875q0.09375 0.46875 0.09375 1.625l0 6.0625l-1.671875 0l0 -6.0q0 -1.015625 -0.203125 -1.515625q-0.1875 -0.515625 -0.6875 -0.8125q-0.5 -0.296875 -1.171875 -0.296875q-1.0625 0 -1.84375 0.671875q-0.765625 0.671875 -0.765625 2.578125l0 5.375l-1.671875 0zm14.031982 -1.5l0.234375 1.484375q-0.703125 0.140625 -1.265625 0.140625q-0.90625 0 -1.40625 -0.28125q-0.5 -0.296875 -0.703125 -0.75q-0.203125 -0.46875 -0.203125 -1.984375l0 -5.65625l-1.234375 0l0 -1.3125l1.234375 0l0 -2.4375l1.65625 -1.0l0 3.4375l1.6875 0l0 1.3125l-1.6875 0l0 5.75q0 0.71875 0.078125 0.921875q0.09375 0.203125 0.296875 0.328125q0.203125 0.125 0.578125 0.125q0.265625 0 0.734375 -0.078125zm-0.004211426 5.28125l0 -1.21875l11.0625 0l0 1.21875l-11.0625 0zm11.906982 0l0 -13.640625l1.53125 0l0 1.28125q0.53125 -0.75 1.203125 -1.125q0.6875 -0.375 1.640625 -0.375q1.265625 0 2.234375 0.65625q0.96875 0.640625 1.453125 1.828125q0.5 1.1875 0.5 2.59375q0 1.515625 -0.546875 2.734375q-0.546875 1.203125 -1.578125 1.84375q-1.03125 0.640625 -2.171875 0.640625q-0.84375 0 -1.515625 -0.34375q-0.65625 -0.359375 -1.078125 -0.890625l0 4.796875l-1.671875 0zm1.515625 -8.65625q0 1.90625 0.765625 2.8125q0.78125 0.90625 1.875 0.90625q1.109375 0 1.890625 -0.9375q0.796875 -0.9375 0.796875 -2.921875q0 -1.875 -0.78125 -2.8125q-0.765625 -0.9375 -1.84375 -0.9375q-1.0625 0 -1.890625 1.0q-0.8125 1.0 -0.8125 2.890625zm12.516357 3.375l0.234375 1.484375q-0.703125 0.140625 -1.265625 0.140625q-0.90625 0 -1.40625 -0.28125q-0.5 -0.296875 -0.703125 -0.75q-0.203125 -0.46875 -0.203125 -1.984375l0 -5.65625l-1.234375 0l0 -1.3125l1.234375 0l0 -2.4375l1.65625 -1.0l0 3.4375l1.6875 0l0 1.3125l-1.6875 0l0 5.75q0 0.71875 0.078125 0.921875q0.09375 0.203125 0.296875 0.328125q0.203125 0.125 0.578125 0.125q0.265625 0 0.734375 -0.078125zm1.5114136 1.5l0 -9.859375l1.5 0l0 1.5q0.578125 -1.046875 1.0625 -1.375q0.484375 -0.34375 1.078125 -0.34375q0.84375 0 1.71875 0.546875l-0.578125 1.546875q-0.609375 -0.359375 -1.234375 -0.359375q-0.546875 0 -0.984375 0.328125q-0.421875 0.328125 -0.609375 0.90625q-0.28125 0.890625 -0.28125 1.953125l0 5.15625l-1.671875 0zm7.3220825 4.0l-1.1875 0q2.765625 -4.453125 2.765625 -8.921875q0 -1.734375 -0.390625 -3.453125q-0.328125 -1.390625 -0.890625 -2.671875q-0.359375 -0.84375 -1.484375 -2.78125l1.1875 0q1.75 2.328125 2.578125 4.671875q0.71875 2.015625 0.71875 4.234375q0 2.5 -0.96875 4.84375q-0.953125 2.328125 -2.328125 4.078125zm5.5876465 -4.0l0 -1.90625l1.90625 0l0 1.90625l-1.90625 0z" fill-rule="nonzero"></path><path fill="#000000" fill-opacity="0.0" d="m854.8714 137.84514l43.149597 0l0 52.346466l-43.149597 0z" fill-rule="evenodd"></path><path fill="#000000" d="m870.77234 161.4164q0 -3.046875 0.625 -4.90625q0.625 -1.859375 1.859375 -2.859375q1.234375 -1.015625 3.109375 -1.015625q1.390625 0 2.421875 0.5625q1.046875 0.546875 1.71875 1.59375q0.6875 1.046875 1.078125 2.5625q0.390625 1.5 0.390625 4.0625q0 3.015625 -0.625 4.875q-0.625 1.859375 -1.859375 2.875q-1.234375 1.015625 -3.125 1.015625q-2.484375 0 -3.890625 -1.78125q-1.703125 -2.15625 -1.703125 -6.984375zm2.171875 0q0 4.21875 0.984375 5.625q0.984375 1.40625 2.4375 1.40625q1.453125 0 2.4375 -1.40625q1.0 -1.40625 1.0 -5.625q0 -4.25 -1.0 -5.640625q-0.984375 -1.390625 -2.453125 -1.390625q-1.453125 0 -2.328125 1.21875q-1.078125 1.578125 -1.078125 5.8125z" fill-rule="nonzero"></path><path fill="#000000" fill-opacity="0.0" d="m300.06824 137.84514l554.80316 0l0 52.346466l-554.80316 0z" fill-rule="evenodd"></path><path fill="#000000" d="m558.546 169.88515l0 -4.109375l-7.453125 0l0 -1.9375l7.828125 -11.140625l1.734375 0l0 11.140625l2.3125 0l0 1.9375l-2.3125 0l0 4.109375l-2.109375 0zm0 -6.046875l0 -7.75l-5.390625 7.75l5.390625 0zm6.7226562 -8.890625l0 -2.015625l11.125 0l0 1.640625q-1.640625 1.734375 -3.265625 4.640625q-1.609375 2.890625 -2.484375 5.953125q-0.625 2.15625 -0.8125 4.71875l-2.15625 0q0.03125 -2.03125 0.78125 -4.890625q0.765625 -2.875 2.1875 -5.546875q1.4375 -2.671875 3.03125 -4.5l-8.40625 0zm14.394531 14.9375l0 -2.40625l2.390625 0l0 2.40625l-2.390625 0zm6.6679688 0l0 -2.40625l2.390625 0l0 2.40625l-2.390625 0zm13.417969 0l-2.109375 0l0 -13.4375q-0.75 0.71875 -2.0 1.453125q-1.234375 0.71875 -2.21875 1.078125l0 -2.03125q1.78125 -0.828125 3.09375 -2.015625q1.328125 -1.1875 1.875 -2.296875l1.359375 0l0 17.25z" fill-rule="nonzero"></path><path fill="#000000" fill-opacity="0.0" d="m66.461945 137.84514l233.6063 0l0 52.346466l-233.6063 0z" fill-rule="evenodd"></path><path fill="#000000" d="m161.83931 156.9164l-2.09375 0.15625q-0.28125 -1.234375 -0.796875 -1.796875q-0.859375 -0.90625 -2.109375 -0.90625q-1.0 0 -1.765625 0.5625q-1.0 0.71875 -1.578125 2.125q-0.5625 1.390625 -0.59375 3.96875q0.765625 -1.15625 1.859375 -1.71875q1.109375 -0.5625 2.3125 -0.5625q2.109375 0 3.59375 1.546875q1.484375 1.546875 1.484375 4.015625q0 1.609375 -0.703125 3.0q-0.6875 1.390625 -1.90625 2.140625q-1.21875 0.734375 -2.765625 0.734375q-2.640625 0 -4.3125 -1.9375q-1.65625 -1.953125 -1.65625 -6.40625q0 -4.96875 1.84375 -7.234375q1.59375 -1.96875 4.3125 -1.96875q2.03125 0 3.328125 1.140625q1.296875 1.125 1.546875 3.140625zm-8.609375 7.40625q0 1.078125 0.453125 2.078125q0.46875 1.0 1.296875 1.53125q0.84375 0.515625 1.75 0.515625q1.34375 0 2.296875 -1.078125q0.96875 -1.078125 0.96875 -2.9375q0 -1.78125 -0.953125 -2.796875q-0.953125 -1.03125 -2.390625 -1.03125q-1.421875 0 -2.421875 1.03125q-1.0 1.015625 -1.0 2.6875zm11.035156 1.03125l2.109375 -0.28125q0.359375 1.78125 1.234375 2.578125q0.875 0.796875 2.125 0.796875q1.484375 0 2.5 -1.03125q1.03125 -1.03125 1.03125 -2.5625q0 -1.453125 -0.953125 -2.390625q-0.9375 -0.953125 -2.40625 -0.953125q-0.59375 0 -1.484375 0.234375l0.234375 -1.84375q0.203125 0.015625 0.34375 0.015625q1.34375 0 2.421875 -0.703125q1.078125 -0.703125 1.078125 -2.15625q0 -1.171875 -0.796875 -1.921875q-0.78125 -0.765625 -2.015625 -0.765625q-1.234375 0 -2.0625 0.78125q-0.8125 0.765625 -1.046875 2.3125l-2.109375 -0.375q0.390625 -2.125 1.75 -3.28125q1.375 -1.171875 3.421875 -1.171875q1.40625 0 2.578125 0.609375q1.1875 0.59375 1.8125 1.640625q0.640625 1.046875 0.640625 2.21875q0 1.109375 -0.609375 2.03125q-0.59375 0.90625 -1.765625 1.4375q1.53125 0.359375 2.375 1.46875q0.84375 1.109375 0.84375 2.765625q0 2.25 -1.640625 3.828125q-1.640625 1.5625 -4.15625 1.5625q-2.265625 0 -3.765625 -1.34375q-1.484375 -1.359375 -1.6875 -3.5zm14.519531 4.53125l0 -2.40625l2.390625 0l0 2.40625l-2.390625 0zm6.6679688 0l0 -2.40625l2.390625 0l0 2.40625l-2.390625 0zm12.246094 0l0 -4.109375l-7.453125 0l0 -1.9375l7.828125 -11.140625l1.734375 0l0 11.140625l2.3125 0l0 1.9375l-2.3125 0l0 4.109375l-2.109375 0zm0 -6.046875l0 -7.75l-5.390625 7.75l5.390625 0zm9.832031 -3.265625q-1.3125 -0.484375 -1.953125 -1.375q-0.625 -0.890625 -0.625 -2.140625q0 -1.875 1.34375 -3.140625q1.34375 -1.28125 3.578125 -1.28125q2.25 0 3.625 1.3125q1.375 1.296875 1.375 3.171875q0 1.203125 -0.625 2.09375q-0.625 0.875 -1.90625 1.359375q1.578125 0.515625 2.40625 1.671875q0.828125 1.140625 0.828125 2.734375q0 2.203125 -1.5625 3.703125q-1.5625 1.5 -4.09375 1.5q-2.546875 0 -4.109375 -1.5q-1.5625 -1.515625 -1.5625 -3.765625q0 -1.671875 0.84375 -2.796875q0.859375 -1.140625 2.4375 -1.546875zm-0.421875 -3.578125q0 1.21875 0.78125 2.0q0.78125 0.765625 2.03125 0.765625q1.21875 0 2.0 -0.765625q0.78125 -0.765625 0.78125 -1.890625q0 -1.15625 -0.8125 -1.9375q-0.796875 -0.796875 -1.984375 -0.796875q-1.203125 0 -2.0 0.78125q-0.796875 0.765625 -0.796875 1.84375zm-0.6875 7.9375q0 0.890625 0.421875 1.734375q0.4375 0.84375 1.28125 1.3125q0.84375 0.46875 1.8125 0.46875q1.515625 0 2.5 -0.96875q0.984375 -0.984375 0.984375 -2.484375q0 -1.515625 -1.015625 -2.515625q-1.015625 -1.0 -2.53125 -1.0q-1.5 0 -2.484375 0.984375q-0.96875 0.984375 -0.96875 2.46875z" fill-rule="nonzero"></path></g></svg>

