<?xml version="1.0" standalone="yes"?>

<svg version="1.1" viewBox="0.0 0.0 959.2808398950132 285.62729658792654" fill="none" stroke="none" stroke-linecap="square" stroke-miterlimit="10" xmlns="http://www.w3.org/2000/svg" xmlns:xlink="http://www.w3.org/1999/xlink"><clipPath id="p.0"><path d="m0 0l959.2808 0l0 285.6273l-959.2808 0l0 -285.6273z" clip-rule="nonzero"></path></clipPath><g clip-path="url(#p.0)"><path fill="#000000" fill-opacity="0.0" d="m0 0l959.2808 0l0 285.6273l-959.2808 0z" fill-rule="evenodd"></path><path fill="#000000" fill-opacity="0.0" d="m844.51447 77.637794l0 0c0 -5.7888184 -5.520935 -11.340546 -15.348145 -15.433857c-9.827209 -4.093315 -23.155823 -6.392914 -37.05359 -6.392914l-159.1336 0c-28.940674 0 -52.401672 -9.772179 -52.401672 -21.82677l0 0c0 12.054592 -23.46106 21.82677 -52.401733 21.82677l-159.13358 0c-28.940674 0 -52.401733 9.772175 -52.401733 21.82677z" fill-rule="evenodd"></path><path fill="#000000" fill-opacity="0.0" d="m844.51447 77.637794l0 0c0 -5.7888184 -5.520935 -11.340546 -15.348145 -15.433857c-9.827209 -4.093315 -23.155823 -6.392914 -37.05359 -6.392914l-159.1336 0c-28.940674 0 -52.401672 -9.772179 -52.401672 -21.82677l0 0c0 12.054592 -23.46106 21.82677 -52.401733 21.82677l-159.13358 0c-28.940674 0 -52.401733 9.772175 -52.401733 21.82677" fill-rule="evenodd"></path><path stroke="#000000" stroke-width="1.0" stroke-linejoin="round" stroke-linecap="butt" d="m844.51447 77.637794l0 0c0 -5.7888184 -5.520935 -11.340546 -15.348145 -15.433857c-9.827209 -4.093315 -23.155823 -6.392914 -37.05359 -6.392914l-159.1336 0c-28.940674 0 -52.401672 -9.772179 -52.401672 -21.82677l0 0c0 12.054592 -23.46106 21.82677 -52.401733 21.82677l-159.13358 0c-28.940674 0 -52.401733 9.772175 -52.401733 21.82677" fill-rule="evenodd"></path><path fill="#000000" fill-opacity="0.0" d="m300.9447 88.81102l556.0126 0l0 150.4252l-556.0126 0z" fill-rule="evenodd"></path><path stroke="#000000" stroke-width="2.0" stroke-linejoin="round" stroke-linecap="butt" d="m300.9447 88.81102l556.0126 0l0 150.4252l-556.0126 0z" fill-rule="evenodd"></path><path fill="#000000" fill-opacity="0.0" d="m66.462326 88.80052l234.48238 0l0 150.4252l-234.48238 0z" fill-rule="evenodd"></path><path stroke="#000000" stroke-width="2.0" stroke-linejoin="round" stroke-linecap="butt" d="m66.462326 88.80052l234.48238 0l0 150.4252l-234.48238 0z" fill-rule="evenodd"></path><path fill="#000000" fill-opacity="0.0" d="m856.9687 88.80052l41.062866 0l0 150.4252l-41.062866 0z" fill-rule="evenodd"></path><path stroke="#000000" stroke-width="2.0" stroke-linejoin="round" stroke-linecap="butt" d="m856.9687 88.80052l41.062866 0l0 150.4252l-41.062866 0z" fill-rule="evenodd"></path><path fill="#000000" fill-opacity="0.0" d="m289.47244 77.637794l0 0c0 -5.7888184 -5.520874 -11.340546 -15.348053 -15.433857c-9.827209 -4.093315 -23.155762 -6.392914 -37.053528 -6.392914l0 0l0 0c-28.940582 0 -52.401566 -9.772179 -52.401566 -21.82677l0 0c0 12.054592 -23.460983 21.82677 -52.40158 21.82677l0 0c-28.94059 0 -52.401573 9.772175 -52.401573 21.82677z" fill-rule="evenodd"></path><path fill="#000000" fill-opacity="0.0" d="m289.47244 77.637794l0 0c0 -5.7888184 -5.520874 -11.340546 -15.348053 -15.433857c-9.827209 -4.093315 -23.155762 -6.392914 -37.053528 -6.392914l0 0l0 0c-28.940582 0 -52.401566 -9.772179 -52.401566 -21.82677l0 0c0 12.054592 -23.460983 21.82677 -52.40158 21.82677l0 0c-28.94059 0 -52.401573 9.772175 -52.401573 21.82677" fill-rule="evenodd"></path><path stroke="#000000" stroke-width="1.0" stroke-linejoin="round" stroke-linecap="butt" d="m289.47244 77.637794l0 0c0 -5.7888184 -5.520874 -11.340546 -15.348053 -15.433857c-9.827209 -4.093315 -23.155762 -6.392914 -37.053528 -6.392914l0 0l0 0c-28.940582 0 -52.401566 -9.772179 -52.401566 -21.82677l0 0c0 12.054592 -23.460983 21.82677 -52.40158 21.82677l0 0c-28.94059 0 -52.401573 9.772175 -52.401573 21.82677" fill-rule="evenodd"></path><path fill="#000000" fill-opacity="0.0" d="m79.86614 0l209.6063 0l0 33.984253l-209.6063 0z" fill-rule="evenodd"></path><path fill="#000000" d="m112.10357 13.357498q1.765625 0 2.890625 0.9375q1.140625 0.9375 1.140625 2.609375q0 1.34375 -0.59375 2.234375q-0.578125 0.875 -1.765625 1.203125l0 0.03125q1.03125 0.203125 1.515625 0.96875q0.5 0.75 0.5625 2.59375q0.046875 1.1875 0.21875 1.859375q0.1875 0.671875 0.53125 1.125l-2.0 0q-0.171875 -0.21875 -0.234375 -0.4375q-0.046875 -0.21875 -0.09375 -0.609375l-0.0625 -1.484375q-0.03125 -1.046875 -0.453125 -2.125q-0.421875 -1.09375 -1.859375 -1.140625l-4.46875 0l0 5.796875l-1.796875 0l0 -13.5625l6.46875 0zm-0.8125 6.25q1.5 0 2.265625 -0.578125q0.78125 -0.59375 0.78125 -1.84375q0 -1.09375 -0.625 -1.703125q-0.609375 -0.609375 -1.71875 -0.609375l-4.5625 0l0 4.734375l3.859375 0zm10.936874 -2.734375q2.109375 0 3.28125 1.53125q1.171875 1.515625 1.171875 3.890625l0 0.203125l-7.359375 0l0 0.109375q0 1.40625 0.8125 2.265625q0.828125 0.84375 2.25 0.84375q1.078125 0 1.703125 -0.5q0.640625 -0.5 0.84375 -1.421875l1.59375 0q-0.328125 1.640625 -1.4375 2.5q-1.09375 0.859375 -2.75 0.859375q-1.5625 0 -2.640625 -0.703125q-1.0625 -0.703125 -1.578125 -1.953125q-0.5 -1.25 -0.5 -2.546875q0 -2.171875 1.296875 -3.625q1.3125 -1.453125 3.3125 -1.453125zm-2.90625 4.1875l5.640625 0q-0.078125 -1.1875 -0.875 -1.96875q-0.78125 -0.796875 -1.96875 -0.796875q-1.109375 0 -1.90625 0.75q-0.78125 0.75 -0.890625 2.015625zm10.551689 -7.703125l0 13.5625l-1.609375 0l0 -13.5625l1.609375 0zm6.676071 3.515625q2.234375 0 3.5 1.4375q1.265625 1.4375 1.265625 3.703125q0 2.296875 -1.296875 3.71875q-1.296875 1.421875 -3.46875 1.421875q-2.125 0 -3.453125 -1.390625q-1.3125 -1.40625 -1.3125 -3.75q0 -2.328125 1.28125 -3.734375q1.296875 -1.40625 3.484375 -1.40625zm-3.0625 5.140625q0 1.703125 0.859375 2.703125q0.875 1.0 2.203125 1.0q1.328125 0 2.1875 -1.0q0.875 -1.015625 0.875 -2.703125q0 -1.671875 -0.859375 -2.6875q-0.859375 -1.03125 -2.21875 -1.03125q-1.296875 0 -2.171875 1.015625q-0.875 1.0 -0.875 2.703125zm13.634644 -5.140625q1.796875 0 2.921875 0.859375q1.125 0.84375 1.328125 2.515625l-1.671875 0q-0.203125 -0.953125 -0.84375 -1.453125q-0.625 -0.5 -1.59375 -0.5q-1.5 0 -2.28125 1.015625q-0.78125 1.0 -0.78125 2.828125q0 1.625 0.765625 2.609375q0.78125 0.96875 2.109375 0.96875q1.171875 0 1.84375 -0.625q0.6875 -0.640625 0.84375 -1.765625l1.65625 0q-0.265625 1.84375 -1.390625 2.84375q-1.109375 0.984375 -2.9375 0.984375q-2.140625 0 -3.375 -1.34375q-1.21875 -1.359375 -1.21875 -3.671875q0 -2.421875 1.234375 -3.84375q1.234375 -1.421875 3.390625 -1.421875zm9.942322 0q2.0 0 2.84375 0.71875q0.84375 0.703125 0.84375 1.90625q0 5.109375 0 5.671875q0 0.546875 0.5 0.546875q0.109375 0 0.234375 -0.015625q0.140625 -0.03125 0.265625 -0.078125l0 1.265625q-0.234375 0.125 -0.53125 0.1875q-0.28125 0.078125 -0.625 0.078125q-0.671875 0 -1.03125 -0.375q-0.34375 -0.375 -0.34375 -1.15625q-0.640625 0.765625 -1.515625 1.15625q-0.859375 0.375 -1.9375 0.375q-1.53125 0 -2.390625 -0.71875q-0.859375 -0.71875 -0.859375 -2.046875q0 -1.3125 0.84375 -2.09375q0.84375 -0.78125 3.96875 -1.171875q1.0625 -0.125 1.4375 -0.390625q0.375 -0.28125 0.375 -0.8125q0 -0.828125 -0.53125 -1.21875q-0.515625 -0.40625 -1.65625 -0.40625q-1.203125 0 -1.796875 0.453125q-0.59375 0.453125 -0.640625 1.40625l-1.625 0q0.078125 -1.625 1.15625 -2.453125q1.078125 -0.828125 3.015625 -0.828125zm-2.84375 7.40625q0 0.6875 0.5 1.0625q0.5 0.375 1.40625 0.375q1.359375 0 2.171875 -0.671875q0.828125 -0.671875 0.828125 -1.515625l0 -1.6875q-0.40625 0.296875 -1.0625 0.40625q-0.65625 0.09375 -1.71875 0.234375q-1.078125 0.15625 -1.609375 0.59375q-0.515625 0.421875 -0.515625 1.203125zm11.082947 -10.125l0 2.9375l1.96875 0l0 1.4375l-1.96875 0l0 6.140625q0 0.734375 0.484375 0.78125q0.5 0.046875 1.03125 0.046875l0.453125 0l0 1.421875l-1.34375 0q-1.328125 0 -1.78125 -0.46875q-0.453125 -0.484375 -0.453125 -1.59375l0 -6.328125l-1.671875 0l0 -1.4375l1.671875 0l0 -2.9375l1.609375 0zm5.3443756 -0.796875l0 1.96875l-1.609375 0l0 -1.96875l1.609375 0zm0 3.734375l0 9.828125l-1.609375 0l0 -9.828125l1.609375 0zm6.676071 -0.21875q2.234375 0 3.5 1.4375q1.265625 1.4375 1.265625 3.703125q0 2.296875 -1.296875 3.71875q-1.296875 1.421875 -3.46875 1.421875q-2.125 0 -3.453125 -1.390625q-1.3125 -1.40625 -1.3125 -3.75q0 -2.328125 1.28125 -3.734375q1.296875 -1.40625 3.484375 -1.40625zm-3.0625 5.140625q0 1.703125 0.859375 2.703125q0.875 1.0 2.203125 1.0q1.328125 0 2.1875 -1.0q0.875 -1.015625 0.875 -2.703125q0 -1.671875 -0.859375 -2.6875q-0.859375 -1.03125 -2.21875 -1.03125q-1.296875 0 -2.171875 1.015625q-0.875 1.0 -0.875 2.703125zm14.290894 -5.140625q1.78125 0 2.578125 0.90625q0.8125 0.90625 0.8125 2.59375l0 6.546875l-1.625 0l0 -6.703125q0 -0.84375 -0.53125 -1.375q-0.53125 -0.546875 -1.484375 -0.546875q-1.359375 0 -2.125 0.84375q-0.765625 0.828125 -0.765625 2.171875l0 5.609375l-1.609375 0l0 -9.828125l1.515625 0l0 1.5625l0.046875 0q0.53125 -0.921875 1.3125 -1.34375q0.78125 -0.4375 1.875 -0.4375zm16.824646 -3.84375q2.25 0 3.765625 1.171875q1.53125 1.171875 1.828125 3.234375l-1.8125 0q-0.296875 -1.390625 -1.296875 -2.125q-1.0 -0.75 -2.5 -0.75q-2.15625 0 -3.375 1.515625q-1.21875 1.515625 -1.21875 3.96875q0 2.59375 1.1875 4.140625q1.203125 1.53125 3.421875 1.53125q1.65625 0 2.71875 -1.046875q1.0625 -1.046875 1.203125 -2.859375l1.796875 0q-0.296875 2.625 -1.828125 4.03125q-1.53125 1.40625 -4.03125 1.40625q-2.921875 0 -4.609375 -1.921875q-1.671875 -1.9375 -1.671875 -5.15625q0 -3.15625 1.734375 -5.140625q1.734375 -2.0 4.6875 -2.0zm11.691696 3.84375q2.234375 0 3.5 1.4375q1.265625 1.4375 1.265625 3.703125q0 2.296875 -1.296875 3.71875q-1.296875 1.421875 -3.46875 1.421875q-2.125 0 -3.453125 -1.390625q-1.3125 -1.40625 -1.3125 -3.75q0 -2.328125 1.28125 -3.734375q1.296875 -1.40625 3.484375 -1.40625zm-3.0625 5.140625q0 1.703125 0.859375 2.703125q0.875 1.0 2.203125 1.0q1.328125 0 2.1875 -1.0q0.875 -1.015625 0.875 -2.703125q0 -1.671875 -0.859375 -2.6875q-0.859375 -1.03125 -2.21875 -1.03125q-1.296875 0 -2.171875 1.015625q-0.875 1.0 -0.875 2.703125zm11.150269 -4.921875l0 6.703125q0 0.828125 0.53125 1.375q0.53125 0.546875 1.46875 0.546875q1.390625 0 2.140625 -0.84375q0.765625 -0.84375 0.765625 -2.171875l0 -5.609375l1.625 0l0 9.828125l-1.53125 0l0 -1.5625l-0.03125 0q-0.546875 0.9375 -1.359375 1.375q-0.796875 0.421875 -1.84375 0.421875q-1.71875 0 -2.546875 -0.890625q-0.828125 -0.890625 -0.828125 -2.625l0 -6.546875l1.609375 0zm13.516342 -0.21875q1.78125 0 2.578125 0.90625q0.8125 0.90625 0.8125 2.59375l0 6.546875l-1.625 0l0 -6.703125q0 -0.84375 -0.53125 -1.375q-0.53125 -0.546875 -1.484375 -0.546875q-1.359375 0 -2.125 0.84375q-0.765625 0.828125 -0.765625 2.171875l0 5.609375l-1.609375 0l0 -9.828125l1.515625 0l0 1.5625l0.046875 0q0.53125 -0.921875 1.3125 -1.34375q0.78125 -0.4375 1.875 -0.4375zm7.860092 -2.71875l0 2.9375l1.96875 0l0 1.4375l-1.96875 0l0 6.140625q0 0.734375 0.484375 0.78125q0.5 0.046875 1.03125 0.046875l0.453125 0l0 1.421875l-1.34375 0q-1.328125 0 -1.78125 -0.46875q-0.453125 -0.484375 -0.453125 -1.59375l0 -6.328125l-1.671875 0l0 -1.4375l1.671875 0l0 -2.9375l1.609375 0zm7.7193756 2.71875q2.1093903 0 3.2812653 1.53125q1.171875 1.515625 1.171875 3.890625l0 0.203125l-7.3593903 0l0 0.109375q0 1.40625 0.8125 2.265625q0.828125 0.84375 2.25 0.84375q1.078125 0 1.7031403 -0.5q0.640625 -0.5 0.84375 -1.421875l1.59375 0q-0.328125 1.640625 -1.4375 2.5q-1.09375 0.859375 -2.7500153 0.859375q-1.5625 0 -2.640625 -0.703125q-1.0625 -0.703125 -1.578125 -1.953125q-0.5 -1.25 -0.5 -2.546875q0 -2.171875 1.296875 -3.625q1.3125 -1.453125 3.3125 -1.453125zm-2.90625 4.1875l5.6406403 0q-0.078125 -1.1875 -0.875 -1.96875q-0.78126526 -0.796875 -1.9687653 -0.796875q-1.109375 0 -1.90625 0.75q-0.78125 0.75 -0.890625 2.015625zm13.739212 -4.203125q0.046875 0 0.09375 0q0.046875 0 0.125 0.015625l0 1.703125q-1.8125 0 -2.6875 0.96875q-0.859375 0.96875 -0.859375 2.984375l0 4.390625l-1.625 0l0 -9.828125l1.53125 0l0 2.078125l0.03125 0q0.5625 -1.171875 1.390625 -1.734375q0.828125 -0.578125 2.0 -0.578125z" fill-rule="nonzero"></path><path fill="#000000" fill-opacity="0.0" d="m316.6404 0l527.874 0l0 33.984253l-527.874 0z" fill-rule="evenodd"></path><path fill="#000000" d="m533.40576 13.357498l0 5.828125l7.140625 0l0 -5.828125l1.8125 0l0 13.5625l-1.8125 0l0 -6.21875l-7.140625 0l0 6.21875l-1.796875 0l0 -13.5625l1.796875 0zm15.426025 3.515625q2.0 0 2.84375 0.71875q0.84375 0.703125 0.84375 1.90625q0 5.109375 0 5.671875q0 0.546875 0.5 0.546875q0.109375 0 0.234375 -0.015625q0.140625 -0.03125 0.265625 -0.078125l0 1.265625q-0.234375 0.125 -0.53125 0.1875q-0.28125 0.078125 -0.625 0.078125q-0.671875 0 -1.03125 -0.375q-0.34375 -0.375 -0.34375 -1.15625q-0.640625 0.765625 -1.515625 1.15625q-0.859375 0.375 -1.9375 0.375q-1.53125 0 -2.390625 -0.71875q-0.859375 -0.71875 -0.859375 -2.046875q0 -1.3125 0.84375 -2.09375q0.84375 -0.78125 3.96875 -1.171875q1.0625 -0.125 1.4375 -0.390625q0.375 -0.28125 0.375 -0.8125q0 -0.828125 -0.53125 -1.21875q-0.515625 -0.40625 -1.65625 -0.40625q-1.203125 0 -1.796875 0.453125q-0.59375 0.453125 -0.640625 1.40625l-1.625 0q0.078125 -1.625 1.15625 -2.453125q1.078125 -0.828125 3.015625 -0.828125zm-2.84375 7.40625q0 0.6875 0.5 1.0625q0.5 0.375 1.40625 0.375q1.359375 0 2.171875 -0.671875q0.828125 -0.671875 0.828125 -1.515625l0 -1.6875q-0.40625 0.296875 -1.0625 0.40625q-0.65625 0.09375 -1.71875 0.234375q-1.078125 0.15625 -1.609375 0.59375q-0.515625 0.421875 -0.515625 1.203125zm12.114197 -7.40625q1.984375 0 2.9375 0.78125q0.96875 0.765625 1.0625 2.28125l-1.609375 0l0 -0.015625q-0.0625 -0.78125 -0.6875 -1.203125q-0.609375 -0.421875 -1.578125 -0.421875q-0.984375 0 -1.546875 0.328125q-0.5625 0.328125 -0.5625 0.921875q0 0.53125 0.5 0.875q0.5 0.34375 1.5 0.5625l1.515625 0.34375q1.4375 0.3125 2.171875 0.96875q0.75 0.65625 0.75 1.765625q0 1.4375 -1.125 2.265625q-1.125 0.828125 -3.0625 0.828125q-1.890625 0 -3.0 -0.84375q-1.09375 -0.84375 -1.171875 -2.484375l1.625 0q0.03125 0.90625 0.71875 1.40625q0.703125 0.484375 1.921875 0.484375q1.171875 0 1.765625 -0.359375q0.609375 -0.375 0.609375 -1.09375q0 -0.671875 -0.609375 -1.046875q-0.59375 -0.390625 -2.4375 -0.765625q-1.859375 -0.359375 -2.625 -1.015625q-0.75 -0.671875 -0.75 -1.765625q0 -1.296875 1.046875 -2.046875q1.046875 -0.75 2.640625 -0.75zm7.671875 -3.515625l0 5.1875l0.03125 0q0.359375 -0.796875 1.203125 -1.234375q0.84375 -0.4375 1.90625 -0.4375q1.78125 0 2.578125 0.90625q0.8125 0.90625 0.8125 2.59375l0 6.546875l-1.625 0l0 -6.703125q0 -0.84375 -0.53125 -1.375q-0.53125 -0.546875 -1.484375 -0.546875q-1.359375 0 -2.125 0.84375q-0.765625 0.828125 -0.765625 2.171875l0 5.609375l-1.609375 0l0 -13.5625l1.609375 0zm17.047607 14.984375l0 0.953125l-9.5 0l0 -0.953125l9.5 0zm5.125 -11.46875q2.109375 0 3.28125 1.53125q1.171875 1.515625 1.171875 3.890625l0 0.203125l-7.359375 0l0 0.109375q0 1.40625 0.8125 2.265625q0.828125 0.84375 2.25 0.84375q1.078125 0 1.703125 -0.5q0.640625 -0.5 0.84375 -1.421875l1.59375 0q-0.328125 1.640625 -1.4375 2.5q-1.09375 0.859375 -2.75 0.859375q-1.5625 0 -2.640625 -0.703125q-1.0625 -0.703125 -1.578125 -1.953125q-0.5 -1.25 -0.5 -2.546875q0 -2.171875 1.296875 -3.625q1.3125 -1.453125 3.3125 -1.453125zm-2.90625 4.1875l5.640625 0q-0.078125 -1.1875 -0.875 -1.96875q-0.78125 -0.796875 -1.96875 -0.796875q-1.109375 0 -1.90625 0.75q-0.78125 0.75 -0.890625 2.015625zm13.598572 -4.1875q1.78125 0 2.578125 0.90625q0.8125 0.90625 0.8125 2.59375l0 6.546875l-1.625 0l0 -6.703125q0 -0.84375 -0.53125 -1.375q-0.53125 -0.546875 -1.484375 -0.546875q-1.359375 0 -2.125 0.84375q-0.765625 0.828125 -0.765625 2.171875l0 5.609375l-1.609375 0l0 -9.828125l1.515625 0l0 1.5625l0.046875 0q0.53125 -0.921875 1.3125 -1.34375q0.78125 -0.4375 1.875 -0.4375zm7.8601074 -2.71875l0 2.9375l1.96875 0l0 1.4375l-1.96875 0l0 6.140625q0 0.734375 0.484375 0.78125q0.5 0.046875 1.03125 0.046875l0.453125 0l0 1.421875l-1.34375 0q-1.328125 0 -1.78125 -0.46875q-0.453125 -0.484375 -0.453125 -1.59375l0 -6.328125l-1.671875 0l0 -1.4375l1.671875 0l0 -2.9375l1.609375 0zm8.53186 2.703125q0.046875 0 0.09375 0q0.046875 0 0.125 0.015625l0 1.703125q-1.8125 0 -2.6875 0.96875q-0.859375 0.96875 -0.859375 2.984375l0 4.390625l-1.625 0l0 -9.828125l1.53125 0l0 2.078125l0.03125 0q0.5625 -1.171875 1.390625 -1.734375q0.828125 -0.578125 2.0 -0.578125zm2.0720825 0.234375l2.875 8.03125l0.03125 0l2.765625 -8.03125l1.71875 0l-4.1875 10.875q-0.65625 1.703125 -1.265625 2.296875q-0.609375 0.59375 -1.671875 0.59375q-0.296875 0 -0.578125 -0.046875q-0.28125 -0.03125 -0.546875 -0.125l0 -1.484375q0.234375 0.078125 0.46875 0.140625q0.234375 0.078125 0.46875 0.078125q0.984375 0 1.375 -0.984375q0.390625 -0.984375 0.625 -1.578125l-3.890625 -9.765625l1.8125 0zm10.171875 -3.734375l1.015625 0l0 2.140625l2.03125 -0.765625l0.375 0.921875l-2.0625 0.71875l1.25 1.734375l-0.78125 0.578125l-1.3125 -1.8125l-1.234375 1.8125l-0.859375 -0.578125l1.234375 -1.734375l-2.015625 -0.71875l0.34375 -0.921875l2.015625 0.765625l0 -2.140625z" fill-rule="nonzero"></path><path fill="#000000" fill-opacity="0.0" d="m61.28609 239.23622l831.5591 0l0 59.05513l-831.5591 0z" fill-rule="evenodd"></path><path fill="#000000" d="m235.4989 252.59372l0 2.5l-6.546875 0l0 3.140625l5.671875 0l0 2.3125l-5.671875 0l0 5.609375l-2.984375 0l0 -13.5625l9.53125 0zm4.0120544 0l0 2.21875l-2.6875 0l0 -2.21875l2.6875 0zm0 3.734375l0 9.828125l-2.6875 0l0 -9.828125l2.6875 0zm5.9504395 -0.25q1.078125 0 1.78125 0.40625q0.703125 0.390625 1.15625 1.15625l0.03125 0l0 -1.3125l2.5625 0l0 9.28125q0 1.96875 -1.265625 3.109375q-1.25 1.15625 -3.8125 1.15625q-1.734375 0 -2.984375 -0.828125q-1.234375 -0.828125 -1.359375 -2.328125l2.671875 0q0.1875 0.71875 0.703125 1.03125q0.515625 0.328125 1.3125 0.328125q1.03125 0 1.59375 -0.625q0.578125 -0.625 0.578125 -1.75l0 -1.359375l-0.03125 0q-0.40625 0.734375 -1.1875 1.140625q-0.765625 0.390625 -1.765625 0.390625q-1.984375 0 -3.09375 -1.3125q-1.109375 -1.328125 -1.109375 -3.625q0 -2.078125 1.15625 -3.46875q1.15625 -1.390625 3.0625 -1.390625zm-1.515625 4.8125q0 1.390625 0.5625 2.171875q0.578125 0.78125 1.625 0.78125q1.0625 0 1.671875 -0.78125q0.625 -0.78125 0.625 -1.953125q0 -1.4375 -0.59375 -2.21875q-0.578125 -0.78125 -1.71875 -0.78125q-1.0 0 -1.59375 0.765625q-0.578125 0.75 -0.578125 2.015625zm11.692856 -4.5625l0 5.640625q0 1.109375 0.39064026 1.71875q0.390625 0.609375 1.34375 0.609375q1.109375 0 1.59375 -0.671875q0.5 -0.671875 0.5 -2.046875l0 -5.25l2.703125 0l0 9.828125l-2.578125 0l0 -1.359375l-0.0625 0q-0.5 0.8125 -1.3125 1.21875q-0.796875 0.40625 -1.6875 0.40625q-1.8281403 0 -2.7031403 -0.921875q-0.875 -0.9375 -0.875 -3.015625l0 -6.15625l2.6875 0zm14.090195 -0.25q0.1875 0 0.328125 0.03125q0.15625 0.015625 0.28125 0.0625l0 2.5q-0.234375 -0.046875 -0.453125 -0.0625q-0.21875 -0.03125 -0.515625 -0.03125q-1.359375 0 -2.015625 0.84375q-0.65625 0.828125 -0.65625 2.21875l0 4.515625l-2.6875 0l0 -9.828125l2.5625 0l0 1.828125l0.03125 0q0.421875 -0.96875 1.265625 -1.515625q0.859375 -0.5625 1.859375 -0.5625zm6.072754 0q2.1875 0 3.484375 1.5q1.3125 1.484375 1.3125 3.8125l-0.03125 0.5l-7.078125 0q0.046875 1.28125 0.65625 1.890625q0.609375 0.609375 1.75 0.609375q0.734375 0 1.34375 -0.375q0.625 -0.375 0.796875 -0.90625l2.375 0q-0.546875 1.671875 -1.6875 2.5q-1.140625 0.8125 -2.921875 0.8125q-2.265625 0 -3.640625 -1.4375q-1.375 -1.4375 -1.375 -3.734375q0 -2.1875 1.40625 -3.671875q1.40625 -1.5 3.609375 -1.5zm-2.3125 4.109375l4.390625 0q-0.203125 -1.078125 -0.71875 -1.578125q-0.5 -0.5 -1.453125 -0.5q-0.984375 0 -1.5625 0.5625q-0.5625 0.546875 -0.65625 1.515625zm17.880463 -7.59375q1.8125 0 3.140625 1.046875q1.34375 1.046875 1.34375 2.640625q0 0.953125 -0.484375 1.6875q-0.46875 0.734375 -1.390625 1.03125l0 0.03125q1.125 0.265625 1.734375 1.09375q0.625 0.8125 0.625 1.9375q0 1.9375 -1.4375 3.15625q-1.421875 1.203125 -3.5 1.203125q-2.25 0 -3.59375 -1.265625q-1.34375 -1.265625 -1.34375 -3.421875l0 -0.15625l2.5625 0q0.0625 1.25 0.671875 1.9375q0.609375 0.6875 1.65625 0.6875q0.96875 0 1.5625 -0.59375q0.609375 -0.609375 0.609375 -1.5q0 -0.984375 -0.59375 -1.46875q-0.578125 -0.5 -2.1875 -0.5l-0.296875 0l0 -1.90625l0.453125 0.015625q1.140625 0 1.75 -0.4375q0.625 -0.4375 0.625 -1.234375q0 -0.796875 -0.53125 -1.28125q-0.53125 -0.484375 -1.34375 -0.484375q-0.921875 0 -1.484375 0.59375q-0.546875 0.59375 -0.578125 1.78125l-2.546875 0q0.0625 -2.09375 1.3125 -3.34375q1.265625 -1.25 3.265625 -1.25zm9.266327 10.640625l0 2.921875l-2.984375 0l0 -2.921875l2.984375 0z" fill-rule="nonzero"></path><path fill="#000000" d="m314.3931 252.59372q1.859375 0 2.96875 1.015625q1.109375 1.0 1.109375 2.984375q0 2.0 -1.109375 3.015625q-1.109375 1.0 -2.84375 1.0l-4.359375 0l0 5.546875l-1.796875 0l0 -13.5625l6.03125 0zm-0.5 6.5q1.28125 0 2.015625 -0.609375q0.75 -0.609375 0.75 -1.890625q0 -1.25 -0.734375 -1.859375q-0.71875 -0.625 -2.140625 -0.625l-3.625 0l0 4.984375l3.734375 0zm10.525818 -2.984375q2.234375 0 3.5 1.4375q1.265625 1.4375 1.265625 3.703125q0 2.296875 -1.296875 3.71875q-1.296875 1.421875 -3.46875 1.421875q-2.125 0 -3.453125 -1.390625q-1.3125 -1.40625 -1.3125 -3.75q0 -2.328125 1.28125 -3.734375q1.296875 -1.40625 3.484375 -1.40625zm-3.0625 5.140625q0 1.703125 0.859375 2.703125q0.875 1.0 2.203125 1.0q1.328125 0 2.1875 -1.0q0.875 -1.015625 0.875 -2.703125q0 -1.671875 -0.859375 -2.6875q-0.859375 -1.03125 -2.21875 -1.03125q-1.296875 0 -2.171875 1.015625q-0.875 1.0 -0.875 2.703125zm11.244019 -8.65625l0 1.96875l-1.609375 0l0 -1.96875l1.609375 0zm0 3.734375l0 9.828125l-1.609375 0l0 -9.828125l1.609375 0zm7.1917114 -0.21875q1.78125 0 2.578125 0.90625q0.8125 0.90625 0.8125 2.59375l0 6.546875l-1.625 0l0 -6.703125q0 -0.84375 -0.53125 -1.375q-0.53125 -0.546875 -1.484375 -0.546875q-1.359375 0 -2.125 0.84375q-0.765625 0.828125 -0.765625 2.171875l0 5.609375l-1.609375 0l0 -9.828125l1.515625 0l0 1.5625l0.046875 0q0.53125 -0.921875 1.3125 -1.34375q0.78125 -0.4375 1.875 -0.4375zm7.860077 -2.71875l0 2.9375l1.96875 0l0 1.4375l-1.96875 0l0 6.140625q0 0.734375 0.484375 0.78125q0.5 0.046875 1.03125 0.046875l0.453125 0l0 1.421875l-1.34375 0q-1.328125 0 -1.78125 -0.46875q-0.453125 -0.484375 -0.453125 -1.59375l0 -6.328125l-1.671875 0l0 -1.4375l1.671875 0l0 -2.9375l1.609375 0zm7.719391 2.71875q2.109375 0 3.28125 1.53125q1.171875 1.515625 1.171875 3.890625l0 0.203125l-7.359375 0l0 0.109375q0 1.40625 0.8125 2.265625q0.828125 0.84375 2.25 0.84375q1.078125 0 1.703125 -0.5q0.640625 -0.5 0.84375 -1.421875l1.59375 0q-0.328125 1.640625 -1.4375 2.5q-1.09375 0.859375 -2.75 0.859375q-1.5625 0 -2.640625 -0.703125q-1.0625 -0.703125 -1.578125 -1.953125q-0.5 -1.25 -0.5 -2.546875q0 -2.171875 1.296875 -3.625q1.3125 -1.453125 3.3125 -1.453125zm-2.90625 4.1875l5.640625 0q-0.078125 -1.1875 -0.875 -1.96875q-0.78125 -0.796875 -1.96875 -0.796875q-1.109375 0 -1.90625 0.75q-0.78125 0.75 -0.890625 2.015625zm13.739197 -4.203125q0.046875 0 0.09375 0q0.046875 0 0.125 0.015625l0 1.703125q-1.8125 0 -2.6875 0.96875q-0.859375 0.96875 -0.859375 2.984375l0 4.390625l-1.625 0l0 -9.828125l1.53125 0l0 2.078125l0.03125 0q0.5625 -1.171875 1.390625 -1.734375q0.828125 -0.578125 2.0 -0.578125zm9.770966 0.015625q1.984375 0 2.9375 0.78125q0.96875 0.765625 1.0625 2.28125l-1.609375 0l0 -0.015625q-0.0625 -0.78125 -0.6875 -1.203125q-0.609375 -0.421875 -1.578125 -0.421875q-0.984375 0 -1.546875 0.328125q-0.5625 0.328125 -0.5625 0.921875q0 0.53125 0.5 0.875q0.5 0.34375 1.5 0.5625l1.515625 0.34375q1.4375 0.3125 2.171875 0.96875q0.75 0.65625 0.75 1.765625q0 1.4375 -1.125 2.265625q-1.125 0.828125 -3.0625 0.828125q-1.890625 0 -3.0 -0.84375q-1.09375 -0.84375 -1.171875 -2.484375l1.625 0q0.03125 0.90625 0.71875 1.40625q0.703125 0.484375 1.921875 0.484375q1.171875 0 1.765625 -0.359375q0.609375 -0.375 0.609375 -1.09375q0 -0.671875 -0.609375 -1.046875q-0.59375 -0.390625 -2.4375 -0.765625q-1.859375 -0.359375 -2.625 -1.015625q-0.75 -0.671875 -0.75 -1.765625q0 -1.296875 1.046875 -2.046875q1.046875 -0.75 2.640625 -0.75zm8.296875 -2.71875l0 2.9375l1.96875 0l0 1.4375l-1.96875 0l0 6.140625q0 0.734375 0.484375 0.78125q0.5 0.046875 1.03125 0.046875l0.453125 0l0 1.421875l-1.34375 0q-1.328125 0 -1.78125 -0.46875q-0.453125 -0.484375 -0.453125 -1.59375l0 -6.328125l-1.671875 0l0 -1.4375l1.671875 0l0 -2.9375l1.609375 0zm8.531891 2.703125q0.046875 0 0.09375 0q0.046875 0 0.125 0.015625l0 1.703125q-1.8125 0 -2.6875 0.96875q-0.859375 0.96875 -0.859375 2.984375l0 4.390625l-1.625 0l0 -9.828125l1.53125 0l0 2.078125l0.03125 0q0.5625 -1.171875 1.390625 -1.734375q0.828125 -0.578125 2.0 -0.578125zm2.9313965 0.234375l0 6.703125q0 0.828125 0.53125 1.375q0.53125 0.546875 1.46875 0.546875q1.390625 0 2.140625 -0.84375q0.765625 -0.84375 0.765625 -2.171875l0 -5.609375l1.625 0l0 9.828125l-1.53125 0l0 -1.5625l-0.03125 0q-0.546875 0.9375 -1.359375 1.375q-0.796875 0.421875 -1.84375 0.421875q-1.71875 0 -2.546875 -0.890625q-0.828125 -0.890625 -0.828125 -2.625l0 -6.546875l1.609375 0zm12.860107 -0.21875q1.796875 0 2.921875 0.859375q1.125 0.84375 1.328125 2.515625l-1.671875 0q-0.203125 -0.953125 -0.84375 -1.453125q-0.625 -0.5 -1.59375 -0.5q-1.5 0 -2.28125 1.015625q-0.78125 1.0 -0.78125 2.828125q0 1.625 0.765625 2.609375q0.78125 0.96875 2.109375 0.96875q1.171875 0 1.84375 -0.625q0.6875 -0.640625 0.84375 -1.765625l1.65625 0q-0.265625 1.84375 -1.390625 2.84375q-1.109375 0.984375 -2.9375 0.984375q-2.140625 0 -3.375 -1.34375q-1.21875 -1.359375 -1.21875 -3.671875q0 -2.421875 1.234375 -3.84375q1.234375 -1.421875 3.390625 -1.421875zm8.161072 -2.71875l0 2.9375l1.96875 0l0 1.4375l-1.96875 0l0 6.140625q0 0.734375 0.484375 0.78125q0.5 0.046875 1.03125 0.046875l0.453125 0l0 1.421875l-1.34375 0q-1.328125 0 -1.78125 -0.46875q-0.453125 -0.484375 -0.453125 -1.59375l0 -6.328125l-1.671875 0l0 -1.4375l1.671875 0l0 -2.9375l1.609375 0zm5.2506104 2.9375l0 6.703125q0 0.828125 0.53125 1.375q0.53125 0.546875 1.46875 0.546875q1.390625 0 2.140625 -0.84375q0.765625 -0.84375 0.765625 -2.171875l0 -5.609375l1.625 0l0 9.828125l-1.53125 0l0 -1.5625l-0.03125 0q-0.546875 0.9375 -1.359375 1.375q-0.796875 0.421875 -1.84375 0.421875q-1.71875 0 -2.546875 -0.890625q-0.828125 -0.890625 -0.828125 -2.625l0 -6.546875l1.609375 0zm13.656982 -0.234375q0.046875 0 0.09375 0q0.046875 0 0.125 0.015625l0 1.703125q-1.8125 0 -2.6875 0.96875q-0.859375 0.96875 -0.859375 2.984375l0 4.390625l-1.625 0l0 -9.828125l1.53125 0l0 2.078125l0.03125 0q0.5625 -1.171875 1.390625 -1.734375q0.828125 -0.578125 2.0 -0.578125zm5.400177 0.015625q2.109375 0 3.28125 1.53125q1.171875 1.515625 1.171875 3.890625l0 0.203125l-7.359375 0l0 0.109375q0 1.40625 0.8125 2.265625q0.828125 0.84375 2.25 0.84375q1.078125 0 1.703125 -0.5q0.640625 -0.5 0.84375 -1.421875l1.59375 0q-0.328125 1.640625 -1.4375 2.5q-1.09375 0.859375 -2.75 0.859375q-1.5625 0 -2.640625 -0.703125q-1.0625 -0.703125 -1.578125 -1.953125q-0.5 -1.25 -0.5 -2.546875q0 -2.171875 1.296875 -3.625q1.3125 -1.453125 3.3125 -1.453125zm-2.90625 4.1875l5.640625 0q-0.078125 -1.1875 -0.875 -1.96875q-0.78125 -0.796875 -1.96875 -0.796875q-1.109375 0 -1.90625 0.75q-0.78125 0.75 -0.890625 2.015625zm17.391266 -7.859375q0.203125 0 0.53125 0.046875q0.34375 0.046875 0.53125 0.109375l0 1.40625q-0.1875 -0.078125 -0.453125 -0.109375q-0.265625 -0.03125 -0.453125 -0.03125q-0.6875 0 -0.96875 0.28125q-0.265625 0.28125 -0.265625 0.78125l0 1.40625l1.90625 0l0 1.4375l-1.90625 0l0 8.390625l-1.609375 0l0 -8.390625l-1.65625 0l0 -1.4375l1.65625 0l0 -1.53125q0 -1.078125 0.671875 -1.71875q0.6875 -0.640625 2.015625 -0.640625zm6.3953247 3.671875q2.234375 0 3.5 1.4375q1.265625 1.4375 1.265625 3.703125q0 2.296875 -1.296875 3.71875q-1.296875 1.421875 -3.46875 1.421875q-2.125 0 -3.453125 -1.390625q-1.3125 -1.40625 -1.3125 -3.75q0 -2.328125 1.28125 -3.734375q1.296875 -1.40625 3.484375 -1.40625zm-3.0625 5.140625q0 1.703125 0.859375 2.703125q0.875 1.0 2.203125 1.0q1.328125 0 2.1875 -1.0q0.875 -1.015625 0.875 -2.703125q0 -1.671875 -0.859375 -2.6875q-0.859375 -1.03125 -2.21875 -1.03125q-1.296875 0 -2.171875 1.015625q-0.875 1.0 -0.875 2.703125zm14.431519 -5.15625q0.046875 0 0.09375 0q0.046875 0 0.125 0.015625l0 1.703125q-1.8125 0 -2.6875 0.96875q-0.859375 0.96875 -0.859375 2.984375l0 4.390625l-1.625 0l0 -9.828125l1.53125 0l0 2.078125l0.03125 0q0.5625 -1.171875 1.390625 -1.734375q0.828125 -0.578125 2.0 -0.578125zm8.114746 -3.5l0 5.1875l0.03125 0q0.359375 -0.796875 1.203125 -1.234375q0.84375 -0.4375 1.90625 -0.4375q1.78125 0 2.578125 0.90625q0.8125 0.90625 0.8125 2.59375l0 6.546875l-1.625 0l0 -6.703125q0 -0.84375 -0.53125 -1.375q-0.53125 -0.546875 -1.484375 -0.546875q-1.359375 0 -2.125 0.84375q-0.765625 0.828125 -0.765625 2.171875l0 5.609375l-1.609375 0l0 -13.5625l1.609375 0zm12.781982 3.515625q2.0 0 2.84375 0.71875q0.84375 0.703125 0.84375 1.90625q0 5.109375 0 5.671875q0 0.546875 0.5 0.546875q0.109375 0 0.234375 -0.015625q0.140625 -0.03125 0.265625 -0.078125l0 1.265625q-0.234375 0.125 -0.53125 0.1875q-0.28125 0.078125 -0.625 0.078125q-0.671875 0 -1.03125 -0.375q-0.34375 -0.375 -0.34375 -1.15625q-0.640625 0.765625 -1.515625 1.15625q-0.859375 0.375 -1.9375 0.375q-1.53125 0 -2.390625 -0.71875q-0.859375 -0.71875 -0.859375 -2.046875q0 -1.3125 0.84375 -2.09375q0.84375 -0.78125 3.96875 -1.171875q1.0625 -0.125 1.4375 -0.390625q0.375 -0.28125 0.375 -0.8125q0 -0.828125 -0.53125 -1.21875q-0.515625 -0.40625 -1.65625 -0.40625q-1.203125 0 -1.796875 0.453125q-0.59375 0.453125 -0.640625 1.40625l-1.625 0q0.078125 -1.625 1.15625 -2.453125q1.078125 -0.828125 3.015625 -0.828125zm-2.84375 7.40625q0 0.6875 0.5 1.0625q0.5 0.375 1.40625 0.375q1.359375 0 2.171875 -0.671875q0.828125 -0.671875 0.828125 -1.515625l0 -1.6875q-0.40625 0.296875 -1.0625 0.40625q-0.65625 0.09375 -1.71875 0.234375q-1.078125 0.15625 -1.609375 0.59375q-0.515625 0.421875 -0.515625 1.203125zm12.114197 -7.40625q1.984375 0 2.9375 0.78125q0.96875 0.765625 1.0625 2.28125l-1.609375 0l0 -0.015625q-0.0625 -0.78125 -0.6875 -1.203125q-0.609375 -0.421875 -1.578125 -0.421875q-0.984375 0 -1.546875 0.328125q-0.5625 0.328125 -0.5625 0.921875q0 0.53125 0.5 0.875q0.5 0.34375 1.5 0.5625l1.515625 0.34375q1.4375 0.3125 2.171875 0.96875q0.75 0.65625 0.75 1.765625q0 1.4375 -1.125 2.265625q-1.125 0.828125 -3.0625 0.828125q-1.890625 0 -3.0 -0.84375q-1.09375 -0.84375 -1.171875 -2.484375l1.625 0q0.03125 0.90625 0.71875 1.40625q0.703125 0.484375 1.921875 0.484375q1.171875 0 1.765625 -0.359375q0.609375 -0.375 0.609375 -1.09375q0 -0.671875 -0.609375 -1.046875q-0.59375 -0.390625 -2.4375 -0.765625q-1.859375 -0.359375 -2.625 -1.015625q-0.75 -0.671875 -0.75 -1.765625q0 -1.296875 1.046875 -2.046875q1.046875 -0.75 2.640625 -0.75zm7.671875 -3.515625l0 5.1875l0.03125 0q0.359375 -0.796875 1.2030945 -1.234375q0.84375 -0.4375 1.90625 -0.4375q1.78125 0 2.578125 0.90625q0.8125 0.90625 0.8125 2.59375l0 6.546875l-1.625 0l0 -6.703125q0 -0.84375 -0.53125 -1.375q-0.53125 -0.546875 -1.484375 -0.546875q-1.359375 0 -2.1249695 0.84375q-0.765625 0.828125 -0.765625 2.171875l0 5.609375l-1.609375 0l0 -13.5625l1.609375 0zm16.18399 0.796875l0 2.9375l1.96875 0l0 1.4375l-1.96875 0l0 6.140625q0 0.734375 0.484375 0.78125q0.5 0.046875 1.03125 0.046875l0.453125 0l0 1.421875l-1.34375 0q-1.328125 0 -1.78125 -0.46875q-0.453125 -0.484375 -0.453125 -1.59375l0 -6.328125l-1.671875 0l0 -1.4375l1.671875 0l0 -2.9375l1.609375 0zm7.6568604 2.71875q2.0 0 2.84375 0.71875q0.84375 0.703125 0.84375 1.90625q0 5.109375 0 5.671875q0 0.546875 0.5 0.546875q0.109375 0 0.234375 -0.015625q0.140625 -0.03125 0.265625 -0.078125l0 1.265625q-0.234375 0.125 -0.53125 0.1875q-0.28125 0.078125 -0.625 0.078125q-0.671875 0 -1.03125 -0.375q-0.34375 -0.375 -0.34375 -1.15625q-0.640625 0.765625 -1.515625 1.15625q-0.859375 0.375 -1.9375 0.375q-1.53125 0 -2.390625 -0.71875q-0.859375 -0.71875 -0.859375 -2.046875q0 -1.3125 0.84375 -2.09375q0.84375 -0.78125 3.96875 -1.171875q1.0625 -0.125 1.4375 -0.390625q0.375 -0.28125 0.375 -0.8125q0 -0.828125 -0.53125 -1.21875q-0.515625 -0.40625 -1.65625 -0.40625q-1.203125 0 -1.796875 0.453125q-0.59375 0.453125 -0.640625 1.40625l-1.625 0q0.078125 -1.625 1.15625 -2.453125q1.078125 -0.828125 3.015625 -0.828125zm-2.84375 7.40625q0 0.6875 0.5 1.0625q0.5 0.375 1.40625 0.375q1.359375 0 2.171875 -0.671875q0.828125 -0.671875 0.828125 -1.515625l0 -1.6875q-0.40625 0.296875 -1.0625 0.40625q-0.65625 0.09375 -1.71875 0.234375q-1.078125 0.15625 -1.609375 0.59375q-0.515625 0.421875 -0.515625 1.203125zm10.520447 -10.921875l0 5.078125l0.03125 0q0.375 -0.765625 1.1875 -1.15625q0.8125 -0.40625 1.953125 -0.40625q2.109375 0 3.3125 1.453125q1.203125 1.4375 1.203125 3.71875q0 2.28125 -1.203125 3.703125q-1.203125 1.40625 -3.265625 1.40625q-0.921875 0 -1.796875 -0.375q-0.875 -0.390625 -1.390625 -1.171875l-0.03125 0l0 1.3125l-1.625 0l0 -13.5625l1.625 0zm-0.0625 8.640625q0 1.71875 0.828125 2.71875q0.828125 1.0 2.265625 1.0q1.40625 0 2.171875 -1.0q0.78125 -1.0 0.78125 -2.78125q0 -1.59375 -0.8125 -2.609375q-0.8125 -1.03125 -2.25 -1.03125q-1.421875 0 -2.203125 1.046875q-0.78125 1.03125 -0.78125 2.65625zm11.15271 -8.640625l0 13.5625l-1.609375 0l0 -13.5625l1.609375 0zm6.5197754 3.515625q2.109375 0 3.28125 1.53125q1.171875 1.515625 1.171875 3.890625l0 0.203125l-7.359375 0l0 0.109375q0 1.40625 0.8125 2.265625q0.828125 0.84375 2.25 0.84375q1.078125 0 1.703125 -0.5q0.640625 -0.5 0.84375 -1.421875l1.59375 0q-0.328125 1.640625 -1.4375 2.5q-1.09375 0.859375 -2.75 0.859375q-1.5625 0 -2.640625 -0.703125q-1.0625 -0.703125 -1.578125 -1.953125q-0.5 -1.25 -0.5 -2.546875q0 -2.171875 1.296875 -3.625q1.3125 -1.453125 3.3125 -1.453125zm-2.90625 4.1875l5.640625 0q-0.078125 -1.1875 -0.875 -1.96875q-0.78125 -0.796875 -1.96875 -0.796875q-1.109375 0 -1.90625 0.75q-0.78125 0.75 -0.890625 2.015625zm18.109985 -4.1875q2.109375 0 3.28125 1.53125q1.171875 1.515625 1.171875 3.890625l0 0.203125l-7.359375 0l0 0.109375q0 1.40625 0.8125 2.265625q0.828125 0.84375 2.25 0.84375q1.078125 0 1.703125 -0.5q0.640625 -0.5 0.84375 -1.421875l1.59375 0q-0.328125 1.640625 -1.4375 2.5q-1.09375 0.859375 -2.75 0.859375q-1.5625 0 -2.640625 -0.703125q-1.0625 -0.703125 -1.578125 -1.953125q-0.5 -1.25 -0.5 -2.546875q0 -2.171875 1.296875 -3.625q1.3125 -1.453125 3.3125 -1.453125zm-2.90625 4.1875l5.640625 0q-0.078125 -1.1875 -0.875 -1.96875q-0.78125 -0.796875 -1.96875 -0.796875q-1.109375 0 -1.90625 0.75q-0.78125 0.75 -0.890625 2.015625zm13.598572 -4.1875q1.78125 0 2.578125 0.90625q0.8125 0.90625 0.8125 2.59375l0 6.546875l-1.625 0l0 -6.703125q0 -0.84375 -0.53125 -1.375q-0.53125 -0.546875 -1.484375 -0.546875q-1.359375 0 -2.125 0.84375q-0.765625 0.828125 -0.765625 2.171875l0 5.609375l-1.609375 0l0 -9.828125l1.515625 0l0 1.5625l0.046875 0q0.53125 -0.921875 1.3125 -1.34375q0.78125 -0.4375 1.875 -0.4375zm7.8601074 -2.71875l0 2.9375l1.96875 0l0 1.4375l-1.96875 0l0 6.140625q0 0.734375 0.484375 0.78125q0.5 0.046875 1.03125 0.046875l0.453125 0l0 1.421875l-1.34375 0q-1.328125 0 -1.78125 -0.46875q-0.453125 -0.484375 -0.453125 -1.59375l0 -6.328125l-1.671875 0l0 -1.4375l1.671875 0l0 -2.9375l1.609375 0zm8.53186 2.703125q0.046875 0 0.09375 0q0.046875 0 0.125 0.015625l0 1.703125q-1.8125 0 -2.6875 0.96875q-0.859375 0.96875 -0.859375 2.984375l0 4.390625l-1.625 0l0 -9.828125l1.53125 0l0 2.078125l0.03125 0q0.5625 -1.171875 1.390625 -1.734375q0.828125 -0.578125 2.0 -0.578125zm3.0252075 -3.5l0 1.96875l-1.609375 0l0 -1.96875l1.609375 0zm0 3.734375l0 9.828125l-1.609375 0l0 -9.828125l1.609375 0zm6.5197754 -0.21875q2.109375 0 3.28125 1.53125q1.171875 1.515625 1.171875 3.890625l0 0.203125l-7.359375 0l0 0.109375q0 1.40625 0.8125 2.265625q0.828125 0.84375 2.25 0.84375q1.078125 0 1.703125 -0.5q0.640625 -0.5 0.84375 -1.421875l1.59375 0q-0.328125 1.640625 -1.4375 2.5q-1.09375 0.859375 -2.75 0.859375q-1.5625 0 -2.640625 -0.703125q-1.0625 -0.703125 -1.578125 -1.953125q-0.5 -1.25 -0.5 -2.546875q0 -2.171875 1.296875 -3.625q1.3125 -1.453125 3.3125 -1.453125zm-2.90625 4.1875l5.640625 0q-0.078125 -1.1875 -0.875 -1.96875q-0.78125 -0.796875 -1.96875 -0.796875q-1.109375 0 -1.90625 0.75q-0.78125 0.75 -0.890625 2.015625zm12.114197 -4.1875q1.984375 0 2.9375 0.78125q0.96875 0.765625 1.0625 2.28125l-1.609375 0l0 -0.015625q-0.0625 -0.78125 -0.6875 -1.203125q-0.609375 -0.421875 -1.578125 -0.421875q-0.984375 0 -1.546875 0.328125q-0.5625 0.328125 -0.5625 0.921875q0 0.53125 0.5 0.875q0.5 0.34375 1.5 0.5625l1.515625 0.34375q1.4375 0.3125 2.171875 0.96875q0.75 0.65625 0.75 1.765625q0 1.4375 -1.125 2.265625q-1.125 0.828125 -3.0625 0.828125q-1.890625 0 -3.0 -0.84375q-1.09375 -0.84375 -1.171875 -2.484375l1.625 0q0.03125 0.90625 0.71875 1.40625q0.703125 0.484375 1.921875 0.484375q1.171875 0 1.765625 -0.359375q0.609375 -0.375 0.609375 -1.09375q0 -0.671875 -0.609375 -1.046875q-0.59375 -0.390625 -2.4375 -0.765625q-1.859375 -0.359375 -2.625 -1.015625q-0.75 -0.671875 -0.75 -1.765625q0 -1.296875 1.046875 -2.046875q1.046875 -0.75 2.640625 -0.75zm15.136414 -3.84375q-1.28125 2.0 -1.890625 4.125q-0.609375 2.125 -0.609375 4.640625q0 2.53125 0.609375 4.6875q0.609375 2.140625 1.890625 4.203125l-1.234375 0q-1.625 -2.546875 -2.3125 -4.640625q-0.671875 -2.109375 -0.671875 -4.25q0 -2.234375 0.75 -4.515625q0.765625 -2.296875 2.234375 -4.25l1.234375 0zm6.953064 0q2.25 0 3.765625 1.171875q1.53125 1.171875 1.828125 3.234375l-1.8125 0q-0.296875 -1.390625 -1.296875 -2.125q-1.0 -0.75 -2.5 -0.75q-2.15625 0 -3.375 1.515625q-1.21875 1.515625 -1.21875 3.96875q0 2.59375 1.1875 4.140625q1.203125 1.53125 3.421875 1.53125q1.65625 0 2.71875 -1.046875q1.0625 -1.046875 1.203125 -2.859375l1.796875 0q-0.296875 2.625 -1.828125 4.03125q-1.53125 1.40625 -4.03125 1.40625q-2.921875 0 -4.609375 -1.921875q-1.671875 -1.9375 -1.671875 -5.15625q0 -3.15625 1.734375 -5.140625q1.734375 -2.0 4.6875 -2.0zm11.69165 3.84375q2.234375 0 3.5 1.4375q1.265625 1.4375 1.265625 3.703125q0 2.296875 -1.296875 3.71875q-1.296875 1.421875 -3.46875 1.421875q-2.125 0 -3.453125 -1.390625q-1.3125 -1.40625 -1.3125 -3.75q0 -2.328125 1.28125 -3.734375q1.296875 -1.40625 3.484375 -1.40625zm-3.0625 5.140625q0 1.703125 0.859375 2.703125q0.875 1.0 2.203125 1.0q1.328125 0 2.1875 -1.0q0.875 -1.015625 0.875 -2.703125q0 -1.671875 -0.859375 -2.6875q-0.859375 -1.03125 -2.21875 -1.03125q-1.296875 0 -2.171875 1.015625q-0.875 1.0 -0.875 2.703125zm11.150269 -4.921875l0 6.703125q0 0.828125 0.53125 1.375q0.53125 0.546875 1.46875 0.546875q1.390625 0 2.140625 -0.84375q0.765625 -0.84375 0.765625 -2.171875l0 -5.609375l1.625 0l0 9.828125l-1.53125 0l0 -1.5625l-0.03125 0q-0.546875 0.9375 -1.359375 1.375q-0.796875 0.421875 -1.84375 0.421875q-1.71875 0 -2.546875 -0.890625q-0.828125 -0.890625 -0.828125 -2.625l0 -6.546875l1.609375 0zm13.516357 -0.21875q1.78125 0 2.578125 0.90625q0.8125 0.90625 0.8125 2.59375l0 6.546875l-1.625 0l0 -6.703125q0 -0.84375 -0.53125 -1.375q-0.53125 -0.546875 -1.484375 -0.546875q-1.359375 0 -2.125 0.84375q-0.765625 0.828125 -0.765625 2.171875l0 5.609375l-1.609375 0l0 -9.828125l1.515625 0l0 1.5625l0.046875 0q0.53125 -0.921875 1.3125 -1.34375q0.78125 -0.4375 1.875 -0.4375zm7.8601074 -2.71875l0 2.9375l1.96875 0l0 1.4375l-1.96875 0l0 6.140625q0 0.734375 0.484375 0.78125q0.5 0.046875 1.03125 0.046875l0.453125 0l0 1.421875l-1.34375 0q-1.328125 0 -1.78125 -0.46875q-0.453125 -0.484375 -0.453125 -1.59375l0 -6.328125l-1.671875 0l0 -1.4375l1.671875 0l0 -2.9375l1.609375 0zm11.922485 14.1875l0 0.953125l-9.5 0l0 -0.953125l9.5 0zm5.890625 -11.46875q2.109375 0 3.3125 1.453125q1.203125 1.4375 1.203125 3.71875q0 2.28125 -1.203125 3.703125q-1.203125 1.40625 -3.265625 1.40625q-0.921875 0 -1.796875 -0.375q-0.875 -0.390625 -1.390625 -1.171875l-0.03125 0l0 5.078125l-1.625 0l0 -13.59375l1.625 0l0 1.34375l0.03125 0q0.375 -0.765625 1.1875 -1.15625q0.828125 -0.40625 1.953125 -0.40625zm-3.234375 5.125q0 1.71875 0.828125 2.71875q0.828125 1.0 2.265625 1.0q1.40625 0 2.171875 -1.0q0.78125 -1.0 0.78125 -2.78125q0 -1.59375 -0.8125 -2.609375q-0.8125 -1.03125 -2.25 -1.03125q-1.421875 0 -2.203125 1.046875q-0.78125 1.03125 -0.78125 2.65625zm11.68396 -7.84375l0 2.9375l1.96875 0l0 1.4375l-1.96875 0l0 6.140625q0 0.734375 0.484375 0.78125q0.5 0.046875 1.03125 0.046875l0.453125 0l0 1.421875l-1.34375 0q-1.328125 0 -1.78125 -0.46875q-0.453125 -0.484375 -0.453125 -1.59375l0 -6.328125l-1.671875 0l0 -1.4375l1.671875 0l0 -2.9375l1.609375 0zm8.53186 2.703125q0.046875 0 0.09375 0q0.046875 0 0.125 0.015625l0 1.703125q-1.8125 0 -2.6875 0.96875q-0.859375 0.96875 -0.859375 2.984375l0 4.390625l-1.625 0l0 -9.828125l1.53125 0l0 2.078125l0.03125 0q0.5625 -1.171875 1.390625 -1.734375q0.828125 -0.578125 2.0 -0.578125zm1.1502075 -3.828125q1.515625 2.34375 2.25 4.484375q0.734375 2.125 0.734375 4.40625q0 2.3125 -0.78125 4.5625q-0.765625 2.25 -2.203125 4.203125l-1.234375 0q1.265625 -2.015625 1.875 -4.140625q0.625 -2.125 0.625 -4.625q0 -2.53125 -0.625 -4.6875q-0.609375 -2.15625 -1.875 -4.203125l1.234375 0zm7.468628 11.78125l0 2.109375l-2.109375 0l0 -2.109375l2.109375 0z" fill-rule="nonzero"></path><path fill="#000000" fill-opacity="0.0" d="m854.8714 137.84514l43.149597 0l0 52.346466l-43.149597 0z" fill-rule="evenodd"></path><path fill="#000000" d="m876.4442 152.86952q1.421875 0 2.46875 0.46875q1.0625 0.453125 1.78125 1.40625q1.421875 1.84375 1.421875 6.78125q0 2.484375 -0.34375 4.15625q-0.34375 1.671875 -1.078125 2.625q-0.703125 0.90625 -1.765625 1.390625q-1.0625 0.484375 -2.484375 0.484375q-2.84375 0 -4.25 -1.90625q-1.40625 -1.890625 -1.40625 -6.75q0 -4.890625 1.40625 -6.765625q1.4375 -1.890625 4.25 -1.890625zm-3.5 8.640625q0 2.03125 0.21875 3.375q0.234375 1.34375 0.671875 2.0625q0.890625 1.421875 2.609375 1.421875q1.890625 0 2.71875 -1.625q0.40625 -0.828125 0.59375 -2.109375q0.1875 -1.28125 0.1875 -3.0625q0 -0.59375 -0.015625 -1.328125q0 -0.75 -0.09375 -1.5q-0.09375 -0.765625 -0.3125 -1.484375q-0.203125 -0.734375 -0.578125 -1.296875q-0.40625 -0.578125 -1.015625 -0.9375q-0.59375 -0.359375 -1.515625 -0.359375q-0.796875 0 -1.453125 0.34375q-0.640625 0.34375 -1.109375 1.046875q-0.90625 1.390625 -0.90625 5.453125z" fill-rule="nonzero"></path><path fill="#000000" fill-opacity="0.0" d="m300.06824 137.84514l554.80316 0l0 52.346466l-554.80316 0z" fill-rule="evenodd"></path><path fill="#000000" d="m560.8429 152.86952l0 11.21875l2.296875 0l0 1.8125l-2.296875 0l0 3.984375l-1.921875 0l0 -3.984375l-7.46875 0l0 -1.96875l7.75 -11.0625l1.640625 0zm-1.96875 2.90625l-5.671875 8.3125l5.71875 0l0 -8.3125l-0.046875 0zm17.472656 -2.609375l0 1.734375q-2.625 2.625 -4.4375 6.78125q-1.8125 4.140625 -2.09375 8.203125l-2.28125 0q0.28125 -3.96875 1.984375 -7.765625q1.71875 -3.796875 4.734375 -7.046875l-8.921875 0l0 -1.90625l11.015625 0zm5.7851562 14.0625l0 2.65625l-2.65625 0l0 -2.65625l2.65625 0zm6.6679688 0l0 2.65625l-2.65625 0l0 -2.65625l2.65625 0zm10.558594 -14.359375l0 17.015625l-2.046875 0l0 -12.1875l-4.40625 0l0 -1.640625l0.0625 0q2.15625 0 3.34375 -0.765625q1.1875 -0.78125 1.484375 -2.421875l1.5625 0z" fill-rule="nonzero"></path><path fill="#000000" fill-opacity="0.0" d="m66.461945 137.84514l233.6063 0l0 52.346466l-233.6063 0z" fill-rule="evenodd"></path><path fill="#000000" d="m157.07368 152.86952q2.109375 0 3.359375 1.140625q1.25 1.125 1.453125 3.203125l-2.046875 0q-0.15625 -1.21875 -0.921875 -1.875q-0.765625 -0.671875 -1.9375 -0.671875q-1.96875 0 -3.015625 1.640625q-1.03125 1.640625 -1.109375 4.8125l0.046875 0.0625q0.6875 -1.125 1.734375 -1.6875q1.0625 -0.5625 2.515625 -0.5625q2.3125 0 3.75 1.53125q1.453125 1.53125 1.453125 3.984375q0 2.453125 -1.5 4.09375q-1.484375 1.640625 -4.171875 1.640625q-2.90625 0 -4.390625 -2.03125q-1.46875 -2.046875 -1.46875 -6.171875q0 -4.40625 1.59375 -6.75q1.59375 -2.359375 4.65625 -2.359375zm-3.828125 11.703125q0 1.671875 0.96875 2.734375q0.96875 1.0625 2.5625 1.0625q1.5 0 2.453125 -1.0625q0.96875 -1.0625 0.96875 -2.703125q0 -1.765625 -0.921875 -2.8125q-0.921875 -1.046875 -2.53125 -1.046875q-1.59375 0 -2.546875 1.0625q-0.953125 1.0625 -0.953125 2.765625zm16.332031 -11.703125q2.453125 0 3.8125 1.21875q1.375 1.203125 1.375 3.328125q0 1.03125 -0.609375 1.9375q-0.609375 0.90625 -1.75 1.453125l0 0.046875q1.5 0.34375 2.28125 1.421875q0.78125 1.078125 0.78125 2.703125q0 2.390625 -1.625 3.796875q-1.625 1.40625 -4.21875 1.40625q-2.546875 0 -4.109375 -1.421875q-1.5625 -1.4375 -1.5625 -4.0625l0 -0.078125l2.046875 0q0.078125 1.8125 1.046875 2.78125q0.96875 0.96875 2.578125 0.96875q1.578125 0 2.625 -0.921875q1.0625 -0.921875 1.0625 -2.375q0 -1.5 -1.0 -2.375q-0.984375 -0.875 -2.703125 -0.875q-0.234375 0 -0.546875 0.015625q-0.296875 0.015625 -0.59375 0.046875l0 -1.71875q0.265625 0.03125 0.75 0.03125q1.1875 0 1.890625 -0.375q0.703125 -0.390625 1.09375 -0.984375q0.40625 -0.59375 0.40625 -1.4375q0 -1.265625 -0.828125 -2.0q-0.8125 -0.734375 -2.203125 -0.734375q-1.484375 0 -2.34375 0.984375q-0.84375 0.96875 -0.875 2.71875l-2.046875 0q0.140625 -2.671875 1.5 -4.078125q1.375 -1.421875 3.765625 -1.421875zm11.675781 14.359375l0 2.65625l-2.65625 0l0 -2.65625l2.65625 0zm6.6679688 0l0 2.65625l-2.65625 0l0 -2.65625l2.65625 0zm12.074219 -14.359375l0 11.21875l2.296875 0l0 1.8125l-2.296875 0l0 3.984375l-1.921875 0l0 -3.984375l-7.46875 0l0 -1.96875l7.75 -11.0625l1.640625 0zm-1.96875 2.90625l-5.671875 8.3125l5.71875 0l0 -8.3125l-0.046875 0zm11.816406 -2.90625q2.421875 0 3.78125 1.1875q1.359375 1.171875 1.359375 3.140625q0 1.109375 -0.59375 2.0625q-0.59375 0.9375 -1.75 1.484375q1.5 0.453125 2.265625 1.546875q0.765625 1.078125 0.765625 2.6875q0 2.34375 -1.59375 3.78125q-1.578125 1.421875 -4.0625 1.421875q-2.609375 0 -4.1875 -1.375q-1.578125 -1.390625 -1.578125 -3.828125q0 -1.5 0.765625 -2.625q0.78125 -1.125 2.203125 -1.609375q-1.125 -0.484375 -1.75 -1.453125q-0.625 -0.96875 -0.625 -2.09375q0 -1.921875 1.4375 -3.125q1.4375 -1.203125 3.5625 -1.203125zm-2.84375 4.421875q0 1.21875 0.796875 1.96875q0.8125 0.75 2.21875 0.75q1.28125 0 2.046875 -0.734375q0.765625 -0.734375 0.765625 -1.984375q0 -1.25 -0.765625 -1.9375q-0.765625 -0.6875 -2.109375 -0.6875q-1.328125 0 -2.140625 0.734375q-0.8125 0.734375 -0.8125 1.890625zm-0.59375 7.78125q0 1.5 1.0 2.40625q1.015625 0.890625 2.609375 0.890625q1.515625 0 2.5 -0.921875q0.984375 -0.9375 0.984375 -2.390625q0 -1.34375 -1.03125 -2.28125q-1.03125 -0.953125 -2.5 -0.953125q-1.5 0 -2.53125 0.90625q-1.03125 0.90625 -1.03125 2.34375z" fill-rule="nonzero"></path></g></svg>

